<svg version="1.1" viewBox="0.0 0.0 600.0 371.0" fill="none" stroke="none" stroke-linecap="square" stroke-miterlimit="10" width="600" height="371" xmlns:xlink="http://www.w3.org/1999/xlink" xmlns="http://www.w3.org/2000/svg"><path fill="#ffffff" d="M0 0L600.0 0L600.0 371.0L0 371.0L0 0Z" fill-rule="nonzero"/><path fill="#fbbc04" d="M233.08339 32.547493C254.18459 23.315735 276.9677 18.55 300.0 18.55L300.0 185.5Z" fill-rule="nonzero"/><path fill="#ea4335" d="M134.40222 206.70563C124.98735 133.1835 165.17552 62.257137 233.08339 32.547493L300.0 185.5Z" fill-rule="nonzero"/><path fill="#4285f4" d="M300.0 18.55C389.44803 18.55 463.0033 89.047 466.79956 178.41444C470.59586 267.7819 403.28415 344.26285 314.15836 351.84857C225.03255 359.4343 145.76372 295.42917 134.40222 206.70563L300.0 185.5Z" fill-rule="nonzero"/><path fill="#1a1a1a" d="M25.6125 26.534374L26.7375 26.83125Q26.378124 28.221874 25.45625 28.95625Q24.534374 29.690624 23.190624 29.690624Q21.8 29.690624 20.925 29.128124Q20.05 28.565624 19.596874 27.503124Q19.14375 26.425 19.14375 25.190624Q19.14375 23.846874 19.659374 22.846874Q20.175 21.846874 21.1125 21.33125Q22.065624 20.815624 23.20625 20.815624Q24.4875 20.815624 25.3625 21.471874Q26.253124 22.128124 26.596874 23.315624L25.471874 23.58125Q25.175 22.64375 24.596874 22.221874Q24.034374 21.784374 23.175 21.784374Q22.190624 21.784374 21.51875 22.26875Q20.8625 22.7375 20.58125 23.534374Q20.315624 24.33125 20.315624 25.190624Q20.315624 26.284374 20.628124 27.096874Q20.95625 27.909374 21.628124 28.315624Q22.3 28.721874 23.096874 28.721874Q24.05 28.721874 24.70625 28.175Q25.378124 27.628124 25.6125 26.534374ZM27.95625 26.440624Q27.95625 24.70625 28.909374 23.878124Q29.70625 23.190624 30.8625 23.190624Q32.14375 23.190624 32.95625 24.034374Q33.784374 24.8625 33.784374 26.346874Q33.784374 27.55 33.425 28.2375Q33.065624 28.925 32.3625 29.315624Q31.675 29.690624 30.8625 29.690624Q29.565624 29.690624 28.753124 28.8625Q27.95625 28.01875 27.95625 26.440624ZM29.034374 26.440624Q29.034374 27.628124 29.55 28.221874Q30.08125 28.815624 30.8625 28.815624Q31.659374 28.815624 32.175 28.221874Q32.690624 27.628124 32.690624 26.409374Q32.690624 25.253124 32.159374 24.659374Q31.64375 24.065624 30.8625 24.065624Q30.08125 24.065624 29.55 24.659374Q29.034374 25.2375 29.034374 26.440624ZM39.378124 29.55L39.378124 28.76875Q38.784374 29.690624 37.64375 29.690624Q36.89375 29.690624 36.26875 29.284374Q35.64375 28.8625 35.3 28.128124Q34.95625 27.39375 34.95625 26.440624Q34.95625 25.51875 35.26875 24.753124Q35.58125 23.9875 36.20625 23.596874Q36.83125 23.190624 37.596874 23.190624Q38.159374 23.190624 38.596874 23.425Q39.034374 23.659374 39.315624 24.034374L39.315624 20.95625L40.3625 20.95625L40.3625 29.55L39.378124 29.55ZM36.05 26.440624Q36.05 27.64375 36.55 28.2375Q37.05 28.815624 37.7375 28.815624Q38.425 28.815624 38.909374 28.253124Q39.39375 27.690624 39.39375 26.534374Q39.39375 25.253124 38.89375 24.659374Q38.409374 24.065624 37.690624 24.065624Q36.9875 24.065624 36.51875 24.64375Q36.05 25.20625 36.05 26.440624ZM46.596874 27.55L47.690624 27.675Q47.440624 28.628124 46.7375 29.159374Q46.034374 29.690624 44.95625 29.690624Q43.596874 29.690624 42.784374 28.846874Q41.9875 28.003124 41.9875 26.4875Q41.9875 24.925 42.8 24.065624Q43.6125 23.190624 44.89375 23.190624Q46.14375 23.190624 46.925 24.034374Q47.721874 24.878124 47.721874 26.425Q47.721874 26.51875 47.721874 26.70625L43.08125 26.70625Q43.14375 27.7375 43.659374 28.284374Q44.175 28.815624 44.95625 28.815624Q45.534374 28.815624 45.940624 28.51875Q46.3625 28.20625 46.596874 27.55ZM43.14375 25.846874L46.6125 25.846874Q46.55 25.05 46.221874 24.659374Q45.70625 24.05 44.909374 24.05Q44.175 24.05 43.675 24.534374Q43.190624 25.01875 43.14375 25.846874ZM49.315624 29.55L49.315624 20.95625L50.378124 20.95625L50.378124 29.55L49.315624 29.55ZM56.409374 28.784374Q55.815624 29.284374 55.26875 29.4875Q54.7375 29.690624 54.1125 29.690624Q53.08125 29.690624 52.534374 29.190624Q51.9875 28.690624 51.9875 27.909374Q51.9875 27.45625 52.190624 27.08125Q52.39375 26.690624 52.7375 26.471874Q53.08125 26.2375 53.503124 26.128124Q53.8 26.034374 54.440624 25.95625Q55.70625 25.815624 56.315624 25.596874Q56.315624 25.378124 56.315624 25.33125Q56.315624 24.675 56.01875 24.409374Q55.6125 24.065624 54.815624 24.065624Q54.08125 24.065624 53.721874 24.33125Q53.3625 24.58125 53.190624 25.2375L52.159374 25.096874Q52.3 24.440624 52.628124 24.034374Q52.95625 23.628124 53.565624 23.409374Q54.175 23.190624 54.971874 23.190624Q55.76875 23.190624 56.26875 23.378124Q56.76875 23.565624 57.003124 23.846874Q57.2375 24.128124 57.33125 24.565624Q57.378124 24.83125 57.378124 25.534374L57.378124 26.940624Q57.378124 28.409374 57.440624 28.8Q57.51875 29.190624 57.721874 29.55L56.6125 29.55Q56.45625 29.221874 56.409374 28.784374ZM56.315624 26.425Q55.7375 26.659374 54.596874 26.83125Q53.940624 26.925 53.675 27.05Q53.409374 27.159374 53.253124 27.378124Q53.1125 27.596874 53.1125 27.878124Q53.1125 28.3 53.425 28.58125Q53.753124 28.8625 54.3625 28.8625Q54.971874 28.8625 55.440624 28.596874Q55.925 28.33125 56.14375 27.8625Q56.315624 27.503124 56.315624 26.815624L56.315624 26.425ZM60.315624 29.55L59.33125 29.55L59.33125 20.95625L60.39375 20.95625L60.39375 24.01875Q61.065624 23.190624 62.096874 23.190624Q62.675 23.190624 63.175 23.425Q63.690624 23.64375 64.01875 24.065624Q64.3625 24.4875 64.55 25.08125Q64.7375 25.675 64.7375 26.346874Q64.7375 27.940624 63.940624 28.815624Q63.14375 29.690624 62.05 29.690624Q60.940624 29.690624 60.315624 28.76875L60.315624 29.55ZM60.3 26.39375Q60.3 27.503124 60.6125 28.003124Q61.1125 28.815624 61.95625 28.815624Q62.64375 28.815624 63.14375 28.221874Q63.659374 27.628124 63.659374 26.425Q63.659374 25.20625 63.175 24.628124Q62.690624 24.05 62.003124 24.05Q61.315624 24.05 60.8 24.659374Q60.3 25.253124 60.3 26.39375Z" fill-rule="nonzero"/><path fill="#9e9e9e" d="M24.51875 40.065624L23.471874 40.14375Q23.33125 39.51875 23.08125 39.2375Q22.64375 38.784374 22.01875 38.784374Q21.51875 38.784374 21.128124 39.065624Q20.64375 39.440624 20.346874 40.14375Q20.065624 40.83125 20.05 42.1125Q20.425 41.534374 20.971874 41.253124Q21.534374 40.971874 22.14375 40.971874Q23.190624 40.971874 23.925 41.753124Q24.675 42.534374 24.675 43.753124Q24.675 44.565624 24.315624 45.26875Q23.971874 45.95625 23.3625 46.33125Q22.753124 46.690624 21.9875 46.690624Q20.659374 46.690624 19.83125 45.721874Q19.003124 44.753124 19.003124 42.534374Q19.003124 40.034374 19.925 38.909374Q20.721874 37.925 22.08125 37.925Q23.096874 37.925 23.7375 38.503124Q24.39375 39.065624 24.51875 40.065624ZM20.221874 43.76875Q20.221874 44.315624 20.440624 44.815624Q20.675 45.3 21.08125 45.565624Q21.503124 45.83125 21.971874 45.83125Q22.628124 45.83125 23.1125 45.3Q23.596874 44.753124 23.596874 43.83125Q23.596874 42.940624 23.1125 42.425Q22.64375 41.909374 21.925 41.909374Q21.20625 41.909374 20.70625 42.425Q20.221874 42.940624 20.221874 43.76875ZM26.6125 46.55L26.6125 45.346874L27.815624 45.346874L27.815624 46.55Q27.815624 47.20625 27.58125 47.6125Q27.346874 48.034374 26.846874 48.253124L26.55 47.8Q26.878124 47.659374 27.034374 47.3625Q27.190624 47.08125 27.221874 46.55L26.6125 46.55ZM34.51875 40.065624L33.471874 40.14375Q33.33125 39.51875 33.08125 39.2375Q32.64375 38.784374 32.01875 38.784374Q31.51875 38.784374 31.128124 39.065624Q30.64375 39.440624 30.346874 40.14375Q30.065624 40.83125 30.05 42.1125Q30.425 41.534374 30.971874 41.253124Q31.534374 40.971874 32.14375 40.971874Q33.190624 40.971874 33.925 41.753124Q34.675 42.534374 34.675 43.753124Q34.675 44.565624 34.315624 45.26875Q33.971874 45.95625 33.3625 46.33125Q32.753124 46.690624 31.9875 46.690624Q30.659374 46.690624 29.83125 45.721874Q29.003124 44.753124 29.003124 42.534374Q29.003124 40.034374 29.925 38.909374Q30.721874 37.925 32.08125 37.925Q33.096874 37.925 33.7375 38.503124Q34.39375 39.065624 34.51875 40.065624ZM30.221874 43.76875Q30.221874 44.315624 30.440624 44.815624Q30.675 45.3 31.08125 45.565624Q31.503124 45.83125 31.971874 45.83125Q32.628124 45.83125 33.1125 45.3Q33.596874 44.753124 33.596874 43.83125Q33.596874 42.940624 33.1125 42.425Q32.64375 41.909374 31.925 41.909374Q31.20625 41.909374 30.70625 42.425Q30.221874 42.940624 30.221874 43.76875ZM36.253124 40.01875Q36.253124 39.096874 36.70625 38.45625Q37.175 37.815624 38.05 37.815624Q38.8625 37.815624 39.39375 38.39375Q39.925 38.971874 39.925 40.08125Q39.925 41.175 39.378124 41.76875Q38.846874 42.346874 38.065624 42.346874Q37.284374 42.346874 36.76875 41.76875Q36.253124 41.190624 36.253124 40.01875ZM38.08125 38.534374Q37.690624 38.534374 37.425 38.878124Q37.175 39.221874 37.175 40.128124Q37.175 40.95625 37.425 41.3Q37.690624 41.628124 38.08125 41.628124Q38.4875 41.628124 38.7375 41.284374Q39.003124 40.940624 39.003124 40.05Q39.003124 39.20625 38.7375 38.878124Q38.471874 38.534374 38.08125 38.534374ZM38.08125 46.8625L42.784374 37.815624L43.64375 37.815624L38.95625 46.8625L38.08125 46.8625ZM41.8 44.534374Q41.8 43.6125 42.253124 42.971874Q42.721874 42.33125 43.6125 42.33125Q44.425 42.33125 44.95625 42.909374Q45.4875 43.471874 45.4875 44.596874Q45.4875 45.690624 44.940624 46.284374Q44.409374 46.8625 43.6125 46.8625Q42.846874 46.8625 42.315624 46.284374Q41.8 45.70625 41.8 44.534374ZM43.64375 43.05Q43.2375 43.05 42.971874 43.39375Q42.721874 43.7375 42.721874 44.64375Q42.721874 45.45625 42.9875 45.8Q43.253124 46.14375 43.64375 46.14375Q44.034374 46.14375 44.3 45.8Q44.565624 45.45625 44.565624 44.55Q44.565624 43.721874 44.3 43.39375Q44.034374 43.05 43.64375 43.05Z" fill-rule="nonzero"/><path stroke="#757575" stroke-width="1.0" stroke-linecap="butt" d="M18.55 34.05L127.05 34.05L267.52667 30.257496" fill-rule="nonzero"/><path fill="#9e9e9e" d="M269.52667 30.257496C269.52667 29.152925 268.63123 28.257496 267.52667 28.257496C266.4221 28.257496 265.52667 29.152925 265.52667 30.257496C265.52667 31.362064 266.4221 32.257496 267.52667 32.257496C268.63123 32.257496 269.52667 31.362064 269.52667 30.257496" fill-rule="nonzero"/><path fill="#1a1a1a" d="M25.9875 101.89016Q26.784374 102.437035 27.440624 102.687035L27.1125 103.48391Q26.190624 103.14016 25.26875 102.42141Q24.315624 102.95266 23.159374 102.95266Q21.9875 102.95266 21.034374 102.39016Q20.096874 101.82766 19.58125 100.812035Q19.065624 99.79641 19.065624 98.51516Q19.065624 97.249535 19.58125 96.20266Q20.096874 95.155785 21.05 94.60891Q22.003124 94.062035 23.175 94.062035Q24.3625 94.062035 25.315624 94.64016Q26.284374 95.20266 26.784374 96.218285Q27.284374 97.23391 27.284374 98.51516Q27.284374 99.57766 26.95625 100.42141Q26.64375 101.26516 25.9875 101.89016ZM23.4875 100.437035Q24.471874 100.718285 25.1125 101.26516Q26.1125 100.343285 26.1125 98.51516Q26.1125 97.468285 25.753124 96.687035Q25.39375 95.905785 24.70625 95.48391Q24.034374 95.04641 23.190624 95.04641Q21.909374 95.04641 21.065624 95.92141Q20.2375 96.780785 20.2375 98.51516Q20.2375 100.187035 21.065624 101.093285Q21.89375 101.98391 23.190624 101.98391Q23.8 101.98391 24.33125 101.749535Q23.8 101.405785 23.20625 101.26516L23.4875 100.437035ZM32.425 102.812035L32.425 101.89016Q31.690624 102.95266 30.440624 102.95266Q29.89375 102.95266 29.409374 102.749535Q28.940624 102.530785 28.70625 102.218285Q28.471874 101.89016 28.378124 101.42141Q28.315624 101.124535 28.315624 100.437035L28.315624 96.593285L29.378124 96.593285L29.378124 100.04641Q29.378124 100.85891 29.440624 101.155785Q29.534374 101.562035 29.846874 101.812035Q30.175 102.04641 30.659374 102.04641Q31.128124 102.04641 31.534374 101.812035Q31.95625 101.562035 32.128124 101.14016Q32.315624 100.718285 32.315624 99.92141L32.315624 96.593285L33.3625 96.593285L33.3625 102.812035L32.425 102.812035ZM35.346874 95.437035L35.346874 94.218285L36.409374 94.218285L36.409374 95.437035L35.346874 95.437035ZM35.346874 102.812035L35.346874 96.593285L36.409374 96.593285L36.409374 102.812035L35.346874 102.812035ZM42.409374 100.530785L43.440624 100.67141Q43.26875 101.73391 42.565624 102.343285Q41.8625 102.95266 40.846874 102.95266Q39.565624 102.95266 38.784374 102.124535Q38.01875 101.280785 38.01875 99.718285Q38.01875 98.718285 38.346874 97.968285Q38.690624 97.20266 39.3625 96.82766Q40.05 96.45266 40.8625 96.45266Q41.8625 96.45266 42.503124 96.968285Q43.159374 97.468285 43.346874 98.42141L42.315624 98.57766Q42.175 97.95266 41.8 97.64016Q41.425 97.312035 40.89375 97.312035Q40.096874 97.312035 39.596874 97.89016Q39.096874 98.45266 39.096874 99.687035Q39.096874 100.95266 39.58125 101.51516Q40.065624 102.07766 40.83125 102.07766Q41.45625 102.07766 41.8625 101.70266Q42.284374 101.32766 42.409374 100.530785ZM44.346874 102.812035L44.346874 94.218285L45.409374 94.218285L45.409374 99.124535L47.89375 96.593285L49.26875 96.593285L46.878124 98.89016L49.503124 102.812035L48.20625 102.812035L46.14375 99.624535L45.409374 100.343285L45.409374 102.812035L44.346874 102.812035ZM50.346874 95.437035L50.346874 94.218285L51.409374 94.218285L51.409374 95.437035L50.346874 95.437035ZM50.346874 102.812035L50.346874 96.593285L51.409374 96.593285L51.409374 102.812035L50.346874 102.812035ZM57.596874 100.812035L58.690624 100.937035Q58.440624 101.89016 57.7375 102.42141Q57.034374 102.95266 55.95625 102.95266Q54.596874 102.95266 53.784374 102.10891Q52.9875 101.26516 52.9875 99.749535Q52.9875 98.187035 53.8 97.32766Q54.6125 96.45266 55.89375 96.45266Q57.14375 96.45266 57.925 97.29641Q58.721874 98.14016 58.721874 99.687035Q58.721874 99.780785 58.721874 99.968285L54.08125 99.968285Q54.14375 100.999535 54.659374 101.54641Q55.175 102.07766 55.95625 102.07766Q56.534374 102.07766 56.940624 101.780785Q57.3625 101.468285 57.596874 100.812035ZM54.14375 99.10891L57.6125 99.10891Q57.55 98.312035 57.221874 97.92141Q56.70625 97.312035 55.909374 97.312035Q55.175 97.312035 54.675 97.79641Q54.190624 98.280785 54.14375 99.10891Z" fill-rule="nonzero"/><path fill="#9e9e9e" d="M24.596874 118.79641L24.596874 119.812035L18.909374 119.812035Q18.909374 119.437035 19.034374 119.07766Q19.253124 118.499535 19.721874 117.937035Q20.20625 117.374535 21.1125 116.64016Q22.51875 115.48391 23.003124 114.812035Q23.503124 114.14016 23.503124 113.54641Q23.503124 112.92141 23.05 112.499535Q22.596874 112.062035 21.878124 112.062035Q21.1125 112.062035 20.659374 112.51516Q20.20625 112.968285 20.190624 113.780785L19.1125 113.67141Q19.221874 112.45266 19.940624 111.82766Q20.675 111.187035 21.909374 111.187035Q23.14375 111.187035 23.8625 111.874535Q24.58125 112.562035 24.58125 113.57766Q24.58125 114.093285 24.3625 114.593285Q24.159374 115.07766 23.659374 115.64016Q23.175 116.187035 22.05 117.14016Q21.096874 117.937035 20.815624 118.23391Q20.55 118.51516 20.378124 118.79641L24.596874 118.79641ZM26.05 115.57766Q26.05 114.04641 26.3625 113.124535Q26.675 112.187035 27.284374 111.687035Q27.909374 111.187035 28.846874 111.187035Q29.534374 111.187035 30.05 111.468285Q30.58125 111.749535 30.925 112.280785Q31.26875 112.79641 31.45625 113.54641Q31.64375 114.29641 31.64375 115.57766Q31.64375 117.093285 31.33125 118.01516Q31.034374 118.937035 30.409374 119.45266Q29.8 119.95266 28.846874 119.95266Q27.6125 119.95266 26.89375 119.062035Q26.05 117.999535 26.05 115.57766ZM27.128124 115.57766Q27.128124 117.687035 27.628124 118.39016Q28.128124 119.093285 28.846874 119.093285Q29.58125 119.093285 30.065624 118.39016Q30.565624 117.687035 30.565624 115.57766Q30.565624 113.45266 30.065624 112.76516Q29.58125 112.062035 28.83125 112.062035Q28.1125 112.062035 27.675 112.67141Q27.128124 113.45266 27.128124 115.57766ZM33.6125 119.812035L33.6125 118.60891L34.815624 118.60891L34.815624 119.812035Q34.815624 120.468285 34.58125 120.874535Q34.346874 121.29641 33.846874 121.51516L33.55 121.062035Q33.878124 120.92141 34.034374 120.624535Q34.190624 120.343285 34.221874 119.812035L33.6125 119.812035ZM36.05 117.562035L37.159374 117.468285Q37.284374 118.280785 37.721874 118.687035Q38.175 119.093285 38.815624 119.093285Q39.565624 119.093285 40.096874 118.51516Q40.628124 117.937035 40.628124 116.999535Q40.628124 116.093285 40.1125 115.57766Q39.6125 115.04641 38.784374 115.04641Q38.284374 115.04641 37.8625 115.280785Q37.45625 115.51516 37.221874 115.874535L36.2375 115.749535L37.065624 111.343285L41.346874 111.343285L41.346874 112.343285L37.909374 112.343285L37.45625 114.655785Q38.221874 114.10891 39.065624 114.10891Q40.190624 114.10891 40.95625 114.89016Q41.7375 115.67141 41.7375 116.905785Q41.7375 118.062035 41.065624 118.92141Q40.2375 119.95266 38.815624 119.95266Q37.64375 119.95266 36.89375 119.29641Q36.159374 118.64016 36.05 117.562035ZM43.253124 113.280785Q43.253124 112.35891 43.70625 111.718285Q44.175 111.07766 45.05 111.07766Q45.8625 111.07766 46.39375 111.655785Q46.925 112.23391 46.925 113.343285Q46.925 114.437035 46.378124 115.030785Q45.846874 115.60891 45.065624 115.60891Q44.284374 115.60891 43.76875 115.030785Q43.253124 114.45266 43.253124 113.280785ZM45.08125 111.79641Q44.690624 111.79641 44.425 112.14016Q44.175 112.48391 44.175 113.39016Q44.175 114.218285 44.425 114.562035Q44.690624 114.89016 45.08125 114.89016Q45.4875 114.89016 45.7375 114.54641Q46.003124 114.20266 46.003124 113.312035Q46.003124 112.468285 45.7375 112.14016Q45.471874 111.79641 45.08125 111.79641ZM45.08125 120.124535L49.784374 111.07766L50.64375 111.07766L45.95625 120.124535L45.08125 120.124535ZM48.8 117.79641Q48.8 116.874535 49.253124 116.23391Q49.721874 115.593285 50.6125 115.593285Q51.425 115.593285 51.95625 116.17141Q52.4875 116.73391 52.4875 117.85891Q52.4875 118.95266 51.940624 119.54641Q51.409374 120.124535 50.6125 120.124535Q49.846874 120.124535 49.315624 119.54641Q48.8 118.968285 48.8 117.79641ZM50.64375 116.312035Q50.2375 116.312035 49.971874 116.655785Q49.721874 116.999535 49.721874 117.905785Q49.721874 118.718285 49.9875 119.062035Q50.253124 119.405785 50.64375 119.405785Q51.034374 119.405785 51.3 119.062035Q51.565624 118.718285 51.565624 117.812035Q51.565624 116.98391 51.3 116.655785Q51.034374 116.312035 50.64375 116.312035Z" fill-rule="nonzero"/><path stroke="#757575" stroke-width="1.0" stroke-linecap="butt" d="M18.55 107.312035L127.05 107.312035L162.00943 107.312035" fill-rule="nonzero"/><path fill="#9e9e9e" d="M164.00943 107.312035C164.00943 106.207466 163.11401 105.312035 162.00943 105.312035C160.90486 105.312035 160.00943 106.207466 160.00943 107.312035C160.00943 108.41661 160.90486 109.312035 162.00943 109.312035C163.11401 109.312035 164.00943 108.41661 164.00943 107.312035" fill-rule="nonzero"/><path fill="#1a1a1a" d="M524.5125 282.76904L525.6375 283.06592Q525.27814 284.45654 524.35626 285.19092Q523.4344 285.9253 522.09064 285.9253Q520.7 285.9253 519.825 285.3628Q518.95 284.8003 518.4969 283.7378Q518.04376 282.65967 518.04376 281.4253Q518.04376 280.08154 518.5594 279.08154Q519.075 278.08154 520.0125 277.56592Q520.96564 277.0503 522.10626 277.0503Q523.3875 277.0503 524.2625 277.70654Q525.15314 278.3628 525.4969 279.5503L524.3719 279.81592Q524.075 278.87842 523.4969 278.45654Q522.9344 278.01904 522.075 278.01904Q521.09064 278.01904 520.41876 278.50342Q519.7625 278.97217 519.48126 279.76904Q519.21564 280.56592 519.21564 281.4253Q519.21564 282.51904 519.52814 283.33154Q519.85626 284.14404 520.52814 284.5503Q521.2 284.95654 521.9969 284.95654Q522.95 284.95654 523.60626 284.40967Q524.27814 283.8628 524.5125 282.76904ZM526.85626 282.6753Q526.85626 280.94092 527.8094 280.1128Q528.60626 279.4253 529.7625 279.4253Q531.04376 279.4253 531.85626 280.26904Q532.6844 281.09717 532.6844 282.58154Q532.6844 283.78467 532.325 284.47217Q531.96564 285.15967 531.2625 285.5503Q530.575 285.9253 529.7625 285.9253Q528.46564 285.9253 527.65314 285.09717Q526.85626 284.25342 526.85626 282.6753ZM527.9344 282.6753Q527.9344 283.8628 528.45 284.45654Q528.98126 285.0503 529.7625 285.0503Q530.5594 285.0503 531.075 284.45654Q531.59064 283.8628 531.59064 282.64404Q531.59064 281.4878 531.0594 280.89404Q530.54376 280.3003 529.7625 280.3003Q528.98126 280.3003 528.45 280.89404Q527.9344 281.47217 527.9344 282.6753ZM534.2469 285.78467L534.2469 279.56592L535.1844 279.56592L535.1844 280.44092Q535.8719 279.4253 537.16876 279.4253Q537.73126 279.4253 538.2 279.62842Q538.6844 279.83154 538.91876 280.15967Q539.15314 280.4878 539.2469 280.9253Q539.29376 281.22217 539.29376 281.95654L539.29376 285.78467L538.2469 285.78467L538.2469 282.00342Q538.2469 281.34717 538.1219 281.03467Q537.9969 280.72217 537.6844 280.53467Q537.3719 280.33154 536.95 280.33154Q536.27814 280.33154 535.77814 280.76904Q535.29376 281.19092 535.29376 282.37842L535.29376 285.78467L534.2469 285.78467ZM541.4969 285.78467L541.4969 280.37842L540.5594 280.37842L540.5594 279.56592L541.4969 279.56592L541.4969 278.89404Q541.4969 278.26904 541.60626 277.97217Q541.7625 277.5503 542.1375 277.3003Q542.52814 277.0503 543.21564 277.0503Q543.66876 277.0503 544.2 277.15967L544.04376 278.06592Q543.71564 278.01904 543.41876 278.01904Q542.9344 278.01904 542.73126 278.22217Q542.54376 278.4253 542.54376 278.9878L542.54376 279.56592L543.7625 279.56592L543.7625 280.37842L542.54376 280.37842L542.54376 285.78467L541.4969 285.78467ZM548.4969 283.78467L549.59064 283.90967Q549.34064 284.8628 548.6375 285.39404Q547.9344 285.9253 546.85626 285.9253Q545.4969 285.9253 544.6844 285.08154Q543.8875 284.2378 543.8875 282.72217Q543.8875 281.15967 544.7 280.3003Q545.5125 279.4253 546.79376 279.4253Q548.04376 279.4253 548.825 280.26904Q549.6219 281.1128 549.6219 282.65967Q549.6219 282.75342 549.6219 282.94092L544.98126 282.94092Q545.04376 283.97217 545.5594 284.51904Q546.075 285.0503 546.85626 285.0503Q547.4344 285.0503 547.84064 284.75342Q548.2625 284.44092 548.4969 283.78467ZM545.04376 282.08154L548.5125 282.08154Q548.45 281.28467 548.1219 280.89404Q547.60626 280.28467 546.8094 280.28467Q546.075 280.28467 545.575 280.76904Q545.09064 281.25342 545.04376 282.08154ZM546.16876 278.78467L546.95 277.14404L548.34064 277.14404L547.04376 278.78467L546.16876 278.78467ZM551.23126 285.78467L551.23126 279.56592L552.1844 279.56592L552.1844 280.50342Q552.54376 279.84717 552.84064 279.64404Q553.15314 279.4253 553.52814 279.4253Q554.0594 279.4253 554.60626 279.75342L554.2469 280.7378Q553.85626 280.50342 553.48126 280.50342Q553.1219 280.50342 552.84064 280.72217Q552.575 280.9253 552.46564 281.3003Q552.27814 281.8628 552.27814 282.51904L552.27814 285.78467L551.23126 285.78467ZM559.4969 283.78467L560.59064 283.90967Q560.34064 284.8628 559.6375 285.39404Q558.9344 285.9253 557.85626 285.9253Q556.4969 285.9253 555.6844 285.08154Q554.8875 284.2378 554.8875 282.72217Q554.8875 281.15967 555.7 280.3003Q556.5125 279.4253 557.79376 279.4253Q559.04376 279.4253 559.825 280.26904Q560.6219 281.1128 560.6219 282.65967Q560.6219 282.75342 560.6219 282.94092L555.98126 282.94092Q556.04376 283.97217 556.5594 284.51904Q557.075 285.0503 557.85626 285.0503Q558.4344 285.0503 558.84064 284.75342Q559.2625 284.44092 559.4969 283.78467ZM556.04376 282.08154L559.5125 282.08154Q559.45 281.28467 559.1219 280.89404Q558.60626 280.28467 557.8094 280.28467Q557.075 280.28467 556.575 280.76904Q556.09064 281.25342 556.04376 282.08154ZM562.2469 285.78467L562.2469 279.56592L563.1844 279.56592L563.1844 280.44092Q563.8719 279.4253 565.16876 279.4253Q565.73126 279.4253 566.2 279.62842Q566.6844 279.83154 566.91876 280.15967Q567.15314 280.4878 567.2469 280.9253Q567.29376 281.22217 567.29376 281.95654L567.29376 285.78467L566.2469 285.78467L566.2469 282.00342Q566.2469 281.34717 566.1219 281.03467Q565.9969 280.72217 565.6844 280.53467Q565.3719 280.33154 564.95 280.33154Q564.27814 280.33154 563.77814 280.76904Q563.29376 281.19092 563.29376 282.37842L563.29376 285.78467L562.2469 285.78467ZM573.3094 283.50342L574.34064 283.64404Q574.16876 284.70654 573.46564 285.31592Q572.7625 285.9253 571.7469 285.9253Q570.46564 285.9253 569.6844 285.09717Q568.91876 284.25342 568.91876 282.69092Q568.91876 281.69092 569.2469 280.94092Q569.59064 280.1753 570.2625 279.8003Q570.95 279.4253 571.7625 279.4253Q572.7625 279.4253 573.40314 279.94092Q574.0594 280.44092 574.2469 281.39404L573.21564 281.5503Q573.075 280.9253 572.7 280.6128Q572.325 280.28467 571.79376 280.28467Q570.9969 280.28467 570.4969 280.8628Q569.9969 281.4253 569.9969 282.65967Q569.9969 283.9253 570.48126 284.4878Q570.96564 285.0503 571.73126 285.0503Q572.35626 285.0503 572.7625 284.6753Q573.1844 284.3003 573.3094 283.50342ZM579.4969 283.78467L580.59064 283.90967Q580.34064 284.8628 579.6375 285.39404Q578.9344 285.9253 577.85626 285.9253Q576.4969 285.9253 575.6844 285.08154Q574.8875 284.2378 574.8875 282.72217Q574.8875 281.15967 575.7 280.3003Q576.5125 279.4253 577.79376 279.4253Q579.04376 279.4253 579.825 280.26904Q580.6219 281.1128 580.6219 282.65967Q580.6219 282.75342 580.6219 282.94092L575.98126 282.94092Q576.04376 283.97217 576.5594 284.51904Q577.075 285.0503 577.85626 285.0503Q578.4344 285.0503 578.84064 284.75342Q579.2625 284.44092 579.4969 283.78467ZM576.04376 282.08154L579.5125 282.08154Q579.45 281.28467 579.1219 280.89404Q578.60626 280.28467 577.8094 280.28467Q577.075 280.28467 576.575 280.76904Q576.09064 281.25342 576.04376 282.08154Z" fill-rule="nonzero"/><path fill="#9e9e9e" d="M547.0125 295.31592L547.0125 294.3003L552.575 294.3003L552.575 295.12842Q551.7625 296.00342 550.95 297.45654Q550.15314 298.89404 549.71564 300.4253Q549.3875 301.50342 549.3094 302.78467L548.21564 302.78467Q548.23126 301.76904 548.60626 300.33154Q548.9969 298.89404 549.7 297.56592Q550.41876 296.2378 551.23126 295.31592L547.0125 295.31592ZM553.95 300.51904L555.0125 300.37842Q555.1844 301.26904 555.6219 301.6753Q556.0594 302.06592 556.6844 302.06592Q557.4344 302.06592 557.95 301.5503Q558.46564 301.03467 558.46564 300.26904Q558.46564 299.5503 557.98126 299.08154Q557.5125 298.59717 556.77814 298.59717Q556.48126 298.59717 556.02814 298.72217L556.15314 297.78467Q556.2625 297.8003 556.325 297.8003Q556.9969 297.8003 557.52814 297.45654Q558.075 297.09717 558.075 296.3628Q558.075 295.78467 557.6844 295.40967Q557.29376 295.01904 556.66876 295.01904Q556.0594 295.01904 555.6375 295.40967Q555.23126 295.8003 555.1219 296.56592L554.0594 296.37842Q554.2469 295.33154 554.9344 294.75342Q555.6219 294.15967 556.6375 294.15967Q557.34064 294.15967 557.9344 294.47217Q558.52814 294.76904 558.84064 295.28467Q559.15314 295.8003 559.15314 296.39404Q559.15314 296.94092 558.85626 297.40967Q558.5594 297.8628 557.98126 298.12842Q558.73126 298.3003 559.15314 298.8628Q559.575 299.40967 559.575 300.25342Q559.575 301.37842 558.7469 302.15967Q557.9344 302.94092 556.6844 302.94092Q555.5594 302.94092 554.8094 302.26904Q554.0594 301.58154 553.95 300.51904ZM561.5125 302.78467L561.5125 301.58154L562.71564 301.58154L562.71564 302.78467Q562.71564 303.44092 562.48126 303.84717Q562.2469 304.26904 561.7469 304.4878L561.45 304.03467Q561.77814 303.89404 561.9344 303.59717Q562.09064 303.31592 562.1219 302.78467L561.5125 302.78467ZM563.95 298.5503Q563.95 297.01904 564.2625 296.09717Q564.575 295.15967 565.1844 294.65967Q565.8094 294.15967 566.7469 294.15967Q567.4344 294.15967 567.95 294.44092Q568.48126 294.72217 568.825 295.25342Q569.16876 295.76904 569.35626 296.51904Q569.54376 297.26904 569.54376 298.5503Q569.54376 300.06592 569.23126 300.9878Q568.9344 301.90967 568.3094 302.4253Q567.7 302.9253 566.7469 302.9253Q565.5125 302.9253 564.79376 302.03467Q563.95 300.97217 563.95 298.5503ZM565.02814 298.5503Q565.02814 300.65967 565.52814 301.3628Q566.02814 302.06592 566.7469 302.06592Q567.48126 302.06592 567.96564 301.3628Q568.46564 300.65967 568.46564 298.5503Q568.46564 296.4253 567.96564 295.7378Q567.48126 295.03467 566.73126 295.03467Q566.0125 295.03467 565.575 295.64404Q565.02814 296.4253 565.02814 298.5503ZM571.15314 296.25342Q571.15314 295.33154 571.60626 294.69092Q572.075 294.0503 572.95 294.0503Q573.7625 294.0503 574.29376 294.62842Q574.825 295.20654 574.825 296.31592Q574.825 297.40967 574.27814 298.00342Q573.7469 298.58154 572.96564 298.58154Q572.1844 298.58154 571.66876 298.00342Q571.15314 297.4253 571.15314 296.25342ZM572.98126 294.76904Q572.59064 294.76904 572.325 295.1128Q572.075 295.45654 572.075 296.3628Q572.075 297.19092 572.325 297.53467Q572.59064 297.8628 572.98126 297.8628Q573.3875 297.8628 573.6375 297.51904Q573.90314 297.1753 573.90314 296.28467Q573.90314 295.44092 573.6375 295.1128Q573.3719 294.76904 572.98126 294.76904ZM572.98126 303.09717L577.6844 294.0503L578.54376 294.0503L573.85626 303.09717L572.98126 303.09717ZM576.7 300.76904Q576.7 299.84717 577.15314 299.20654Q577.6219 298.56592 578.5125 298.56592Q579.325 298.56592 579.85626 299.14404Q580.3875 299.70654 580.3875 300.83154Q580.3875 301.9253 579.84064 302.51904Q579.3094 303.09717 578.5125 303.09717Q577.7469 303.09717 577.21564 302.51904Q576.7 301.94092 576.7 300.76904ZM578.54376 299.28467Q578.1375 299.28467 577.8719 299.62842Q577.6219 299.97217 577.6219 300.87842Q577.6219 301.69092 577.8875 302.03467Q578.15314 302.37842 578.54376 302.37842Q578.9344 302.37842 579.2 302.03467Q579.46564 301.69092 579.46564 300.78467Q579.46564 299.95654 579.2 299.62842Q578.9344 299.28467 578.54376 299.28467Z" fill-rule="nonzero"/><path stroke="#757575" stroke-width="1.0" stroke-linecap="butt" d="M581.45 290.28467L472.95 290.28467L419.0585 290.28467" fill-rule="nonzero"/><path fill="#9e9e9e" d="M421.0585 290.28467C421.0585 289.18008 420.1631 288.28467 419.0585 288.28467C417.95395 288.28467 417.0585 289.18008 417.0585 290.28467C417.0585 291.38922 417.95395 292.28467 419.0585 292.28467C420.1631 292.28467 421.0585 291.38922 421.0585 290.28467" fill-rule="nonzero"/></svg>