<svg version="1.1" viewBox="0.0 0.0 600.0 371.0" fill="none" stroke="none" stroke-linecap="square" stroke-miterlimit="10" width="600" height="371" xmlns:xlink="http://www.w3.org/1999/xlink" xmlns="http://www.w3.org/2000/svg"><path fill="#ffffff" d="M0 0L600.0 0L600.0 371.0L0 371.0L0 0Z" fill-rule="nonzero"/><path stroke="#333333" stroke-width="1.0" stroke-linecap="butt" d="M73.5 332.5L581.5 332.5" fill-rule="nonzero"/><path stroke="#cccccc" stroke-width="1.0" stroke-linecap="butt" d="M73.5 255.5L581.5 255.5" fill-rule="nonzero"/><path stroke="#cccccc" stroke-width="1.0" stroke-linecap="butt" d="M73.5 179.5L581.5 179.5" fill-rule="nonzero"/><path stroke="#cccccc" stroke-width="1.0" stroke-linecap="butt" d="M73.5 102.5L581.5 102.5" fill-rule="nonzero"/><path stroke="#cccccc" stroke-width="1.0" stroke-linecap="butt" d="M73.5 25.5L581.5 25.5" fill-rule="nonzero"/><clipPath id="id_0"><path d="M73.55 25.55L581.45 25.55L581.45 332.45L73.55 332.45L73.55 25.55Z" clip-rule="nonzero"/></clipPath><path stroke="#000000" stroke-width="2.0" stroke-linecap="butt" stroke-opacity="0.0" clip-path="url(#id_0)" d="M226.0 332.0L127.0 332.0L127.0 313.0C127.0 311.89542 127.89543 311.0 129.0 311.0L224.0 311.0C225.10457 311.0 226.0 311.89542 226.0 313.0Z" fill-rule="nonzero"/><path fill="#4285f4" clip-path="url(#id_0)" d="M226.0 332.0L127.0 332.0L127.0 313.0C127.0 311.89542 127.89543 311.0 129.0 311.0L224.0 311.0C225.10457 311.0 226.0 311.89542 226.0 313.0Z" fill-rule="nonzero"/><path stroke="#000000" stroke-width="2.0" stroke-linecap="butt" stroke-opacity="0.0" clip-path="url(#id_0)" d="M378.0 332.0L279.0 332.0L279.0 304.0C279.0 302.89542 279.89542 302.0 281.0 302.0L376.0 302.0C377.10458 302.0 378.0 302.89542 378.0 304.0Z" fill-rule="nonzero"/><path fill="#4285f4" clip-path="url(#id_0)" d="M378.0 332.0L279.0 332.0L279.0 304.0C279.0 302.89542 279.89542 302.0 281.0 302.0L376.0 302.0C377.10458 302.0 378.0 302.89542 378.0 304.0Z" fill-rule="nonzero"/><path stroke="#000000" stroke-width="2.0" stroke-linecap="butt" stroke-opacity="0.0" clip-path="url(#id_0)" d="M529.0 332.0L430.0 332.0L430.0 262.0C430.0 260.89542 430.89542 260.0 432.0 260.0L527.0 260.0C528.10455 260.0 529.0 260.89542 529.0 262.0Z" fill-rule="nonzero"/><path fill="#4285f4" clip-path="url(#id_0)" d="M529.0 332.0L430.0 332.0L430.0 262.0C430.0 260.89542 430.89542 260.0 432.0 260.0L527.0 260.0C528.10455 260.0 529.0 260.89542 529.0 262.0Z" fill-rule="nonzero"/><path fill="#000000" d="M33.05 332.21564Q33.05 330.6844 33.3625 329.7625Q33.675 328.825 34.284374 328.325Q34.909374 327.825 35.846874 327.825Q36.534374 327.825 37.05 328.10626Q37.58125 328.3875 37.925 328.91876Q38.26875 329.4344 38.45625 330.1844Q38.64375 330.9344 38.64375 332.21564Q38.64375 333.73126 38.33125 334.65314Q38.034374 335.575 37.409374 336.09064Q36.8 336.59064 35.846874 336.59064Q34.6125 336.59064 33.89375 335.7Q33.05 334.6375 33.05 332.21564ZM34.128124 332.21564Q34.128124 334.325 34.628124 335.02814Q35.128124 335.73126 35.846874 335.73126Q36.58125 335.73126 37.065624 335.02814Q37.565624 334.325 37.565624 332.21564Q37.565624 330.09064 37.065624 329.40314Q36.58125 328.7 35.83125 328.7Q35.1125 328.7 34.675 329.3094Q34.128124 330.09064 34.128124 332.21564ZM40.6125 336.45L40.6125 335.2469L41.815624 335.2469L41.815624 336.45Q41.815624 337.10626 41.58125 337.5125Q41.346874 337.9344 40.846874 338.15314L40.55 337.7Q40.878124 337.5594 41.034374 337.2625Q41.190624 336.98126 41.221874 336.45L40.6125 336.45ZM43.05 332.21564Q43.05 330.6844 43.3625 329.7625Q43.675 328.825 44.284374 328.325Q44.909374 327.825 45.846874 327.825Q46.534374 327.825 47.05 328.10626Q47.58125 328.3875 47.925 328.91876Q48.26875 329.4344 48.45625 330.1844Q48.64375 330.9344 48.64375 332.21564Q48.64375 333.73126 48.33125 334.65314Q48.034374 335.575 47.409374 336.09064Q46.8 336.59064 45.846874 336.59064Q44.6125 336.59064 43.89375 335.7Q43.05 334.6375 43.05 332.21564ZM44.128124 332.21564Q44.128124 334.325 44.628124 335.02814Q45.128124 335.73126 45.846874 335.73126Q46.58125 335.73126 47.065624 335.02814Q47.565624 334.325 47.565624 332.21564Q47.565624 330.09064 47.065624 329.40314Q46.58125 328.7 45.83125 328.7Q45.1125 328.7 44.675 329.3094Q44.128124 330.09064 44.128124 332.21564ZM50.05 332.21564Q50.05 330.6844 50.3625 329.7625Q50.675 328.825 51.284374 328.325Q51.909374 327.825 52.846874 327.825Q53.534374 327.825 54.05 328.10626Q54.58125 328.3875 54.925 328.91876Q55.26875 329.4344 55.45625 330.1844Q55.64375 330.9344 55.64375 332.21564Q55.64375 333.73126 55.33125 334.65314Q55.034374 335.575 54.409374 336.09064Q53.8 336.59064 52.846874 336.59064Q51.6125 336.59064 50.89375 335.7Q50.05 334.6375 50.05 332.21564ZM51.128124 332.21564Q51.128124 334.325 51.628124 335.02814Q52.128124 335.73126 52.846874 335.73126Q53.58125 335.73126 54.065624 335.02814Q54.565624 334.325 54.565624 332.21564Q54.565624 330.09064 54.065624 329.40314Q53.58125 328.7 52.83125 328.7Q52.1125 328.7 51.675 329.3094Q51.128124 330.09064 51.128124 332.21564ZM57.253124 329.91876Q57.253124 328.9969 57.70625 328.35626Q58.175 327.71564 59.05 327.71564Q59.8625 327.71564 60.39375 328.29376Q60.925 328.8719 60.925 329.98126Q60.925 331.075 60.378124 331.66876Q59.846874 332.2469 59.065624 332.2469Q58.284374 332.2469 57.76875 331.66876Q57.253124 331.09064 57.253124 329.91876ZM59.08125 328.4344Q58.690624 328.4344 58.425 328.77814Q58.175 329.1219 58.175 330.02814Q58.175 330.85626 58.425 331.2Q58.690624 331.52814 59.08125 331.52814Q59.4875 331.52814 59.7375 331.1844Q60.003124 330.84064 60.003124 329.95Q60.003124 329.10626 59.7375 328.77814Q59.471874 328.4344 59.08125 328.4344ZM59.08125 336.7625L63.784374 327.71564L64.64375 327.71564L59.95625 336.7625L59.08125 336.7625ZM62.8 334.4344Q62.8 333.5125 63.253124 332.8719Q63.721874 332.23126 64.6125 332.23126Q65.425 332.23126 65.95625 332.8094Q66.4875 333.3719 66.4875 334.4969Q66.4875 335.59064 65.94063 336.1844Q65.40938 336.7625 64.6125 336.7625Q63.846874 336.7625 63.315624 336.1844Q62.8 335.60626 62.8 334.4344ZM64.64375 332.95Q64.2375 332.95 63.971874 333.29376Q63.721874 333.6375 63.721874 334.54376Q63.721874 335.35626 63.9875 335.7Q64.25313 336.04376 64.64375 336.04376Q65.03438 336.04376 65.3 335.7Q65.56563 335.35626 65.56563 334.45Q65.56563 333.6219 65.3 333.29376Q65.03438 332.95 64.64375 332.95Z" fill-rule="nonzero"/><path fill="#000000" d="M31.596874 258.70938L31.596874 259.725L25.909374 259.725Q25.909374 259.35 26.034374 258.99063Q26.253124 258.4125 26.721874 257.85Q27.20625 257.2875 28.1125 256.55313Q29.51875 255.39688 30.003124 254.725Q30.503124 254.05313 30.503124 253.45938Q30.503124 252.83438 30.05 252.4125Q29.596874 251.975 28.878124 251.975Q28.1125 251.975 27.659374 252.42813Q27.20625 252.88126 27.190624 253.69376L26.1125 253.58438Q26.221874 252.36563 26.940624 251.74063Q27.675 251.1 28.909374 251.1Q30.14375 251.1 30.8625 251.7875Q31.58125 252.475 31.58125 253.49063Q31.58125 254.00626 31.3625 254.50626Q31.159374 254.99063 30.659374 255.55313Q30.175 256.1 29.05 257.05313Q28.096874 257.85 27.815624 258.14688Q27.55 258.42813 27.378124 258.70938L31.596874 258.70938ZM33.05 257.475L34.159374 257.38126Q34.284374 258.19376 34.721874 258.6Q35.175 259.00626 35.815624 259.00626Q36.565624 259.00626 37.096874 258.42813Q37.628124 257.85 37.628124 256.9125Q37.628124 256.00626 37.1125 255.49063Q36.6125 254.95938 35.784374 254.95938Q35.284374 254.95938 34.8625 255.19376Q34.45625 255.42813 34.221874 255.7875L33.2375 255.6625L34.065624 251.25626L38.346874 251.25626L38.346874 252.25626L34.909374 252.25626L34.45625 254.56876Q35.221874 254.02188 36.065624 254.02188Q37.190624 254.02188 37.95625 254.80313Q38.7375 255.58438 38.7375 256.81876Q38.7375 257.975 38.065624 258.83438Q37.2375 259.86563 35.815624 259.86563Q34.64375 259.86563 33.89375 259.20938Q33.159374 258.55313 33.05 257.475ZM40.6125 259.725L40.6125 258.52188L41.815624 258.52188L41.815624 259.725Q41.815624 260.38126 41.58125 260.7875Q41.346874 261.20938 40.846874 261.42813L40.55 260.975Q40.878124 260.83438 41.034374 260.5375Q41.190624 260.25626 41.221874 259.725L40.6125 259.725ZM43.05 255.49063Q43.05 253.95938 43.3625 253.0375Q43.675 252.1 44.284374 251.6Q44.909374 251.1 45.846874 251.1Q46.534374 251.1 47.05 251.38126Q47.58125 251.6625 47.925 252.19376Q48.26875 252.70938 48.45625 253.45938Q48.64375 254.20938 48.64375 255.49063Q48.64375 257.00626 48.33125 257.92813Q48.034374 258.85 47.409374 259.36563Q46.8 259.86563 45.846874 259.86563Q44.6125 259.86563 43.89375 258.975Q43.05 257.9125 43.05 255.49063ZM44.128124 255.49063Q44.128124 257.6 44.628124 258.30313Q45.128124 259.00626 45.846874 259.00626Q46.58125 259.00626 47.065624 258.30313Q47.565624 257.6 47.565624 255.49063Q47.565624 253.36563 47.065624 252.67813Q46.58125 251.975 45.83125 251.975Q45.1125 251.975 44.675 252.58438Q44.128124 253.36563 44.128124 255.49063ZM50.05 255.49063Q50.05 253.95938 50.3625 253.0375Q50.675 252.1 51.284374 251.6Q51.909374 251.1 52.846874 251.1Q53.534374 251.1 54.05 251.38126Q54.58125 251.6625 54.925 252.19376Q55.26875 252.70938 55.45625 253.45938Q55.64375 254.20938 55.64375 255.49063Q55.64375 257.00626 55.33125 257.92813Q55.034374 258.85 54.409374 259.36563Q53.8 259.86563 52.846874 259.86563Q51.6125 259.86563 50.89375 258.975Q50.05 257.9125 50.05 255.49063ZM51.128124 255.49063Q51.128124 257.6 51.628124 258.30313Q52.128124 259.00626 52.846874 259.00626Q53.58125 259.00626 54.065624 258.30313Q54.565624 257.6 54.565624 255.49063Q54.565624 253.36563 54.065624 252.67813Q53.58125 251.975 52.83125 251.975Q52.1125 251.975 51.675 252.58438Q51.128124 253.36563 51.128124 255.49063ZM57.253124 253.19376Q57.253124 252.27188 57.70625 251.63126Q58.175 250.99063 59.05 250.99063Q59.8625 250.99063 60.39375 251.56876Q60.925 252.14688 60.925 253.25626Q60.925 254.35 60.378124 254.94376Q59.846874 255.52188 59.065624 255.52188Q58.284374 255.52188 57.76875 254.94376Q57.253124 254.36563 57.253124 253.19376ZM59.08125 251.70938Q58.690624 251.70938 58.425 252.05313Q58.175 252.39688 58.175 253.30313Q58.175 254.13126 58.425 254.475Q58.690624 254.80313 59.08125 254.80313Q59.4875 254.80313 59.7375 254.45938Q60.003124 254.11563 60.003124 253.225Q60.003124 252.38126 59.7375 252.05313Q59.471874 251.70938 59.08125 251.70938ZM59.08125 260.0375L63.784374 250.99063L64.64375 250.99063L59.95625 260.0375L59.08125 260.0375ZM62.8 257.70938Q62.8 256.7875 63.253124 256.14688Q63.721874 255.50626 64.6125 255.50626Q65.425 255.50626 65.95625 256.08438Q66.4875 256.64688 66.4875 257.77188Q66.4875 258.86563 65.94063 259.45938Q65.40938 260.0375 64.6125 260.0375Q63.846874 260.0375 63.315624 259.45938Q62.8 258.88126 62.8 257.70938ZM64.64375 256.225Q64.2375 256.225 63.971874 256.56876Q63.721874 256.9125 63.721874 257.81876Q63.721874 258.63126 63.9875 258.975Q64.25313 259.31876 64.64375 259.31876Q65.03438 259.31876 65.3 258.975Q65.56563 258.63126 65.56563 257.725Q65.56563 256.89688 65.3 256.56876Q65.03438 256.225 64.64375 256.225Z" fill-rule="nonzero"/><path fill="#000000" d="M26.05 180.75L27.159374 180.65625Q27.284374 181.46875 27.721874 181.875Q28.175 182.28125 28.815624 182.28125Q29.565624 182.28125 30.096874 181.70312Q30.628124 181.125 30.628124 180.1875Q30.628124 179.28125 30.1125 178.76562Q29.6125 178.23438 28.784374 178.23438Q28.284374 178.23438 27.8625 178.46875Q27.45625 178.70312 27.221874 179.0625L26.2375 178.9375L27.065624 174.53125L31.346874 174.53125L31.346874 175.53125L27.909374 175.53125L27.45625 177.84375Q28.221874 177.29688 29.065624 177.29688Q30.190624 177.29688 30.95625 178.07812Q31.7375 178.85938 31.7375 180.09375Q31.7375 181.25 31.065624 182.10938Q30.2375 183.14062 28.815624 183.14062Q27.64375 183.14062 26.89375 182.48438Q26.159374 181.82812 26.05 180.75ZM33.05 178.76562Q33.05 177.23438 33.3625 176.3125Q33.675 175.375 34.284374 174.875Q34.909374 174.375 35.846874 174.375Q36.534374 174.375 37.05 174.65625Q37.58125 174.9375 37.925 175.46875Q38.26875 175.98438 38.45625 176.73438Q38.64375 177.48438 38.64375 178.76562Q38.64375 180.28125 38.33125 181.20312Q38.034374 182.125 37.409374 182.64062Q36.8 183.14062 35.846874 183.14062Q34.6125 183.14062 33.89375 182.25Q33.05 181.1875 33.05 178.76562ZM34.128124 178.76562Q34.128124 180.875 34.628124 181.57812Q35.128124 182.28125 35.846874 182.28125Q36.58125 182.28125 37.065624 181.57812Q37.565624 180.875 37.565624 178.76562Q37.565624 176.64062 37.065624 175.95312Q36.58125 175.25 35.83125 175.25Q35.1125 175.25 34.675 175.85938Q34.128124 176.64062 34.128124 178.76562ZM40.6125 183.0L40.6125 181.79688L41.815624 181.79688L41.815624 183.0Q41.815624 183.65625 41.58125 184.0625Q41.346874 184.48438 40.846874 184.70312L40.55 184.25Q40.878124 184.10938 41.034374 183.8125Q41.190624 183.53125 41.221874 183.0L40.6125 183.0ZM43.05 178.76562Q43.05 177.23438 43.3625 176.3125Q43.675 175.375 44.284374 174.875Q44.909374 174.375 45.846874 174.375Q46.534374 174.375 47.05 174.65625Q47.58125 174.9375 47.925 175.46875Q48.26875 175.98438 48.45625 176.73438Q48.64375 177.48438 48.64375 178.76562Q48.64375 180.28125 48.33125 181.20312Q48.034374 182.125 47.409374 182.64062Q46.8 183.14062 45.846874 183.14062Q44.6125 183.14062 43.89375 182.25Q43.05 181.1875 43.05 178.76562ZM44.128124 178.76562Q44.128124 180.875 44.628124 181.57812Q45.128124 182.28125 45.846874 182.28125Q46.58125 182.28125 47.065624 181.57812Q47.565624 180.875 47.565624 178.76562Q47.565624 176.64062 47.065624 175.95312Q46.58125 175.25 45.83125 175.25Q45.1125 175.25 44.675 175.85938Q44.128124 176.64062 44.128124 178.76562ZM50.05 178.76562Q50.05 177.23438 50.3625 176.3125Q50.675 175.375 51.284374 174.875Q51.909374 174.375 52.846874 174.375Q53.534374 174.375 54.05 174.65625Q54.58125 174.9375 54.925 175.46875Q55.26875 175.98438 55.45625 176.73438Q55.64375 177.48438 55.64375 178.76562Q55.64375 180.28125 55.33125 181.20312Q55.034374 182.125 54.409374 182.64062Q53.8 183.14062 52.846874 183.14062Q51.6125 183.14062 50.89375 182.25Q50.05 181.1875 50.05 178.76562ZM51.128124 178.76562Q51.128124 180.875 51.628124 181.57812Q52.128124 182.28125 52.846874 182.28125Q53.58125 182.28125 54.065624 181.57812Q54.565624 180.875 54.565624 178.76562Q54.565624 176.64062 54.065624 175.95312Q53.58125 175.25 52.83125 175.25Q52.1125 175.25 51.675 175.85938Q51.128124 176.64062 51.128124 178.76562ZM57.253124 176.46875Q57.253124 175.54688 57.70625 174.90625Q58.175 174.26562 59.05 174.26562Q59.8625 174.26562 60.39375 174.84375Q60.925 175.42188 60.925 176.53125Q60.925 177.625 60.378124 178.21875Q59.846874 178.79688 59.065624 178.79688Q58.284374 178.79688 57.76875 178.21875Q57.253124 177.64062 57.253124 176.46875ZM59.08125 174.98438Q58.690624 174.98438 58.425 175.32812Q58.175 175.67188 58.175 176.57812Q58.175 177.40625 58.425 177.75Q58.690624 178.07812 59.08125 178.07812Q59.4875 178.07812 59.7375 177.73438Q60.003124 177.39062 60.003124 176.5Q60.003124 175.65625 59.7375 175.32812Q59.471874 174.98438 59.08125 174.98438ZM59.08125 183.3125L63.784374 174.26562L64.64375 174.26562L59.95625 183.3125L59.08125 183.3125ZM62.8 180.98438Q62.8 180.0625 63.253124 179.42188Q63.721874 178.78125 64.6125 178.78125Q65.425 178.78125 65.95625 179.35938Q66.4875 179.92188 66.4875 181.04688Q66.4875 182.14062 65.94063 182.73438Q65.40938 183.3125 64.6125 183.3125Q63.846874 183.3125 63.315624 182.73438Q62.8 182.15625 62.8 180.98438ZM64.64375 179.5Q64.2375 179.5 63.971874 179.84375Q63.721874 180.1875 63.721874 181.09375Q63.721874 181.90625 63.9875 182.25Q64.25313 182.59375 64.64375 182.59375Q65.03438 182.59375 65.3 182.25Q65.56563 181.90625 65.56563 181.0Q65.56563 180.17188 65.3 179.84375Q65.03438 179.5 64.64375 179.5Z" fill-rule="nonzero"/><path fill="#000000" d="M26.1125 98.80625L26.1125 97.79063L31.675 97.79063L31.675 98.61875Q30.8625 99.49375 30.05 100.94688Q29.253124 102.38438 28.815624 103.91563Q28.4875 104.99375 28.409374 106.275L27.315624 106.275Q27.33125 105.25938 27.70625 103.82188Q28.096874 102.38438 28.8 101.05625Q29.51875 99.72813 30.33125 98.80625L26.1125 98.80625ZM33.05 104.025L34.159374 103.93125Q34.284374 104.74375 34.721874 105.15Q35.175 105.55625 35.815624 105.55625Q36.565624 105.55625 37.096874 104.97813Q37.628124 104.4 37.628124 103.4625Q37.628124 102.55625 37.1125 102.04063Q36.6125 101.50938 35.784374 101.50938Q35.284374 101.50938 34.8625 101.74375Q34.45625 101.97813 34.221874 102.3375L33.2375 102.2125L34.065624 97.80625L38.346874 97.80625L38.346874 98.80625L34.909374 98.80625L34.45625 101.11875Q35.221874 100.57188 36.065624 100.57188Q37.190624 100.57188 37.95625 101.35313Q38.7375 102.13438 38.7375 103.36875Q38.7375 104.525 38.065624 105.38438Q37.2375 106.41563 35.815624 106.41563Q34.64375 106.41563 33.89375 105.75938Q33.159374 105.10313 33.05 104.025ZM40.6125 106.275L40.6125 105.07188L41.815624 105.07188L41.815624 106.275Q41.815624 106.93125 41.58125 107.3375Q41.346874 107.75938 40.846874 107.97813L40.55 107.525Q40.878124 107.38438 41.034374 107.0875Q41.190624 106.80625 41.221874 106.275L40.6125 106.275ZM43.05 102.04063Q43.05 100.50938 43.3625 99.5875Q43.675 98.65 44.284374 98.15Q44.909374 97.65 45.846874 97.65Q46.534374 97.65 47.05 97.93125Q47.58125 98.2125 47.925 98.74375Q48.26875 99.25938 48.45625 100.00938Q48.64375 100.75938 48.64375 102.04063Q48.64375 103.55625 48.33125 104.47813Q48.034374 105.4 47.409374 105.91563Q46.8 106.41563 45.846874 106.41563Q44.6125 106.41563 43.89375 105.525Q43.05 104.4625 43.05 102.04063ZM44.128124 102.04063Q44.128124 104.15 44.628124 104.85313Q45.128124 105.55625 45.846874 105.55625Q46.58125 105.55625 47.065624 104.85313Q47.565624 104.15 47.565624 102.04063Q47.565624 99.91563 47.065624 99.22813Q46.58125 98.525 45.83125 98.525Q45.1125 98.525 44.675 99.13438Q44.128124 99.91563 44.128124 102.04063ZM50.05 102.04063Q50.05 100.50938 50.3625 99.5875Q50.675 98.65 51.284374 98.15Q51.909374 97.65 52.846874 97.65Q53.534374 97.65 54.05 97.93125Q54.58125 98.2125 54.925 98.74375Q55.26875 99.25938 55.45625 100.00938Q55.64375 100.75938 55.64375 102.04063Q55.64375 103.55625 55.33125 104.47813Q55.034374 105.4 54.409374 105.91563Q53.8 106.41563 52.846874 106.41563Q51.6125 106.41563 50.89375 105.525Q50.05 104.4625 50.05 102.04063ZM51.128124 102.04063Q51.128124 104.15 51.628124 104.85313Q52.128124 105.55625 52.846874 105.55625Q53.58125 105.55625 54.065624 104.85313Q54.565624 104.15 54.565624 102.04063Q54.565624 99.91563 54.065624 99.22813Q53.58125 98.525 52.83125 98.525Q52.1125 98.525 51.675 99.13438Q51.128124 99.91563 51.128124 102.04063ZM57.253124 99.74375Q57.253124 98.82188 57.70625 98.18125Q58.175 97.54063 59.05 97.54063Q59.8625 97.54063 60.39375 98.11875Q60.925 98.69688 60.925 99.80625Q60.925 100.9 60.378124 101.49375Q59.846874 102.07188 59.065624 102.07188Q58.284374 102.07188 57.76875 101.49375Q57.253124 100.91563 57.253124 99.74375ZM59.08125 98.25938Q58.690624 98.25938 58.425 98.60313Q58.175 98.94688 58.175 99.85313Q58.175 100.68125 58.425 101.025Q58.690624 101.35313 59.08125 101.35313Q59.4875 101.35313 59.7375 101.00938Q60.003124 100.66563 60.003124 99.775Q60.003124 98.93125 59.7375 98.60313Q59.471874 98.25938 59.08125 98.25938ZM59.08125 106.5875L63.784374 97.54063L64.64375 97.54063L59.95625 106.5875L59.08125 106.5875ZM62.8 104.25938Q62.8 103.3375 63.253124 102.69688Q63.721874 102.05625 64.6125 102.05625Q65.425 102.05625 65.95625 102.63438Q66.4875 103.19688 66.4875 104.32188Q66.4875 105.41563 65.94063 106.00938Q65.40938 106.5875 64.6125 106.5875Q63.846874 106.5875 63.315624 106.00938Q62.8 105.43125 62.8 104.25938ZM64.64375 102.775Q64.2375 102.775 63.971874 103.11875Q63.721874 103.4625 63.721874 104.36875Q63.721874 105.18125 63.9875 105.525Q64.25313 105.86875 64.64375 105.86875Q65.03438 105.86875 65.3 105.525Q65.56563 105.18125 65.56563 104.275Q65.56563 103.44688 65.3 103.11875Q65.03438 102.775 64.64375 102.775Z" fill-rule="nonzero"/><path fill="#000000" d="M23.01875 29.55L21.971874 29.55L21.971874 22.83125Q21.58125 23.190624 20.95625 23.565624Q20.346874 23.925 19.8625 24.096874L19.8625 23.08125Q20.7375 22.659374 21.39375 22.08125Q22.065624 21.4875 22.346874 20.925L23.01875 20.925L23.01875 29.55ZM26.05 25.315624Q26.05 23.784374 26.3625 22.8625Q26.675 21.925 27.284374 21.425Q27.909374 20.925 28.846874 20.925Q29.534374 20.925 30.05 21.20625Q30.58125 21.4875 30.925 22.01875Q31.26875 22.534374 31.45625 23.284374Q31.64375 24.034374 31.64375 25.315624Q31.64375 26.83125 31.33125 27.753124Q31.034374 28.675 30.409374 29.190624Q29.8 29.690624 28.846874 29.690624Q27.6125 29.690624 26.89375 28.8Q26.05 27.7375 26.05 25.315624ZM27.128124 25.315624Q27.128124 27.425 27.628124 28.128124Q28.128124 28.83125 28.846874 28.83125Q29.58125 28.83125 30.065624 28.128124Q30.565624 27.425 30.565624 25.315624Q30.565624 23.190624 30.065624 22.503124Q29.58125 21.8 28.83125 21.8Q28.1125 21.8 27.675 22.409374Q27.128124 23.190624 27.128124 25.315624ZM33.05 25.315624Q33.05 23.784374 33.3625 22.8625Q33.675 21.925 34.284374 21.425Q34.909374 20.925 35.846874 20.925Q36.534374 20.925 37.05 21.20625Q37.58125 21.4875 37.925 22.01875Q38.26875 22.534374 38.45625 23.284374Q38.64375 24.034374 38.64375 25.315624Q38.64375 26.83125 38.33125 27.753124Q38.034374 28.675 37.409374 29.190624Q36.8 29.690624 35.846874 29.690624Q34.6125 29.690624 33.89375 28.8Q33.05 27.7375 33.05 25.315624ZM34.128124 25.315624Q34.128124 27.425 34.628124 28.128124Q35.128124 28.83125 35.846874 28.83125Q36.58125 28.83125 37.065624 28.128124Q37.565624 27.425 37.565624 25.315624Q37.565624 23.190624 37.065624 22.503124Q36.58125 21.8 35.83125 21.8Q35.1125 21.8 34.675 22.409374Q34.128124 23.190624 34.128124 25.315624ZM40.6125 29.55L40.6125 28.346874L41.815624 28.346874L41.815624 29.55Q41.815624 30.20625 41.58125 30.6125Q41.346874 31.034374 40.846874 31.253124L40.55 30.8Q40.878124 30.659374 41.034374 30.3625Q41.190624 30.08125 41.221874 29.55L40.6125 29.55ZM43.05 25.315624Q43.05 23.784374 43.3625 22.8625Q43.675 21.925 44.284374 21.425Q44.909374 20.925 45.846874 20.925Q46.534374 20.925 47.05 21.20625Q47.58125 21.4875 47.925 22.01875Q48.26875 22.534374 48.45625 23.284374Q48.64375 24.034374 48.64375 25.315624Q48.64375 26.83125 48.33125 27.753124Q48.034374 28.675 47.409374 29.190624Q46.8 29.690624 45.846874 29.690624Q44.6125 29.690624 43.89375 28.8Q43.05 27.7375 43.05 25.315624ZM44.128124 25.315624Q44.128124 27.425 44.628124 28.128124Q45.128124 28.83125 45.846874 28.83125Q46.58125 28.83125 47.065624 28.128124Q47.565624 27.425 47.565624 25.315624Q47.565624 23.190624 47.065624 22.503124Q46.58125 21.8 45.83125 21.8Q45.1125 21.8 44.675 22.409374Q44.128124 23.190624 44.128124 25.315624ZM50.05 25.315624Q50.05 23.784374 50.3625 22.8625Q50.675 21.925 51.284374 21.425Q51.909374 20.925 52.846874 20.925Q53.534374 20.925 54.05 21.20625Q54.58125 21.4875 54.925 22.01875Q55.26875 22.534374 55.45625 23.284374Q55.64375 24.034374 55.64375 25.315624Q55.64375 26.83125 55.33125 27.753124Q55.034374 28.675 54.409374 29.190624Q53.8 29.690624 52.846874 29.690624Q51.6125 29.690624 50.89375 28.8Q50.05 27.7375 50.05 25.315624ZM51.128124 25.315624Q51.128124 27.425 51.628124 28.128124Q52.128124 28.83125 52.846874 28.83125Q53.58125 28.83125 54.065624 28.128124Q54.565624 27.425 54.565624 25.315624Q54.565624 23.190624 54.065624 22.503124Q53.58125 21.8 52.83125 21.8Q52.1125 21.8 51.675 22.409374Q51.128124 23.190624 51.128124 25.315624ZM57.253124 23.01875Q57.253124 22.096874 57.70625 21.45625Q58.175 20.815624 59.05 20.815624Q59.8625 20.815624 60.39375 21.39375Q60.925 21.971874 60.925 23.08125Q60.925 24.175 60.378124 24.76875Q59.846874 25.346874 59.065624 25.346874Q58.284374 25.346874 57.76875 24.76875Q57.253124 24.190624 57.253124 23.01875ZM59.08125 21.534374Q58.690624 21.534374 58.425 21.878124Q58.175 22.221874 58.175 23.128124Q58.175 23.95625 58.425 24.3Q58.690624 24.628124 59.08125 24.628124Q59.4875 24.628124 59.7375 24.284374Q60.003124 23.940624 60.003124 23.05Q60.003124 22.20625 59.7375 21.878124Q59.471874 21.534374 59.08125 21.534374ZM59.08125 29.8625L63.784374 20.815624L64.64375 20.815624L59.95625 29.8625L59.08125 29.8625ZM62.8 27.534374Q62.8 26.6125 63.253124 25.971874Q63.721874 25.33125 64.6125 25.33125Q65.425 25.33125 65.95625 25.909374Q66.4875 26.471874 66.4875 27.596874Q66.4875 28.690624 65.94063 29.284374Q65.40938 29.8625 64.6125 29.8625Q63.846874 29.8625 63.315624 29.284374Q62.8 28.70625 62.8 27.534374ZM64.64375 26.05Q64.2375 26.05 63.971874 26.39375Q63.721874 26.7375 63.721874 27.64375Q63.721874 28.45625 63.9875 28.8Q64.25313 29.14375 64.64375 29.14375Q65.03438 29.14375 65.3 28.8Q65.56563 28.45625 65.56563 27.55Q65.56563 26.721874 65.3 26.39375Q65.03438 26.05 64.64375 26.05Z" fill-rule="nonzero"/><path fill="#000000" d="M150.95056 346.4344L152.07556 346.73126Q151.71619 348.1219 150.79431 348.85626Q149.87244 349.59064 148.52869 349.59064Q147.13806 349.59064 146.26306 349.02814Q145.38806 348.46564 144.93494 347.40314Q144.48181 346.325 144.48181 345.09064Q144.48181 343.7469 144.99744 342.7469Q145.51306 341.7469 146.45056 341.23126Q147.40369 340.71564 148.54431 340.71564Q149.82556 340.71564 150.70056 341.3719Q151.59119 342.02814 151.93494 343.21564L150.80994 343.48126Q150.51306 342.54376 149.93494 342.1219Q149.37244 341.6844 148.51306 341.6844Q147.52869 341.6844 146.85681 342.16876Q146.20056 342.6375 145.91931 343.4344Q145.65369 344.23126 145.65369 345.09064Q145.65369 346.1844 145.96619 346.9969Q146.29431 347.8094 146.96619 348.21564Q147.63806 348.6219 148.43494 348.6219Q149.38806 348.6219 150.04431 348.075Q150.71619 347.52814 150.95056 346.4344ZM153.29431 346.34064Q153.29431 344.60626 154.24744 343.77814Q155.04431 343.09064 156.20056 343.09064Q157.48181 343.09064 158.29431 343.9344Q159.12244 344.7625 159.12244 346.2469Q159.12244 347.45 158.76306 348.1375Q158.40369 348.825 157.70056 349.21564Q157.01306 349.59064 156.20056 349.59064Q154.90369 349.59064 154.09119 348.7625Q153.29431 347.91876 153.29431 346.34064ZM154.37244 346.34064Q154.37244 347.52814 154.88806 348.1219Q155.41931 348.71564 156.20056 348.71564Q156.99744 348.71564 157.51306 348.1219Q158.02869 347.52814 158.02869 346.3094Q158.02869 345.15314 157.49744 344.5594Q156.98181 343.96564 156.20056 343.96564Q155.41931 343.96564 154.88806 344.5594Q154.37244 345.1375 154.37244 346.34064ZM160.68494 349.45L160.68494 343.23126L161.62244 343.23126L161.62244 344.10626Q162.30994 343.09064 163.60681 343.09064Q164.16931 343.09064 164.63806 343.29376Q165.12244 343.4969 165.35681 343.825Q165.59119 344.15314 165.68494 344.59064Q165.73181 344.8875 165.73181 345.6219L165.73181 349.45L164.68494 349.45L164.68494 345.66876Q164.68494 345.0125 164.55994 344.7Q164.43494 344.3875 164.12244 344.2Q163.80994 343.9969 163.38806 343.9969Q162.71619 343.9969 162.21619 344.4344Q161.73181 344.85626 161.73181 346.04376L161.73181 349.45L160.68494 349.45ZM167.93494 349.45L167.93494 344.04376L166.99744 344.04376L166.99744 343.23126L167.93494 343.23126L167.93494 342.5594Q167.93494 341.9344 168.04431 341.6375Q168.20056 341.21564 168.57556 340.96564Q168.96619 340.71564 169.65369 340.71564Q170.10681 340.71564 170.63806 340.825L170.48181 341.73126Q170.15369 341.6844 169.85681 341.6844Q169.37244 341.6844 169.16931 341.8875Q168.98181 342.09064 168.98181 342.65314L168.98181 343.23126L170.20056 343.23126L170.20056 344.04376L168.98181 344.04376L168.98181 349.45L167.93494 349.45ZM174.93494 347.45L176.02869 347.575Q175.77869 348.52814 175.07556 349.0594Q174.37244 349.59064 173.29431 349.59064Q171.93494 349.59064 171.12244 348.7469Q170.32556 347.90314 170.32556 346.3875Q170.32556 344.825 171.13806 343.96564Q171.95056 343.09064 173.23181 343.09064Q174.48181 343.09064 175.26306 343.9344Q176.05994 344.77814 176.05994 346.325Q176.05994 346.41876 176.05994 346.60626L171.41931 346.60626Q171.48181 347.6375 171.99744 348.1844Q172.51306 348.71564 173.29431 348.71564Q173.87244 348.71564 174.27869 348.41876Q174.70056 348.10626 174.93494 347.45ZM171.48181 345.7469L174.95056 345.7469Q174.88806 344.95 174.55994 344.5594Q174.04431 343.95 173.24744 343.95Q172.51306 343.95 172.01306 344.4344Q171.52869 344.91876 171.48181 345.7469ZM172.60681 342.45L173.38806 340.8094L174.77869 340.8094L173.48181 342.45L172.60681 342.45ZM177.66931 349.45L177.66931 343.23126L178.62244 343.23126L178.62244 344.16876Q178.98181 343.5125 179.27869 343.3094Q179.59119 343.09064 179.96619 343.09064Q180.49744 343.09064 181.04431 343.41876L180.68494 344.40314Q180.29431 344.16876 179.91931 344.16876Q179.55994 344.16876 179.27869 344.3875Q179.01306 344.59064 178.90369 344.96564Q178.71619 345.52814 178.71619 346.1844L178.71619 349.45L177.66931 349.45ZM185.93494 347.45L187.02869 347.575Q186.77869 348.52814 186.07556 349.0594Q185.37244 349.59064 184.29431 349.59064Q182.93494 349.59064 182.12244 348.7469Q181.32556 347.90314 181.32556 346.3875Q181.32556 344.825 182.13806 343.96564Q182.95056 343.09064 184.23181 343.09064Q185.48181 343.09064 186.26306 343.9344Q187.05994 344.77814 187.05994 346.325Q187.05994 346.41876 187.05994 346.60626L182.41931 346.60626Q182.48181 347.6375 182.99744 348.1844Q183.51306 348.71564 184.29431 348.71564Q184.87244 348.71564 185.27869 348.41876Q185.70056 348.10626 185.93494 347.45ZM182.48181 345.7469L185.95056 345.7469Q185.88806 344.95 185.55994 344.5594Q185.04431 343.95 184.24744 343.95Q183.51306 343.95 183.01306 344.4344Q182.52869 344.91876 182.48181 345.7469ZM188.68494 349.45L188.68494 343.23126L189.62244 343.23126L189.62244 344.10626Q190.30994 343.09064 191.60681 343.09064Q192.16931 343.09064 192.63806 343.29376Q193.12244 343.4969 193.35681 343.825Q193.59119 344.15314 193.68494 344.59064Q193.73181 344.8875 193.73181 345.6219L193.73181 349.45L192.68494 349.45L192.68494 345.66876Q192.68494 345.0125 192.55994 344.7Q192.43494 344.3875 192.12244 344.2Q191.80994 343.9969 191.38806 343.9969Q190.71619 343.9969 190.21619 344.4344Q189.73181 344.85626 189.73181 346.04376L189.73181 349.45L188.68494 349.45ZM199.74744 347.16876L200.77869 347.3094Q200.60681 348.3719 199.90369 348.98126Q199.20056 349.59064 198.18494 349.59064Q196.90369 349.59064 196.12244 348.7625Q195.35681 347.91876 195.35681 346.35626Q195.35681 345.35626 195.68494 344.60626Q196.02869 343.84064 196.70056 343.46564Q197.38806 343.09064 198.20056 343.09064Q199.20056 343.09064 199.84119 343.60626Q200.49744 344.10626 200.68494 345.0594L199.65369 345.21564Q199.51306 344.59064 199.13806 344.27814Q198.76306 343.95 198.23181 343.95Q197.43494 343.95 196.93494 344.52814Q196.43494 345.09064 196.43494 346.325Q196.43494 347.59064 196.91931 348.15314Q197.40369 348.71564 198.16931 348.71564Q198.79431 348.71564 199.20056 348.34064Q199.62244 347.96564 199.74744 347.16876ZM205.93494 347.45L207.02869 347.575Q206.77869 348.52814 206.07556 349.0594Q205.37244 349.59064 204.29431 349.59064Q202.93494 349.59064 202.12244 348.7469Q201.32556 347.90314 201.32556 346.3875Q201.32556 344.825 202.13806 343.96564Q202.95056 343.09064 204.23181 343.09064Q205.48181 343.09064 206.26306 343.9344Q207.05994 344.77814 207.05994 346.325Q207.05994 346.41876 207.05994 346.60626L202.41931 346.60626Q202.48181 347.6375 202.99744 348.1844Q203.51306 348.71564 204.29431 348.71564Q204.87244 348.71564 205.27869 348.41876Q205.70056 348.10626 205.93494 347.45ZM202.48181 345.7469L205.95056 345.7469Q205.88806 344.95 205.55994 344.5594Q205.04431 343.95 204.24744 343.95Q203.51306 343.95 203.01306 344.4344Q202.52869 344.91876 202.48181 345.7469Z" fill-rule="nonzero"/><path fill="#000000" d="M314.4375 348.52814Q315.23438 349.075 315.89062 349.325L315.5625 350.1219Q314.64062 349.77814 313.71875 349.0594Q312.76562 349.59064 311.60938 349.59064Q310.4375 349.59064 309.48438 349.02814Q308.54688 348.46564 308.03125 347.45Q307.51562 346.4344 307.51562 345.15314Q307.51562 343.8875 308.03125 342.84064Q308.54688 341.79376 309.5 341.2469Q310.45312 340.7 311.625 340.7Q312.8125 340.7 313.76562 341.27814Q314.73438 341.84064 315.23438 342.85626Q315.73438 343.8719 315.73438 345.15314Q315.73438 346.21564 315.40625 347.0594Q315.09375 347.90314 314.4375 348.52814ZM311.9375 347.075Q312.92188 347.35626 313.5625 347.90314Q314.5625 346.98126 314.5625 345.15314Q314.5625 344.10626 314.20312 343.325Q313.84375 342.54376 313.15625 342.1219Q312.48438 341.6844 311.64062 341.6844Q310.35938 341.6844 309.51562 342.5594Q308.6875 343.41876 308.6875 345.15314Q308.6875 346.825 309.51562 347.73126Q310.34375 348.6219 311.64062 348.6219Q312.25 348.6219 312.78125 348.3875Q312.25 348.04376 311.65625 347.90314L311.9375 347.075ZM320.875 349.45L320.875 348.52814Q320.14062 349.59064 318.89062 349.59064Q318.34375 349.59064 317.85938 349.3875Q317.39062 349.16876 317.15625 348.85626Q316.92188 348.52814 316.82812 348.0594Q316.76562 347.7625 316.76562 347.075L316.76562 343.23126L317.82812 343.23126L317.82812 346.6844Q317.82812 347.4969 317.89062 347.79376Q317.98438 348.2 318.29688 348.45Q318.625 348.6844 319.10938 348.6844Q319.57812 348.6844 319.98438 348.45Q320.40625 348.2 320.57812 347.77814Q320.76562 347.35626 320.76562 346.5594L320.76562 343.23126L321.8125 343.23126L321.8125 349.45L320.875 349.45ZM323.79688 342.075L323.79688 340.85626L324.85938 340.85626L324.85938 342.075L323.79688 342.075ZM323.79688 349.45L323.79688 343.23126L324.85938 343.23126L324.85938 349.45L323.79688 349.45ZM330.85938 347.16876L331.89062 347.3094Q331.71875 348.3719 331.01562 348.98126Q330.3125 349.59064 329.29688 349.59064Q328.01562 349.59064 327.23438 348.7625Q326.46875 347.91876 326.46875 346.35626Q326.46875 345.35626 326.79688 344.60626Q327.14062 343.84064 327.8125 343.46564Q328.5 343.09064 329.3125 343.09064Q330.3125 343.09064 330.95312 343.60626Q331.60938 344.10626 331.79688 345.0594L330.76562 345.21564Q330.625 344.59064 330.25 344.27814Q329.875 343.95 329.34375 343.95Q328.54688 343.95 328.04688 344.52814Q327.54688 345.09064 327.54688 346.325Q327.54688 347.59064 328.03125 348.15314Q328.51562 348.71564 329.28125 348.71564Q329.90625 348.71564 330.3125 348.34064Q330.73438 347.96564 330.85938 347.16876ZM332.79688 349.45L332.79688 340.85626L333.85938 340.85626L333.85938 345.7625L336.34375 343.23126L337.71875 343.23126L335.32812 345.52814L337.95312 349.45L336.65625 349.45L334.59375 346.2625L333.85938 346.98126L333.85938 349.45L332.79688 349.45ZM338.79688 342.075L338.79688 340.85626L339.85938 340.85626L339.85938 342.075L338.79688 342.075ZM338.79688 349.45L338.79688 343.23126L339.85938 343.23126L339.85938 349.45L338.79688 349.45ZM346.04688 347.45L347.14062 347.575Q346.89062 348.52814 346.1875 349.0594Q345.48438 349.59064 344.40625 349.59064Q343.04688 349.59064 342.23438 348.7469Q341.4375 347.90314 341.4375 346.3875Q341.4375 344.825 342.25 343.96564Q343.0625 343.09064 344.34375 343.09064Q345.59375 343.09064 346.375 343.9344Q347.17188 344.77814 347.17188 346.325Q347.17188 346.41876 347.17188 346.60626L342.53125 346.60626Q342.59375 347.6375 343.10938 348.1844Q343.625 348.71564 344.40625 348.71564Q344.98438 348.71564 345.39062 348.41876Q345.8125 348.10626 346.04688 347.45ZM342.59375 345.7469L346.0625 345.7469Q346.0 344.95 345.67188 344.5594Q345.15625 343.95 344.35938 343.95Q343.625 343.95 343.125 344.4344Q342.64062 344.91876 342.59375 345.7469Z" fill-rule="nonzero"/><path fill="#000000" d="M462.67444 346.4344L463.79944 346.73126Q463.44006 348.1219 462.5182 348.85626Q461.5963 349.59064 460.25256 349.59064Q458.86194 349.59064 457.98694 349.02814Q457.11194 348.46564 456.6588 347.40314Q456.2057 346.325 456.2057 345.09064Q456.2057 343.7469 456.7213 342.7469Q457.23694 341.7469 458.17444 341.23126Q459.12756 340.71564 460.2682 340.71564Q461.54944 340.71564 462.42444 341.3719Q463.31506 342.02814 463.6588 343.21564L462.5338 343.48126Q462.23694 342.54376 461.6588 342.1219Q461.0963 341.6844 460.23694 341.6844Q459.25256 341.6844 458.5807 342.16876Q457.92444 342.6375 457.6432 343.4344Q457.37756 344.23126 457.37756 345.09064Q457.37756 346.1844 457.69006 346.9969Q458.0182 347.8094 458.69006 348.21564Q459.36194 348.6219 460.1588 348.6219Q461.11194 348.6219 461.7682 348.075Q462.44006 347.52814 462.67444 346.4344ZM465.0182 346.34064Q465.0182 344.60626 465.9713 343.77814Q466.7682 343.09064 467.92444 343.09064Q469.2057 343.09064 470.0182 343.9344Q470.8463 344.7625 470.8463 346.2469Q470.8463 347.45 470.48694 348.1375Q470.12756 348.825 469.42444 349.21564Q468.73694 349.59064 467.92444 349.59064Q466.62756 349.59064 465.81506 348.7625Q465.0182 347.91876 465.0182 346.34064ZM466.0963 346.34064Q466.0963 347.52814 466.61194 348.1219Q467.1432 348.71564 467.92444 348.71564Q468.7213 348.71564 469.23694 348.1219Q469.75256 347.52814 469.75256 346.3094Q469.75256 345.15314 469.2213 344.5594Q468.7057 343.96564 467.92444 343.96564Q467.1432 343.96564 466.61194 344.5594Q466.0963 345.1375 466.0963 346.34064ZM476.44006 349.45L476.44006 348.66876Q475.8463 349.59064 474.7057 349.59064Q473.9557 349.59064 473.3307 349.1844Q472.7057 348.7625 472.36194 348.02814Q472.0182 347.29376 472.0182 346.34064Q472.0182 345.41876 472.3307 344.65314Q472.6432 343.8875 473.2682 343.4969Q473.8932 343.09064 474.6588 343.09064Q475.2213 343.09064 475.6588 343.325Q476.0963 343.5594 476.37756 343.9344L476.37756 340.85626L477.42444 340.85626L477.42444 349.45L476.44006 349.45ZM473.11194 346.34064Q473.11194 347.54376 473.61194 348.1375Q474.11194 348.71564 474.79944 348.71564Q475.48694 348.71564 475.9713 348.15314Q476.4557 347.59064 476.4557 346.4344Q476.4557 345.15314 475.9557 344.5594Q475.4713 343.96564 474.75256 343.96564Q474.04944 343.96564 473.5807 344.54376Q473.11194 345.10626 473.11194 346.34064ZM483.6588 347.45L484.75256 347.575Q484.50256 348.52814 483.79944 349.0594Q483.0963 349.59064 482.0182 349.59064Q480.6588 349.59064 479.8463 348.7469Q479.04944 347.90314 479.04944 346.3875Q479.04944 344.825 479.86194 343.96564Q480.67444 343.09064 481.9557 343.09064Q483.2057 343.09064 483.98694 343.9344Q484.7838 344.77814 484.7838 346.325Q484.7838 346.41876 484.7838 346.60626L480.1432 346.60626Q480.2057 347.6375 480.7213 348.1844Q481.23694 348.71564 482.0182 348.71564Q482.5963 348.71564 483.00256 348.41876Q483.42444 348.10626 483.6588 347.45ZM480.2057 345.7469L483.67444 345.7469Q483.61194 344.95 483.2838 344.5594Q482.7682 343.95 481.9713 343.95Q481.23694 343.95 480.73694 344.4344Q480.25256 344.91876 480.2057 345.7469ZM486.37756 349.45L486.37756 340.85626L487.44006 340.85626L487.44006 349.45L486.37756 349.45ZM493.4713 348.6844Q492.87756 349.1844 492.3307 349.3875Q491.79944 349.59064 491.17444 349.59064Q490.1432 349.59064 489.5963 349.09064Q489.04944 348.59064 489.04944 347.8094Q489.04944 347.35626 489.25256 346.98126Q489.4557 346.59064 489.79944 346.3719Q490.1432 346.1375 490.56506 346.02814Q490.86194 345.9344 491.50256 345.85626Q492.7682 345.71564 493.37756 345.4969Q493.37756 345.27814 493.37756 345.23126Q493.37756 344.575 493.0807 344.3094Q492.67444 343.96564 491.87756 343.96564Q491.1432 343.96564 490.7838 344.23126Q490.42444 344.48126 490.25256 345.1375L489.2213 344.9969Q489.36194 344.34064 489.69006 343.9344Q490.0182 343.52814 490.62756 343.3094Q491.23694 343.09064 492.0338 343.09064Q492.8307 343.09064 493.3307 343.27814Q493.8307 343.46564 494.06506 343.7469Q494.29944 344.02814 494.3932 344.46564Q494.44006 344.73126 494.44006 345.4344L494.44006 346.84064Q494.44006 348.3094 494.50256 348.7Q494.5807 349.09064 494.7838 349.45L493.67444 349.45Q493.5182 349.1219 493.4713 348.6844ZM493.37756 346.325Q492.79944 346.5594 491.6588 346.73126Q491.00256 346.825 490.73694 346.95Q490.4713 347.0594 490.31506 347.27814Q490.17444 347.4969 490.17444 347.77814Q490.17444 348.2 490.48694 348.48126Q490.81506 348.7625 491.42444 348.7625Q492.0338 348.7625 492.50256 348.4969Q492.98694 348.23126 493.2057 347.7625Q493.37756 347.40314 493.37756 346.71564L493.37756 346.325ZM497.37756 349.45L496.3932 349.45L496.3932 340.85626L497.4557 340.85626L497.4557 343.91876Q498.12756 343.09064 499.1588 343.09064Q499.73694 343.09064 500.23694 343.325Q500.75256 343.54376 501.0807 343.96564Q501.42444 344.3875 501.61194 344.98126Q501.79944 345.575 501.79944 346.2469Q501.79944 347.84064 501.00256 348.71564Q500.2057 349.59064 499.11194 349.59064Q498.00256 349.59064 497.37756 348.66876L497.37756 349.45ZM497.36194 346.29376Q497.36194 347.40314 497.67444 347.90314Q498.17444 348.71564 499.0182 348.71564Q499.7057 348.71564 500.2057 348.1219Q500.7213 347.52814 500.7213 346.325Q500.7213 345.10626 500.23694 344.52814Q499.75256 343.95 499.06506 343.95Q498.37756 343.95 497.86194 344.5594Q497.36194 345.15314 497.36194 346.29376Z" fill-rule="nonzero"/></svg>