<svg version="1.1" viewBox="0.0 0.0 757.8950131233596 223.98950131233596" fill="none" stroke="none" stroke-linecap="square" stroke-miterlimit="10" xmlns:xlink="http://www.w3.org/1999/xlink" xmlns="http://www.w3.org/2000/svg"><clipPath id="p.0"><path d="m0 0l757.895 0l0 223.9895l-757.895 0l0 -223.9895z" clip-rule="nonzero"/></clipPath><g clip-path="url(#p.0)"><path fill="#000000" fill-opacity="0.0" d="m0 0l757.895 0l0 223.9895l-757.895 0z" fill-rule="evenodd"/><path fill="#000000" d="m22.850393 102.509186c1.4514446 0 2.1758537 0.87926483 2.1758537 2.6377945l0 0.21522522c-0.026247025 0.8556442 -0.25196838 2.1627274 -0.6797905 3.921257c-0.4278221 1.7559052 -0.8556423 3.0393753 -1.2834644 3.8503952c-0.4278221 0.8293991 -0.97112846 1.5196838 -1.640419 2.068245c-0.6640434 0.54330444 -1.354332 0.81889343 -2.0656185 0.81889343c-1.2362194 0 -2.1154842 -0.90288544 -2.640419 -2.7112885c0 -0.09448242 0.31233597 -1.3989487 0.92913437 -3.921257c0.14173126 -0.49868774 0.30971146 -1.1154861 0.49868774 -1.8530197c0.1916008 -0.73490906 0.322834 -1.2572174 0.39369965 -1.5695496c0.07086563 -0.30709076 0.1049881 -0.47244263 0.1049881 -0.49868774l0.1076107 -0.14173126c0.094488144 -0.070869446 0.18897629 -0.1889801 0.28608894 -0.35695648c0.094488144 -0.1653595 0.22572136 -0.33071136 0.39107704 -0.49868774l0.5354328 -0.532814c0.18897629 -0.19159698 0.39107513 -0.3700714 0.60367393 -0.5380554c0.21522331 -0.16535187 0.45406914 -0.31758118 0.71391106 -0.46194458c0.26246643 -0.14173126 0.52493477 -0.24933624 0.7847767 -0.3228302c0.26246643 -0.070869446 0.52493477 -0.1049881 0.7847767 -0.1049881zm-7.8923883 -1.3307114c-0.35433006 0 -0.68241405 0.11023712 -0.984252 0.33333588c-0.35695553 0.25984192 -0.66666603 0.52230835 -0.9265089 0.7847748c-0.26246738 0.25984192 -0.49868774 0.6141739 -0.71391106 1.0682449c-0.21259785 0.45144653 -0.3937006 0.8451462 -0.5354328 1.1758499c-0.14173222 0.33333588 -0.25984287 0.7007904 -0.35695553 1.1076126c-0.094488144 0.40157318 -0.15485573 0.6640396 -0.17585278 0.78215027c-0.026247025 0.11811066 -0.049868584 0.21522522 -0.070866585 0.28609467c0 0.07086182 0.070866585 0.17584991 0.2125988 0.3202057l0.49868774 0c0.3307085 0 0.5223093 -0.023620605 0.57217884 -0.07086182c0.09186268 -0.07349396 0.23622036 -0.50131226 0.42782116 -1.2834702c0.18635178 -0.7847748 0.46194267 -1.5091858 0.81627274 -2.1732254c0.35695553 -0.66928864 0.7979002 -1.0 1.322835 -1.0c0.5931759 0 0.88976383 0.4881897 0.88976383 1.4619446c0 0.21259308 -0.013123512 0.3805771 -0.03412056 0.49868774c-0.0734911 0.33332825 -0.7979002 3.2677155 -2.1784782 8.805771c-1.3753281 5.535431 -2.0997372 8.377953 -2.1732283 8.519684c-0.1181097 0.26246643 -0.5800524 0.40420532 -1.3910761 0.42782593l-0.7112856 0c-0.25984287 0.19159698 -0.4173231 0.60892487 -0.46456718 1.2493439c0 0.09449005 0.08398914 0.22572327 0.24934387 0.39107513l0.28608894 0c0.45144367 -0.04724121 1.5091867 -0.070869446 3.1732283 -0.070869446c0.87926483 0 1.6141729 0.010498047 2.2099743 0.036750793c0.5931759 0.023620605 1.0 0.034118652 1.2125988 0.034118652l0.39107513 0c0.23884583 -0.023620605 0.39370155 -0.070869446 0.46456718 -0.14173126c0.07086563 -0.07349396 0.14173317 -0.24934387 0.21522331 -0.53543854c0.07086563 -0.3805771 0.10498619 -0.5957947 0.10498619 -0.640419c0 -0.049865723 -0.07086563 -0.15485382 -0.21522331 -0.3228302l-0.8897629 0c-0.69028854 -0.04462433 -1.1286087 -0.08136749 -1.3202105 -0.1049881c-0.18897629 -0.026245117 -0.28608894 -0.10761261 -0.28608894 -0.25196838c0 -0.020996094 0.25196838 -1.0577469 0.7506561 -3.099739c0.49868774 -2.0446167 0.7585306 -3.0761108 0.78477764 -3.1023636l0.24934387 0.28347015c0.16797829 0.17060089 0.39369965 0.37007904 0.6771641 0.60891724c0.28608894 0.23622131 0.5590553 0.41732788 0.81889725 0.532814c0.4041996 0.14173126 0.8661423 0.21521759 1.391077 0.21521759c2.2834644 -0.023620605 4.3254585 -1.1154785 6.1338577 -3.280838c1.8031502 -2.1627274 2.708662 -4.5275574 2.708662 -7.0918655c0 -1.5957947 -0.43832016 -2.9501266 -1.3202095 -4.065613c-0.87926483 -1.1181107 -2.0918636 -1.6771622 -3.6377964 -1.6771622c-1.328083 0 -2.7322826 0.65354156 -4.2047234 1.9632492l-0.35695648 0.3175888c-0.49868774 -1.5196838 -1.640419 -2.280838 -3.4225712 -2.280838c-0.06561756 -0.005256653 -0.12860966 -0.010505676 -0.19160175 -0.010505676z" fill-rule="evenodd"/><path stroke="#000000" stroke-width="0.03674540682414698" stroke-miterlimit="1.0866382" stroke-linecap="butt" d="m22.850393 102.509186c1.4514446 0 2.1758537 0.87926483 2.1758537 2.6377945l0 0.21522522c-0.026247025 0.8556442 -0.25196838 2.1627274 -0.6797905 3.921257c-0.4278221 1.7559052 -0.8556423 3.0393753 -1.2834644 3.8503952c-0.4278221 0.8293991 -0.97112846 1.5196838 -1.640419 2.068245c-0.6640434 0.54330444 -1.354332 0.81889343 -2.0656185 0.81889343c-1.2362194 0 -2.1154842 -0.90288544 -2.640419 -2.7112885c0 -0.09448242 0.31233597 -1.3989487 0.92913437 -3.921257c0.14173126 -0.49868774 0.30971146 -1.1154861 0.49868774 -1.8530197c0.1916008 -0.73490906 0.322834 -1.2572174 0.39369965 -1.5695496c0.07086563 -0.30709076 0.1049881 -0.47244263 0.1049881 -0.49868774l0.1076107 -0.14173126c0.094488144 -0.070869446 0.18897629 -0.1889801 0.28608894 -0.35695648c0.094488144 -0.1653595 0.22572136 -0.33071136 0.39107704 -0.49868774l0.5354328 -0.532814c0.18897629 -0.19159698 0.39107513 -0.3700714 0.60367393 -0.5380554c0.21522331 -0.16535187 0.45406914 -0.31758118 0.71391106 -0.46194458c0.26246643 -0.14173126 0.52493477 -0.24933624 0.7847767 -0.3228302c0.26246643 -0.070869446 0.52493477 -0.1049881 0.7847767 -0.1049881zm-7.8923883 -1.3307114c-0.35433006 0 -0.68241405 0.11023712 -0.984252 0.33333588c-0.35695553 0.25984192 -0.66666603 0.52230835 -0.9265089 0.7847748c-0.26246738 0.25984192 -0.49868774 0.6141739 -0.71391106 1.0682449c-0.21259785 0.45144653 -0.3937006 0.8451462 -0.5354328 1.1758499c-0.14173222 0.33333588 -0.25984287 0.7007904 -0.35695553 1.1076126c-0.094488144 0.40157318 -0.15485573 0.6640396 -0.17585278 0.78215027c-0.026247025 0.11811066 -0.049868584 0.21522522 -0.070866585 0.28609467c0 0.07086182 0.070866585 0.17584991 0.2125988 0.3202057l0.49868774 0c0.3307085 0 0.5223093 -0.023620605 0.57217884 -0.07086182c0.09186268 -0.07349396 0.23622036 -0.50131226 0.42782116 -1.2834702c0.18635178 -0.7847748 0.46194267 -1.5091858 0.81627274 -2.1732254c0.35695553 -0.66928864 0.7979002 -1.0 1.322835 -1.0c0.5931759 0 0.88976383 0.4881897 0.88976383 1.4619446c0 0.21259308 -0.013123512 0.3805771 -0.03412056 0.49868774c-0.0734911 0.33332825 -0.7979002 3.2677155 -2.1784782 8.805771c-1.3753281 5.535431 -2.0997372 8.377953 -2.1732283 8.519684c-0.1181097 0.26246643 -0.5800524 0.40420532 -1.3910761 0.42782593l-0.7112856 0c-0.25984287 0.19159698 -0.4173231 0.60892487 -0.46456718 1.2493439c0 0.09449005 0.08398914 0.22572327 0.24934387 0.39107513l0.28608894 0c0.45144367 -0.04724121 1.5091867 -0.070869446 3.1732283 -0.070869446c0.87926483 0 1.6141729 0.010498047 2.2099743 0.036750793c0.5931759 0.023620605 1.0 0.034118652 1.2125988 0.034118652l0.39107513 0c0.23884583 -0.023620605 0.39370155 -0.070869446 0.46456718 -0.14173126c0.07086563 -0.07349396 0.14173317 -0.24934387 0.21522331 -0.53543854c0.07086563 -0.3805771 0.10498619 -0.5957947 0.10498619 -0.640419c0 -0.049865723 -0.07086563 -0.15485382 -0.21522331 -0.3228302l-0.8897629 0c-0.69028854 -0.04462433 -1.1286087 -0.08136749 -1.3202105 -0.1049881c-0.18897629 -0.026245117 -0.28608894 -0.10761261 -0.28608894 -0.25196838c0 -0.020996094 0.25196838 -1.0577469 0.7506561 -3.099739c0.49868774 -2.0446167 0.7585306 -3.0761108 0.78477764 -3.1023636l0.24934387 0.28347015c0.16797829 0.17060089 0.39369965 0.37007904 0.6771641 0.60891724c0.28608894 0.23622131 0.5590553 0.41732788 0.81889725 0.532814c0.4041996 0.14173126 0.8661423 0.21521759 1.391077 0.21521759c2.2834644 -0.023620605 4.3254585 -1.1154785 6.1338577 -3.280838c1.8031502 -2.1627274 2.708662 -4.5275574 2.708662 -7.0918655c0 -1.5957947 -0.43832016 -2.9501266 -1.3202095 -4.065613c-0.87926483 -1.1181107 -2.0918636 -1.6771622 -3.6377964 -1.6771622c-1.328083 0 -2.7322826 0.65354156 -4.2047234 1.9632492l-0.35695648 0.3175888c-0.49868774 -1.5196838 -1.640419 -2.280838 -3.4225712 -2.280838c-0.06561756 -0.005256653 -0.12860966 -0.010505676 -0.19160175 -0.010505676z" fill-rule="evenodd"/><path fill="#000000" d="m31.66929 111.173225c-0.37007713 0 -0.73753166 0.1443634 -1.1076107 0.43307495c-0.3858261 0.3018341 -0.6640415 0.6115494 -0.8320217 0.93175507c-0.16535378 0.32021332 -0.33333206 0.71128845 -0.50393677 1.1837311c-0.16797829 0.46981812 -0.27033997 0.7900238 -0.301836 0.9580002c-0.034122467 0.16798401 -0.060367584 0.30184174 -0.07611656 0.4015808c0 0.052490234 0.049869537 0.12598419 0.15223122 0.22834015l0.35170555 0c0.28608894 0 0.4461956 -0.052490234 0.48031616 -0.15222931c0 -0.01574707 0.04724312 -0.19159698 0.1496048 -0.5301819c0.41994858 -1.6797867 0.95013237 -2.5196838 1.5905514 -2.5196838c0.4015751 0 0.60367584 0.32807922 0.60367584 0.9842529c0 0.3018341 -0.007873535 0.49606323 -0.026248932 0.5774231c-0.034118652 0.22047424 -0.37007713 1.5879288 -1.0078716 4.110237c-0.6404209 2.5223083 -0.9553814 3.8897629 -0.9553814 4.1076126c-0.01837349 0.068244934 0 0.1496048 0.04724312 0.2545929c0.05249405 0.099739075 0.14173317 0.19947815 0.2755909 0.30184174c0.13910866 0.099731445 0.31233597 0.1496048 0.5328083 0.1496048c0.50393677 0 0.86351776 -0.22834778 1.0813656 -0.6797943c0.08398819 -0.17060089 0.4041977 -1.3517075 0.9606285 -3.5538025l0.8293991 -3.3779526l0.17584991 -0.30184174c0.99212646 -1.6981583 2.2099762 -2.545929 3.65617 -2.545929l0.12598419 0c0.73753357 0 1.1102371 0.49606323 1.1102371 1.4881897c-0.018375397 0.8556442 -0.32808685 2.1338577 -0.9343834 3.829399c-0.60367584 1.6981583 -0.90551376 2.7060318 -0.90551376 3.026245c0 0.4855652 0.17585373 0.9553757 0.5275612 1.4094467c0.35432816 0.45407104 0.92388153 0.6824188 1.7139091 0.6824188c0.020996094 0 0.041996002 0 0.06561661 0c0.5958023 0 1.1548576 -0.22834778 1.6745415 -0.6824188c0.53805923 -0.46981812 0.92388535 -0.9422531 1.1601067 -1.4094467c0.23359299 -0.46981812 0.41994476 -0.9501343 0.5538025 -1.438324c0.06824112 -0.23622131 0.099739075 -0.3622055 0.099739075 -0.37795258c0 -0.13385773 -0.1679802 -0.19947052 -0.50131226 -0.19947052c-0.30446243 0 -0.47244263 0.06561279 -0.5065613 0.19947052c-0.20209885 0.79003143 -0.49606323 1.4619446 -0.88451385 2.015747c-0.3832016 0.55643463 -0.81889725 0.8766403 -1.307087 0.9580078c-0.05249405 0.018371582 -0.12598419 0.026245117 -0.22834778 0.026245117c-0.28608704 0 -0.4278221 -0.22046661 -0.4278221 -0.6561661c-0.018371582 -0.37007904 0.30183792 -1.4383163 0.9580078 -3.1994781c0.6561661 -1.7664032 0.9763756 -3.0839844 0.958004 -3.9580002c-0.018371582 -0.8740158 -0.30183792 -1.538063 -0.85826874 -1.9921265c-0.5538063 -0.45407104 -1.2834625 -0.6824188 -2.1942253 -0.6824188c-1.307087 0 -2.4776917 0.54068756 -3.5013123 1.6141739l-0.2782135 0.27822113c-0.015750885 0 -0.02362442 -0.018379211 -0.02362442 -0.049873352c0 -0.083992004 -0.05249405 -0.26246643 -0.15222931 -0.5301819c-0.099739075 -0.26771545 -0.35433197 -0.5538101 -0.75590515 -0.8556442c-0.4042015 -0.30445862 -0.90551376 -0.45669556 -1.5118122 -0.45669556c-0.01574707 0 -0.03412056 0 -0.05249405 0z" fill-rule="evenodd"/><path stroke="#000000" stroke-width="0.026246719160104987" stroke-miterlimit="1.0866382" stroke-linecap="butt" d="m31.66929 111.173225c-0.37007713 0 -0.73753166 0.1443634 -1.1076107 0.43307495c-0.3858261 0.3018341 -0.6640415 0.6115494 -0.8320217 0.93175507c-0.16535378 0.32021332 -0.33333206 0.71128845 -0.50393677 1.1837311c-0.16797829 0.46981812 -0.27033997 0.7900238 -0.301836 0.9580002c-0.034122467 0.16798401 -0.060367584 0.30184174 -0.07611656 0.4015808c0 0.052490234 0.049869537 0.12598419 0.15223122 0.22834015l0.35170555 0c0.28608894 0 0.4461956 -0.052490234 0.48031616 -0.15222931c0 -0.01574707 0.04724312 -0.19159698 0.1496048 -0.5301819c0.41994858 -1.6797867 0.95013237 -2.5196838 1.5905514 -2.5196838c0.4015751 0 0.60367584 0.32807922 0.60367584 0.9842529c0 0.3018341 -0.007873535 0.49606323 -0.026248932 0.5774231c-0.034118652 0.22047424 -0.37007713 1.5879288 -1.0078716 4.110237c-0.6404209 2.5223083 -0.9553814 3.8897629 -0.9553814 4.1076126c-0.01837349 0.068244934 0 0.1496048 0.04724312 0.2545929c0.05249405 0.099739075 0.14173317 0.19947815 0.2755909 0.30184174c0.13910866 0.099731445 0.31233597 0.1496048 0.5328083 0.1496048c0.50393677 0 0.86351776 -0.22834778 1.0813656 -0.6797943c0.08398819 -0.17060089 0.4041977 -1.3517075 0.9606285 -3.5538025l0.8293991 -3.3779526l0.17584991 -0.30184174c0.99212646 -1.6981583 2.2099762 -2.545929 3.65617 -2.545929l0.12598419 0c0.73753357 0 1.1102371 0.49606323 1.1102371 1.4881897c-0.018375397 0.8556442 -0.32808685 2.1338577 -0.9343834 3.829399c-0.60367584 1.6981583 -0.90551376 2.7060318 -0.90551376 3.026245c0 0.4855652 0.17585373 0.9553757 0.5275612 1.4094467c0.35432816 0.45407104 0.92388153 0.6824188 1.7139091 0.6824188c0.020996094 0 0.041996002 0 0.06561661 0c0.5958023 0 1.1548576 -0.22834778 1.6745415 -0.6824188c0.53805923 -0.46981812 0.92388535 -0.9422531 1.1601067 -1.4094467c0.23359299 -0.46981812 0.41994476 -0.9501343 0.5538025 -1.438324c0.06824112 -0.23622131 0.099739075 -0.3622055 0.099739075 -0.37795258c0 -0.13385773 -0.1679802 -0.19947052 -0.50131226 -0.19947052c-0.30446243 0 -0.47244263 0.06561279 -0.5065613 0.19947052c-0.20209885 0.79003143 -0.49606323 1.4619446 -0.88451385 2.015747c-0.3832016 0.55643463 -0.81889725 0.8766403 -1.307087 0.9580078c-0.05249405 0.018371582 -0.12598419 0.026245117 -0.22834778 0.026245117c-0.28608704 0 -0.4278221 -0.22046661 -0.4278221 -0.6561661c-0.018371582 -0.37007904 0.30183792 -1.4383163 0.9580078 -3.1994781c0.6561661 -1.7664032 0.9763756 -3.0839844 0.958004 -3.9580002c-0.018371582 -0.8740158 -0.30183792 -1.538063 -0.85826874 -1.9921265c-0.5538063 -0.45407104 -1.2834625 -0.6824188 -2.1942253 -0.6824188c-1.307087 0 -2.4776917 0.54068756 -3.5013123 1.6141739l-0.2782135 0.27822113c-0.015750885 0 -0.02362442 -0.018379211 -0.02362442 -0.049873352c0 -0.083992004 -0.05249405 -0.26246643 -0.15222931 -0.5301819c-0.099739075 -0.26771545 -0.35433197 -0.5538101 -0.75590515 -0.8556442c-0.4042015 -0.30445862 -0.90551376 -0.45669556 -1.5118122 -0.45669556c-0.01574707 0 -0.03412056 0 -0.05249405 0z" fill-rule="evenodd"/><path fill="#000000" d="m59.3937 103.86352c-0.33333206 0.16535187 -0.49868774 0.4041977 -0.49868774 0.71391296c0 0.35694885 0.18635178 0.59317017 0.5695534 0.71390533l11.335957 0l11.338585 -0.036743164c0.33071136 -0.18897247 0.49868774 -0.41732025 0.49868774 -0.6771622c0 -0.28609467 -0.18109894 -0.5249405 -0.5354309 -0.71391296zm0.07086563 6.916008c-0.3832016 0.11811066 -0.5695534 0.35695648 -0.5695534 0.71391296c0 0.30708313 0.16535568 0.54592896 0.49868774 0.71391296l22.708664 0c0.35433197 -0.16798401 0.5354309 -0.40682983 0.5354309 -0.71391296c0 -0.23884583 -0.16797638 -0.47506714 -0.49868774 -0.71391296z" fill-rule="evenodd"/><path stroke="#000000" stroke-width="0.03674540682414698" stroke-miterlimit="1.0866382" stroke-linecap="butt" d="m59.3937 103.86352c-0.33333206 0.16535187 -0.49868774 0.4041977 -0.49868774 0.71391296c0 0.35694885 0.18635178 0.59317017 0.5695534 0.71390533l11.335957 0l11.338585 -0.036743164c0.33071136 -0.18897247 0.49868774 -0.41732025 0.49868774 -0.6771622c0 -0.28609467 -0.18109894 -0.5249405 -0.5354309 -0.71391296zm0.07086563 6.916008c-0.3832016 0.11811066 -0.5695534 0.35695648 -0.5695534 0.71391296c0 0.30708313 0.16535568 0.54592896 0.49868774 0.71391296l22.708664 0c0.35433197 -0.16798401 0.5354309 -0.40682983 0.5354309 -0.71391296c0 -0.23884583 -0.16797638 -0.47506714 -0.49868774 -0.71391296z" fill-rule="evenodd"/><path fill="#000000" d="m104.74016 93.20473c-0.23884583 0 -0.3805771 0.036743164 -0.42782593 0.10760498c-0.28346252 0.25984955 -0.6167908 0.522316 -0.99736786 0.7847824c-0.38320923 0.25984192 -1.0472488 0.54330444 -1.9973755 0.8556442c-0.9527588 0.30708313 -1.9842529 0.4855652 -3.1023636 0.5328064l-0.6745453 0l0 1.640419l0.6745453 0c0.7611542 -0.04724121 1.4514389 -0.13123322 2.0682373 -0.24934387c0.6194229 -0.12073517 1.09449 -0.23884583 1.4252014 -0.35695648l0.46456146 -0.17847443l0 18.433067c-0.0026245117 -0.0052490234 -0.010498047 -0.007873535 -0.01574707 -0.007873535c-0.034118652 0 -0.099739075 0.049873352 -0.19684601 0.1496048c-0.12073517 0.11811066 -0.19160461 0.17585754 -0.21522522 0.17585754c-0.023620605 0 -0.11811066 0.026245117 -0.28346252 0.07348633c-0.16798401 0.04724884 -0.35695648 0.08136749 -0.5721817 0.10761261c-0.21260071 0.023620605 -0.5091858 0.034118652 -0.8923874 0.034118652l-2.280838 0l0 1.6404266l0.4278183 0c0.49868774 -0.070869446 2.36483 -0.1049881 5.598427 -0.1049881c3.280838 0 5.1679764 0.034118652 5.666664 0.1049881l0.39369965 0l0 -1.6404266l-0.92650604 0c-1.0236206 0 -1.7585297 -0.023620605 -2.2099762 -0.07086182c-0.45406342 -0.04724121 -0.7401581 -0.09449005 -0.8556442 -0.14435577c-0.12072754 -0.04462433 -0.26246643 -0.15222931 -0.4278183 -0.3175888l-0.036743164 -10.695534l0 -10.661423c-0.1889801 -0.14173126 -0.39107513 -0.21259308 -0.60630035 -0.21259308z" fill-rule="evenodd"/><path stroke="#000000" stroke-width="0.03674540682414698" stroke-miterlimit="1.0866382" stroke-linecap="butt" d="m104.74016 93.20473c-0.23884583 0 -0.3805771 0.036743164 -0.42782593 0.10760498c-0.28346252 0.25984955 -0.6167908 0.522316 -0.99736786 0.7847824c-0.38320923 0.25984192 -1.0472488 0.54330444 -1.9973755 0.8556442c-0.9527588 0.30708313 -1.9842529 0.4855652 -3.1023636 0.5328064l-0.6745453 0l0 1.640419l0.6745453 0c0.7611542 -0.04724121 1.4514389 -0.13123322 2.0682373 -0.24934387c0.6194229 -0.12073517 1.09449 -0.23884583 1.4252014 -0.35695648l0.46456146 -0.17847443l0 18.433067c-0.0026245117 -0.0052490234 -0.010498047 -0.007873535 -0.01574707 -0.007873535c-0.034118652 0 -0.099739075 0.049873352 -0.19684601 0.1496048c-0.12073517 0.11811066 -0.19160461 0.17585754 -0.21522522 0.17585754c-0.023620605 0 -0.11811066 0.026245117 -0.28346252 0.07348633c-0.16798401 0.04724884 -0.35695648 0.08136749 -0.5721817 0.10761261c-0.21260071 0.023620605 -0.5091858 0.034118652 -0.8923874 0.034118652l-2.280838 0l0 1.6404266l0.4278183 0c0.49868774 -0.070869446 2.36483 -0.1049881 5.598427 -0.1049881c3.280838 0 5.1679764 0.034118652 5.666664 0.1049881l0.39369965 0l0 -1.6404266l-0.92650604 0c-1.0236206 0 -1.7585297 -0.023620605 -2.2099762 -0.07086182c-0.45406342 -0.04724121 -0.7401581 -0.09449005 -0.8556442 -0.14435577c-0.12072754 -0.04462433 -0.26246643 -0.15222931 -0.4278183 -0.3175888l-0.036743164 -10.695534l0 -10.661423c-0.1889801 -0.14173126 -0.39107513 -0.21259308 -0.60630035 -0.21259308z" fill-rule="evenodd"/><path fill="#000000" d="m134.18898 96.16273c-0.21522522 0 -0.43832397 0.15486145 -0.6797943 0.4645691l-0.034118652 5.3464584l0 5.3464584l-10.661415 0c-0.33071136 0.16797638 -0.49868774 0.4068222 -0.49868774 0.71390533c0 0.30971527 0.16797638 0.5485611 0.49868774 0.71391296l10.661415 0l0 10.622047c0.14434814 0.3359604 0.35694885 0.50131226 0.6430359 0.50131226l0.14173889 0c0.23622131 0 0.45144653 -0.16535187 0.64305115 -0.50131226l0 -10.622047l10.62204 0c0.3569641 -0.1889801 0.5328064 -0.4278183 0.5328064 -0.71391296c0 -0.28608704 -0.17584229 -0.52230835 -0.5328064 -0.71390533l-10.62204 0l0 -10.622047c-0.17060852 -0.35695648 -0.40682983 -0.53543854 -0.71391296 -0.53543854z" fill-rule="evenodd"/><path stroke="#000000" stroke-width="0.03674540682414698" stroke-miterlimit="1.0866382" stroke-linecap="butt" d="m134.18898 96.16273c-0.21522522 0 -0.43832397 0.15486145 -0.6797943 0.4645691l-0.034118652 5.3464584l0 5.3464584l-10.661415 0c-0.33071136 0.16797638 -0.49868774 0.4068222 -0.49868774 0.71390533c0 0.30971527 0.16797638 0.5485611 0.49868774 0.71391296l10.661415 0l0 10.622047c0.14434814 0.3359604 0.35694885 0.50131226 0.6430359 0.50131226l0.14173889 0c0.23622131 0 0.45144653 -0.16535187 0.64305115 -0.50131226l0 -10.622047l10.62204 0c0.3569641 -0.1889801 0.5328064 -0.4278183 0.5328064 -0.71391296c0 -0.28608704 -0.17584229 -0.52230835 -0.5328064 -0.71390533l-10.62204 0l0 -10.622047c-0.17060852 -0.35695648 -0.40682983 -0.53543854 -0.71391296 -0.53543854z" fill-rule="evenodd"/><path fill="#000000" d="m179.71391 83.07874c-14.307083 0 -21.496063 0.026245117 -21.566925 0.07086182c-0.1207428 0.070869446 -0.18110657 0.35695648 -0.18110657 0.8556442l0.036743164 0.5354309l9.482941 13.013123c1.377945 1.8530197 2.9238892 3.9685059 4.6351624 6.343834c1.7112885 2.380577 2.9580078 4.0918655 3.7427826 5.1338577c0.78479004 1.0472488 1.178482 1.5800552 1.178482 1.6063004l-19.005249 21.74804c-0.0446167 0.09448242 -0.07086182 0.16534424 -0.07086182 0.21258545c0 0.1653595 0.07086182 0.275589 0.21522522 0.32022095c0.07086182 0.04724121 7.259842 0.07086182 21.56955 0.07086182l21.425201 -0.034118652l2.0682373 -5.527565c0.30970764 -0.92650604 0.6771698 -1.9238815 1.1049805 -2.994751c0.42782593 -1.0682373 0.724411 -1.842514 0.8897705 -2.3149567c0.16798401 -0.47769165 0.25196838 -0.724411 0.25196838 -0.7506561l-1.4252014 0c-0.47769165 1.09449 -0.96588135 1.9501343 -1.4645691 2.566925c-1.0682373 1.2834702 -2.2939606 2.3175888 -3.669281 3.1023636c-1.3805847 0.7847824 -3.0551147 1.3674622 -5.0288696 1.7454071c-1.9711304 0.38320923 -3.9553833 0.6299286 -5.952759 0.7506561c-1.9973755 0.118118286 -4.611557 0.17585754 -7.8425293 0.17585754c-0.9264984 -0.020996094 -2.4514313 -0.034118652 -4.5643005 -0.034118652l-5.0288696 0c-5.0131226 0 -7.519684 -0.010498047 -7.519684 -0.036743164l9.412079 -10.695541c6.2020874 -7.1023636 9.341202 -10.692917 9.412064 -10.766411c0.020996094 -0.09185791 0.020996094 -0.16535187 0 -0.21259308c-0.049865723 -0.14173126 -5.5747986 -7.734909 -16.580048 -22.779533l-0.28608704 -0.39369965l15.973755 0c2.664032 0.026252747 4.837265 0.070869446 6.524933 0.14173126c1.6850433 0.070869446 3.4829407 0.27559662 5.3805695 0.60892487c1.9028931 0.33071136 3.5774384 0.84252167 5.0288696 1.5301895c1.448822 0.6902847 2.769043 1.6062927 3.9553833 2.7480316c0.83465576 0.8766403 1.4986877 1.8057709 1.9973755 2.7795258l0.25196838 0.49868774l1.4252014 0c-0.09710693 -0.1889801 -0.84513855 -1.9238892 -2.2467194 -5.204727l-2.0682373 -4.8136444z" fill-rule="evenodd"/><path stroke="#000000" stroke-width="0.03674540682414698" stroke-miterlimit="1.0866382" stroke-linecap="butt" d="m179.71391 83.07874c-14.307083 0 -21.496063 0.026245117 -21.566925 0.07086182c-0.1207428 0.070869446 -0.18110657 0.35695648 -0.18110657 0.8556442l0.036743164 0.5354309l9.482941 13.013123c1.377945 1.8530197 2.9238892 3.9685059 4.6351624 6.343834c1.7112885 2.380577 2.9580078 4.0918655 3.7427826 5.1338577c0.78479004 1.0472488 1.178482 1.5800552 1.178482 1.6063004l-19.005249 21.74804c-0.0446167 0.09448242 -0.07086182 0.16534424 -0.07086182 0.21258545c0 0.1653595 0.07086182 0.275589 0.21522522 0.32022095c0.07086182 0.04724121 7.259842 0.07086182 21.56955 0.07086182l21.425201 -0.034118652l2.0682373 -5.527565c0.30970764 -0.92650604 0.6771698 -1.9238815 1.1049805 -2.994751c0.42782593 -1.0682373 0.724411 -1.842514 0.8897705 -2.3149567c0.16798401 -0.47769165 0.25196838 -0.724411 0.25196838 -0.7506561l-1.4252014 0c-0.47769165 1.09449 -0.96588135 1.9501343 -1.4645691 2.566925c-1.0682373 1.2834702 -2.2939606 2.3175888 -3.669281 3.1023636c-1.3805847 0.7847824 -3.0551147 1.3674622 -5.0288696 1.7454071c-1.9711304 0.38320923 -3.9553833 0.6299286 -5.952759 0.7506561c-1.9973755 0.118118286 -4.611557 0.17585754 -7.8425293 0.17585754c-0.9264984 -0.020996094 -2.4514313 -0.034118652 -4.5643005 -0.034118652l-5.0288696 0c-5.0131226 0 -7.519684 -0.010498047 -7.519684 -0.036743164l9.412079 -10.695541c6.2020874 -7.1023636 9.341202 -10.692917 9.412064 -10.766411c0.020996094 -0.09185791 0.020996094 -0.16535187 0 -0.21259308c-0.049865723 -0.14173126 -5.5747986 -7.734909 -16.580048 -22.779533l-0.28608704 -0.39369965l15.973755 0c2.664032 0.026252747 4.837265 0.070869446 6.524933 0.14173126c1.6850433 0.070869446 3.4829407 0.27559662 5.3805695 0.60892487c1.9028931 0.33071136 3.5774384 0.84252167 5.0288696 1.5301895c1.448822 0.6902847 2.769043 1.6062927 3.9553833 2.7480316c0.83465576 0.8766403 1.4986877 1.8057709 1.9973755 2.7795258l0.25196838 0.49868774l1.4252014 0c-0.09710693 -0.1889801 -0.84513855 -1.9238892 -2.2467194 -5.204727l-2.0682373 -4.8136444z" fill-rule="evenodd"/><path fill="#000000" d="m167.47244 139.14699c-0.4199524 0.018371582 -0.7900238 0.1784668 -1.1102448 0.48031616c-0.31758118 0.3018341 -0.4776764 0.65353394 -0.4776764 1.0577393c0.01574707 0.38581848 0.1338501 0.6614075 0.35169983 0.8293915c0.22047424 0.16798401 0.45407104 0.2545929 0.70866394 0.2545929c0.40156555 -0.018371582 0.7716522 -0.18635559 1.107605 -0.5065613c0.33596802 -0.31758118 0.50393677 -0.6719208 0.50393677 -1.0577393c-0.018371582 -0.3018341 -0.12597656 -0.556427 -0.32807922 -0.75590515c-0.19947815 -0.20210266 -0.45407104 -0.3018341 -0.75590515 -0.3018341zm-2.3070831 5.5170593c-0.49868774 0 -0.9816284 0.18634033 -1.448822 0.556427c-0.4881897 0.38581848 -0.85565186 0.8136444 -1.1102448 1.286087c-0.24934387 0.46981812 -0.4540558 0.89764404 -0.6036682 1.286087c-0.15223694 0.38320923 -0.22572327 0.64567566 -0.22572327 0.77952576c0 0.052490234 0.052490234 0.12599182 0.15223694 0.22572327l0.65353394 0c0.018371582 0 0.041992188 -0.007873535 0.0761261 -0.020996094c0.034118652 -0.018371582 0.049865723 -0.034118652 0.049865723 -0.052490234c0 -0.01574707 0.010498047 -0.041992188 0.026245117 -0.07611084c0.018371582 -0.0315094 0.03149414 -0.057754517 0.049865723 -0.0761261c0.21784973 -0.8582611 0.5380554 -1.561676 0.9580078 -2.1154785c0.41732788 -0.556427 0.8792572 -0.83203125 1.3858337 -0.83203125l0.049865723 0c0.28608704 0 0.42781067 0.20210266 0.42781067 0.6036835c-0.01574707 0.3202057 -0.07348633 0.6483002 -0.17584229 0.9842529c-0.099746704 0.33332825 -0.46981812 1.3516998 -1.1102448 3.0498657c-0.63516235 1.6614227 -0.9973755 2.6194305 -1.0839844 2.871399c-0.08135986 0.2545929 -0.12336731 0.52230835 -0.12336731 0.8083954c0.01576233 0.724411 0.25196838 1.2598419 0.7060394 1.6141663c0.45407104 0.3517151 0.9501343 0.5275574 1.4855652 0.5275574c0.556427 0 1.0761261 -0.18371582 1.5643005 -0.5538025c0.4855652 -0.3700714 0.8635254 -0.7900238 1.1338654 -1.2624664c0.26771545 -0.46981812 0.48031616 -0.89764404 0.6299286 -1.286087c0.15222168 -0.38320923 0.22570801 -0.64305115 0.22570801 -0.77952576c0 -0.1653595 -0.16796875 -0.25196838 -0.50393677 -0.25196838c-0.25196838 0 -0.39369202 0.018371582 -0.42781067 0.052490234c-0.034118652 0.034118652 -0.0761261 0.14961243 -0.12599182 0.35169983c-0.18635559 0.5879364 -0.39369202 1.0839996 -0.62991333 1.4855652c-0.2335968 0.40420532 -0.46194458 0.6981659 -0.6824188 0.881897c-0.21784973 0.18635559 -0.40945435 0.3018341 -0.5800476 0.35432434c-0.16798401 0.052505493 -0.32546997 0.07350159 -0.47769165 0.07350159c-0.28608704 0 -0.42782593 -0.20735168 -0.42782593 -0.6273041c0 -0.16798401 0.041992188 -0.43832397 0.12599182 -0.8057709c0.26771545 -0.7900238 0.6220398 -1.7401581 1.0577393 -2.8504028c0.43830872 -1.1102295 0.7716522 -1.9894867 1.010498 -2.6456604c0.2335968 -0.6561737 0.35169983 -1.1286163 0.35169983 -1.4120789c-0.01574707 -0.65615845 -0.24409485 -1.1758423 -0.6797943 -1.5643005c-0.43830872 -0.38320923 -0.9842377 -0.5774231 -1.6377869 -0.5774231c-0.023620605 -0.0026245117 -0.0446167 -0.0026245117 -0.06561279 -0.0026245117z" fill-rule="evenodd"/><path stroke="#000000" stroke-width="0.026246719160104987" stroke-miterlimit="1.0866382" stroke-linecap="butt" d="m167.47244 139.14699c-0.4199524 0.018371582 -0.7900238 0.1784668 -1.1102448 0.48031616c-0.31758118 0.3018341 -0.4776764 0.65353394 -0.4776764 1.0577393c0.01574707 0.38581848 0.1338501 0.6614075 0.35169983 0.8293915c0.22047424 0.16798401 0.45407104 0.2545929 0.70866394 0.2545929c0.40156555 -0.018371582 0.7716522 -0.18635559 1.107605 -0.5065613c0.33596802 -0.31758118 0.50393677 -0.6719208 0.50393677 -1.0577393c-0.018371582 -0.3018341 -0.12597656 -0.556427 -0.32807922 -0.75590515c-0.19947815 -0.20210266 -0.45407104 -0.3018341 -0.75590515 -0.3018341zm-2.3070831 5.5170593c-0.49868774 0 -0.9816284 0.18634033 -1.448822 0.556427c-0.4881897 0.38581848 -0.85565186 0.8136444 -1.1102448 1.286087c-0.24934387 0.46981812 -0.4540558 0.89764404 -0.6036682 1.286087c-0.15223694 0.38320923 -0.22572327 0.64567566 -0.22572327 0.77952576c0 0.052490234 0.052490234 0.12599182 0.15223694 0.22572327l0.65353394 0c0.018371582 0 0.041992188 -0.007873535 0.0761261 -0.020996094c0.034118652 -0.018371582 0.049865723 -0.034118652 0.049865723 -0.052490234c0 -0.01574707 0.010498047 -0.041992188 0.026245117 -0.07611084c0.018371582 -0.0315094 0.03149414 -0.057754517 0.049865723 -0.0761261c0.21784973 -0.8582611 0.5380554 -1.561676 0.9580078 -2.1154785c0.41732788 -0.556427 0.8792572 -0.83203125 1.3858337 -0.83203125l0.049865723 0c0.28608704 0 0.42781067 0.20210266 0.42781067 0.6036835c-0.01574707 0.3202057 -0.07348633 0.6483002 -0.17584229 0.9842529c-0.099746704 0.33332825 -0.46981812 1.3516998 -1.1102448 3.0498657c-0.63516235 1.6614227 -0.9973755 2.6194305 -1.0839844 2.871399c-0.08135986 0.2545929 -0.12336731 0.52230835 -0.12336731 0.8083954c0.01576233 0.724411 0.25196838 1.2598419 0.7060394 1.6141663c0.45407104 0.3517151 0.9501343 0.5275574 1.4855652 0.5275574c0.556427 0 1.0761261 -0.18371582 1.5643005 -0.5538025c0.4855652 -0.3700714 0.8635254 -0.7900238 1.1338654 -1.2624664c0.26771545 -0.46981812 0.48031616 -0.89764404 0.6299286 -1.286087c0.15222168 -0.38320923 0.22570801 -0.64305115 0.22570801 -0.77952576c0 -0.1653595 -0.16796875 -0.25196838 -0.50393677 -0.25196838c-0.25196838 0 -0.39369202 0.018371582 -0.42781067 0.052490234c-0.034118652 0.034118652 -0.0761261 0.14961243 -0.12599182 0.35169983c-0.18635559 0.5879364 -0.39369202 1.0839996 -0.62991333 1.4855652c-0.2335968 0.40420532 -0.46194458 0.6981659 -0.6824188 0.881897c-0.21784973 0.18635559 -0.40945435 0.3018341 -0.5800476 0.35432434c-0.16798401 0.052505493 -0.32546997 0.07350159 -0.47769165 0.07350159c-0.28608704 0 -0.42782593 -0.20735168 -0.42782593 -0.6273041c0 -0.16798401 0.041992188 -0.43832397 0.12599182 -0.8057709c0.26771545 -0.7900238 0.6220398 -1.7401581 1.0577393 -2.8504028c0.43830872 -1.1102295 0.7716522 -1.9894867 1.010498 -2.6456604c0.2335968 -0.6561737 0.35169983 -1.1286163 0.35169983 -1.4120789c-0.01574707 -0.65615845 -0.24409485 -1.1758423 -0.6797943 -1.5643005c-0.43830872 -0.38320923 -0.9842377 -0.5774231 -1.6377869 -0.5774231c-0.023620605 -0.0026245117 -0.0446167 -0.0026245117 -0.06561279 -0.0026245117z" fill-rule="evenodd"/><path fill="#000000" d="m171.70866 146.55643c-0.23884583 0.118118286 -0.3543396 0.28608704 -0.3543396 0.5065613c0 0.24934387 0.13386536 0.41732788 0.4015808 0.50131226l8.018372 0l8.013123 -0.023620605c0.23622131 -0.13647461 0.3543396 -0.29658508 0.3543396 -0.47769165c0 -0.20472717 -0.12599182 -0.37269592 -0.38058472 -0.5065613zm0.04724121 4.8897705c-0.26771545 0.083984375 -0.4015808 0.25196838 -0.4015808 0.50393677c0 0.22047424 0.115493774 0.388443 0.3543396 0.50393677l16.05249 0c0.2545929 -0.115493774 0.38058472 -0.28346252 0.38058472 -0.50393677c0 -0.16798401 -0.118118286 -0.33596802 -0.3543396 -0.50393677z" fill-rule="evenodd"/><path stroke="#000000" stroke-width="0.026246719160104987" stroke-miterlimit="1.0866382" stroke-linecap="butt" d="m171.70866 146.55643c-0.23884583 0.118118286 -0.3543396 0.28608704 -0.3543396 0.5065613c0 0.24934387 0.13386536 0.41732788 0.4015808 0.50131226l8.018372 0l8.013123 -0.023620605c0.23622131 -0.13647461 0.3543396 -0.29658508 0.3543396 -0.47769165c0 -0.20472717 -0.12599182 -0.37269592 -0.38058472 -0.5065613zm0.04724121 4.8897705c-0.26771545 0.083984375 -0.4015808 0.25196838 -0.4015808 0.50393677c0 0.22047424 0.115493774 0.388443 0.3543396 0.50393677l16.05249 0c0.2545929 -0.115493774 0.38058472 -0.28346252 0.38058472 -0.50393677c0 -0.16798401 -0.118118286 -0.33596802 -0.3543396 -0.50393677z" fill-rule="evenodd"/><path fill="#000000" d="m196.76115 139.01837c-0.16798401 0 -0.26771545 0.026245117 -0.30445862 0.07873535c-0.19947815 0.18373108 -0.43569946 0.37008667 -0.7034149 0.55119324c-0.26771545 0.18634033 -0.73753357 0.388443 -1.4120789 0.60891724c-0.6719055 0.21522522 -1.4015656 0.34120178 -2.1915894 0.3753357l-0.48031616 0l0 1.1627197l0.48031616 0c0.5380554 -0.036743164 1.0236206 -0.09448242 1.4619293 -0.17848206c0.43569946 -0.083984375 0.7716675 -0.16796875 1.0078735 -0.2545929l0.32809448 -0.12335205l0 13.02887c-0.0052490234 -0.0026245117 -0.007873535 -0.0026245117 -0.013122559 -0.0026245117c-0.023620605 0 -0.070877075 0.034118652 -0.13911438 0.10760498c-0.083984375 0.08137512 -0.1338501 0.12336731 -0.15222168 0.12336731c-0.01574707 0 -0.083999634 0.018371582 -0.20210266 0.049865723c-0.115493774 0.034118652 -0.24934387 0.06036377 -0.4015808 0.07611084c-0.15222168 0.01838684 -0.36219788 0.026260376 -0.62991333 0.026260376l-1.6141815 0l0 1.1574707l0.3018341 0c0.3543396 -0.04724121 1.6745453 -0.07348633 3.9580078 -0.07348633c2.320221 0 3.6535492 0.026245117 4.0078735 0.07348633l0.275589 0l0 -1.1574707l-0.65615845 0c-0.719162 0 -1.2414703 -0.018371582 -1.5590668 -0.052505493c-0.3202057 -0.034118652 -0.52230835 -0.068237305 -0.6062927 -0.099731445c-0.083984375 -0.034118652 -0.18373108 -0.11022949 -0.30445862 -0.22834778l-0.020996094 -7.5590515l0 -7.535431c-0.13648987 -0.102371216 -0.280838 -0.15486145 -0.43045044 -0.15486145z" fill-rule="evenodd"/><path stroke="#000000" stroke-width="0.026246719160104987" stroke-miterlimit="1.0866382" stroke-linecap="butt" d="m196.76115 139.01837c-0.16798401 0 -0.26771545 0.026245117 -0.30445862 0.07873535c-0.19947815 0.18373108 -0.43569946 0.37008667 -0.7034149 0.55119324c-0.26771545 0.18634033 -0.73753357 0.388443 -1.4120789 0.60891724c-0.6719055 0.21522522 -1.4015656 0.34120178 -2.1915894 0.3753357l-0.48031616 0l0 1.1627197l0.48031616 0c0.5380554 -0.036743164 1.0236206 -0.09448242 1.4619293 -0.17848206c0.43569946 -0.083984375 0.7716675 -0.16796875 1.0078735 -0.2545929l0.32809448 -0.12335205l0 13.02887c-0.0052490234 -0.0026245117 -0.007873535 -0.0026245117 -0.013122559 -0.0026245117c-0.023620605 0 -0.070877075 0.034118652 -0.13911438 0.10760498c-0.083984375 0.08137512 -0.1338501 0.12336731 -0.15222168 0.12336731c-0.01574707 0 -0.083999634 0.018371582 -0.20210266 0.049865723c-0.115493774 0.034118652 -0.24934387 0.06036377 -0.4015808 0.07611084c-0.15222168 0.01838684 -0.36219788 0.026260376 -0.62991333 0.026260376l-1.6141815 0l0 1.1574707l0.3018341 0c0.3543396 -0.04724121 1.6745453 -0.07348633 3.9580078 -0.07348633c2.320221 0 3.6535492 0.026245117 4.0078735 0.07348633l0.275589 0l0 -1.1574707l-0.65615845 0c-0.719162 0 -1.2414703 -0.018371582 -1.5590668 -0.052505493c-0.3202057 -0.034118652 -0.52230835 -0.068237305 -0.6062927 -0.099731445c-0.083984375 -0.034118652 -0.18373108 -0.11022949 -0.30445862 -0.22834778l-0.020996094 -7.5590515l0 -7.535431c-0.13648987 -0.102371216 -0.280838 -0.15486145 -0.43045044 -0.15486145z" fill-rule="evenodd"/><path fill="#000000" d="m173.94489 59.125984c-1.3280945 0 -2.4356995 0.43832016 -3.32547 1.312336c-0.8950043 0.8740158 -1.3385773 1.9055138 -1.3385773 3.099739c0 0.43832016 0.13386536 0.8057747 0.40420532 1.1076088c0.26771545 0.30184174 0.6272888 0.45407104 1.0839844 0.45407104c0.4855652 -0.01574707 0.8635254 -0.1653595 1.1338654 -0.45407104c0.26771545 -0.28608704 0.40419006 -0.63517 0.40419006 -1.0577431c0 -0.5354309 -0.16009521 -0.92388153 -0.48031616 -1.1574783c-0.31758118 -0.23622131 -0.62991333 -0.35433197 -0.93174744 -0.35433197c-0.086624146 0 -0.12599182 -0.007873535 -0.12599182 -0.026245117c0 -0.049869537 0.083984375 -0.2099762 0.25196838 -0.47769165c0.16798401 -0.26771545 0.46194458 -0.54593277 0.881897 -0.8320198c0.41993713 -0.28609085 0.9055023 -0.43044662 1.4619293 -0.43044662c1.0577545 0 1.8740234 0.38845062 2.443573 1.1627312c0.57218933 0.7716522 0.85827637 1.687664 0.85827637 2.745407c0 0.3202057 -0.023620605 0.5958023 -0.0761261 0.832016c-0.052490234 0.2335968 -0.10760498 0.4881897 -0.17584229 0.75590515c-0.06562805 0.26772308 -0.17848206 0.53806305 -0.32809448 0.808403c-0.15222168 0.26771545 -0.2782135 0.5091858 -0.37794495 0.72966003c-0.102371216 0.22047424 -0.2782135 0.4881897 -0.5301819 0.8083954c-0.25196838 0.3175888 -0.443573 0.5695572 -0.58006287 0.75590515c-0.1338501 0.18373108 -0.3700714 0.46981812 -0.70602417 0.8556442c-0.3333435 0.3858261 -0.58006287 0.6640396 -0.72966003 0.8320236c-0.15223694 0.16797638 -0.43569946 0.47769165 -0.85565186 0.93175507c-0.42256165 0.45407104 -0.70866394 0.7637787 -0.8582611 0.9317627c-0.3543396 0.4041977 -0.77427673 0.8740158 -1.2624664 1.4120712c-0.4015808 0.45407104 -0.6535492 0.7480316 -0.75590515 0.88188934c-0.099746704 0.13385773 -0.14961243 0.26246643 -0.14961243 0.3805771l0 0.3018341l0 0.47769165l9.351715 0l0 -0.07611084c0.052490234 -0.06562042 0.17584229 -0.83727264 0.37532043 -2.3175888c0.20472717 -1.4776917 0.31233215 -2.2414703 0.32807922 -2.2939606l0 -0.07611847l-1.005249 0l0 0.07611847c-0.28608704 1.4619446 -0.4881897 2.2099686 -0.6062927 2.2440948c-0.16798401 0.083984375 -1.5695496 0.12598419 -4.2073517 0.12598419l-1.9186401 -0.026245117l1.4908142 -1.4120789c1.0735016 -1.0236206 1.9133911 -1.7952728 2.5170593 -2.3175812c0.87664795 -0.75590515 1.5459442 -1.3779526 2.015747 -1.8661423c0.47244263 -0.4881897 0.87664795 -1.0577469 1.2126007 -1.713913c0.3333435 -0.6561661 0.50131226 -1.3438339 0.50131226 -2.0682373c-0.01574707 -1.4934425 -0.5354309 -2.7112885 -1.561676 -3.6535454c-1.0236206 -0.9396324 -2.301834 -1.412075 -3.8293915 -1.412075z" fill-rule="evenodd"/><path stroke="#000000" stroke-width="0.026246719160104987" stroke-miterlimit="1.0866382" stroke-linecap="butt" d="m173.94489 59.125984c-1.3280945 0 -2.4356995 0.43832016 -3.32547 1.312336c-0.8950043 0.8740158 -1.3385773 1.9055138 -1.3385773 3.099739c0 0.43832016 0.13386536 0.8057747 0.40420532 1.1076088c0.26771545 0.30184174 0.6272888 0.45407104 1.0839844 0.45407104c0.4855652 -0.01574707 0.8635254 -0.1653595 1.1338654 -0.45407104c0.26771545 -0.28608704 0.40419006 -0.63517 0.40419006 -1.0577431c0 -0.5354309 -0.16009521 -0.92388153 -0.48031616 -1.1574783c-0.31758118 -0.23622131 -0.62991333 -0.35433197 -0.93174744 -0.35433197c-0.086624146 0 -0.12599182 -0.007873535 -0.12599182 -0.026245117c0 -0.049869537 0.083984375 -0.2099762 0.25196838 -0.47769165c0.16798401 -0.26771545 0.46194458 -0.54593277 0.881897 -0.8320198c0.41993713 -0.28609085 0.9055023 -0.43044662 1.4619293 -0.43044662c1.0577545 0 1.8740234 0.38845062 2.443573 1.1627312c0.57218933 0.7716522 0.85827637 1.687664 0.85827637 2.745407c0 0.3202057 -0.023620605 0.5958023 -0.0761261 0.832016c-0.052490234 0.2335968 -0.10760498 0.4881897 -0.17584229 0.75590515c-0.06562805 0.26772308 -0.17848206 0.53806305 -0.32809448 0.808403c-0.15222168 0.26771545 -0.2782135 0.5091858 -0.37794495 0.72966003c-0.102371216 0.22047424 -0.2782135 0.4881897 -0.5301819 0.8083954c-0.25196838 0.3175888 -0.443573 0.5695572 -0.58006287 0.75590515c-0.1338501 0.18373108 -0.3700714 0.46981812 -0.70602417 0.8556442c-0.3333435 0.3858261 -0.58006287 0.6640396 -0.72966003 0.8320236c-0.15223694 0.16797638 -0.43569946 0.47769165 -0.85565186 0.93175507c-0.42256165 0.45407104 -0.70866394 0.7637787 -0.8582611 0.9317627c-0.3543396 0.4041977 -0.77427673 0.8740158 -1.2624664 1.4120712c-0.4015808 0.45407104 -0.6535492 0.7480316 -0.75590515 0.88188934c-0.099746704 0.13385773 -0.14961243 0.26246643 -0.14961243 0.3805771l0 0.3018341l0 0.47769165l9.351715 0l0 -0.07611084c0.052490234 -0.06562042 0.17584229 -0.83727264 0.37532043 -2.3175888c0.20472717 -1.4776917 0.31233215 -2.2414703 0.32807922 -2.2939606l0 -0.07611847l-1.005249 0l0 0.07611847c-0.28608704 1.4619446 -0.4881897 2.2099686 -0.6062927 2.2440948c-0.16798401 0.083984375 -1.5695496 0.12598419 -4.2073517 0.12598419l-1.9186401 -0.026245117l1.4908142 -1.4120789c1.0735016 -1.0236206 1.9133911 -1.7952728 2.5170593 -2.3175812c0.87664795 -0.75590515 1.5459442 -1.3779526 2.015747 -1.8661423c0.47244263 -0.4881897 0.87664795 -1.0577469 1.2126007 -1.713913c0.3333435 -0.6561661 0.50131226 -1.3438339 0.50131226 -2.0682373c-0.01574707 -1.4934425 -0.5354309 -2.7112885 -1.561676 -3.6535454c-1.0236206 -0.9396324 -2.301834 -1.412075 -3.8293915 -1.412075z" fill-rule="evenodd"/><path fill="#000000" d="m183.34645 57.740158c-0.2992096 0 -0.5984192 0.115486145 -0.8976288 0.34907913c-0.31495667 0.24409485 -0.5380554 0.49868774 -0.6771698 0.7585335c-0.13647461 0.25984192 -0.27296448 0.5800514 -0.40945435 0.9606285c-0.1338501 0.3832016 -0.21783447 0.6430435 -0.24671936 0.77952576c-0.023620605 0.13648605 -0.0446167 0.24409485 -0.057739258 0.32546234c0 0.041992188 0.039367676 0.10235977 0.1207428 0.18372726l0.28608704 0c0.2335968 0 0.36219788 -0.03937149 0.3910675 -0.12073517c0 -0.015750885 0.039382935 -0.15748215 0.12336731 -0.43044662c0.33857727 -1.36483 0.7690277 -2.047245 1.2887115 -2.047245c0.3254547 0 0.4908142 0.26509094 0.4908142 0.80052567c0 0.24409485 -0.010498047 0.40157318 -0.020996094 0.4698143c-0.028869629 0.17585373 -0.3018341 1.2887154 -0.81889343 3.3333359c-0.51968384 2.0472412 -0.77690125 3.1601028 -0.77690125 3.338585c-0.01574707 0.052490234 0 0.12072754 0.039367676 0.20209503c0.041992188 0.08136749 0.115478516 0.16535187 0.22572327 0.24671936c0.11022949 0.08136749 0.25196838 0.12335968 0.43043518 0.12335968c0.40682983 0 0.7007904 -0.18634796 0.87664795 -0.5538025c0.068237305 -0.13648224 0.32807922 -1.0971146 0.77952576 -2.8845177l0.6771698 -2.7427826l0.14172363 -0.24409485c0.80314636 -1.3779526 1.7926483 -2.0682411 2.9685059 -2.0682411l0.099746704 0c0.6010437 0 0.9002533 0.401577 0.9002533 1.2073517c-0.013122559 0.69553757 -0.26509094 1.7322807 -0.75328064 3.1102333c-0.49343872 1.3779564 -0.7401581 2.1968498 -0.7401581 2.4566917c0 0.3963318 0.14698792 0.7769089 0.43045044 1.1469879c0.28608704 0.3674469 0.7506561 0.54855347 1.3910675 0.54855347c0.01838684 0 0.036758423 0.0026245117 0.055130005 0.0026245117c0.4855652 0 0.93699646 -0.18373108 1.3569489 -0.551178c0.43832397 -0.38320923 0.7506561 -0.7664108 0.94226074 -1.1469879c0.19160461 -0.3832016 0.34120178 -0.7716522 0.45144653 -1.1679764c0.052490234 -0.18897629 0.08135986 -0.2939644 0.08135986 -0.30708694c0 -0.10761261 -0.13648987 -0.16273117 -0.40945435 -0.16273117c-0.24671936 0 -0.38319397 0.05511856 -0.4094391 0.16273117c-0.1653595 0.6404228 -0.40420532 1.1863518 -0.719162 1.6377983c-0.31233215 0.4488144 -0.66667175 0.7086563 -1.0629883 0.77690125c-0.039382935 0.01574707 -0.102371216 0.020996094 -0.18110657 0.020996094c-0.23622131 0 -0.34909058 -0.17584991 -0.34909058 -0.5301819c-0.013122559 -0.30184174 0.24409485 -1.167984 0.7769165 -2.6010513c0.5328064 -1.4330711 0.7926483 -2.5013123 0.77690125 -3.212597c-0.013122559 -0.70866394 -0.24409485 -1.2493439 -0.6955414 -1.6167984c-0.45144653 -0.36745453 -1.0446167 -0.5538063 -1.7795258 -0.5538063c-1.0629883 0 -2.0131226 0.43832016 -2.8425293 1.312336l-0.22570801 0.22309494c-0.01576233 0 -0.023635864 -0.010498047 -0.023635864 -0.039367676c0 -0.06824112 -0.039367676 -0.21260071 -0.12335205 -0.43044662c-0.07873535 -0.21784973 -0.28346252 -0.4488182 -0.611557 -0.69291306c-0.32807922 -0.24934387 -0.7375183 -0.37270355 -1.2283325 -0.37270355c-0.013122559 0 -0.026260376 0 -0.042007446 0z" fill-rule="evenodd"/><path stroke="#000000" stroke-width="0.02099737532808399" stroke-miterlimit="1.0866382" stroke-linecap="butt" d="m183.34645 57.740158c-0.2992096 0 -0.5984192 0.115486145 -0.8976288 0.34907913c-0.31495667 0.24409485 -0.5380554 0.49868774 -0.6771698 0.7585335c-0.13647461 0.25984192 -0.27296448 0.5800514 -0.40945435 0.9606285c-0.1338501 0.3832016 -0.21783447 0.6430435 -0.24671936 0.77952576c-0.023620605 0.13648605 -0.0446167 0.24409485 -0.057739258 0.32546234c0 0.041992188 0.039367676 0.10235977 0.1207428 0.18372726l0.28608704 0c0.2335968 0 0.36219788 -0.03937149 0.3910675 -0.12073517c0 -0.015750885 0.039382935 -0.15748215 0.12336731 -0.43044662c0.33857727 -1.36483 0.7690277 -2.047245 1.2887115 -2.047245c0.3254547 0 0.4908142 0.26509094 0.4908142 0.80052567c0 0.24409485 -0.010498047 0.40157318 -0.020996094 0.4698143c-0.028869629 0.17585373 -0.3018341 1.2887154 -0.81889343 3.3333359c-0.51968384 2.0472412 -0.77690125 3.1601028 -0.77690125 3.338585c-0.01574707 0.052490234 0 0.12072754 0.039367676 0.20209503c0.041992188 0.08136749 0.115478516 0.16535187 0.22572327 0.24671936c0.11022949 0.08136749 0.25196838 0.12335968 0.43043518 0.12335968c0.40682983 0 0.7007904 -0.18634796 0.87664795 -0.5538025c0.068237305 -0.13648224 0.32807922 -1.0971146 0.77952576 -2.8845177l0.6771698 -2.7427826l0.14172363 -0.24409485c0.80314636 -1.3779526 1.7926483 -2.0682411 2.9685059 -2.0682411l0.099746704 0c0.6010437 0 0.9002533 0.401577 0.9002533 1.2073517c-0.013122559 0.69553757 -0.26509094 1.7322807 -0.75328064 3.1102333c-0.49343872 1.3779564 -0.7401581 2.1968498 -0.7401581 2.4566917c0 0.3963318 0.14698792 0.7769089 0.43045044 1.1469879c0.28608704 0.3674469 0.7506561 0.54855347 1.3910675 0.54855347c0.01838684 0 0.036758423 0.0026245117 0.055130005 0.0026245117c0.4855652 0 0.93699646 -0.18373108 1.3569489 -0.551178c0.43832397 -0.38320923 0.7506561 -0.7664108 0.94226074 -1.1469879c0.19160461 -0.3832016 0.34120178 -0.7716522 0.45144653 -1.1679764c0.052490234 -0.18897629 0.08135986 -0.2939644 0.08135986 -0.30708694c0 -0.10761261 -0.13648987 -0.16273117 -0.40945435 -0.16273117c-0.24671936 0 -0.38319397 0.05511856 -0.4094391 0.16273117c-0.1653595 0.6404228 -0.40420532 1.1863518 -0.719162 1.6377983c-0.31233215 0.4488144 -0.66667175 0.7086563 -1.0629883 0.77690125c-0.039382935 0.01574707 -0.102371216 0.020996094 -0.18110657 0.020996094c-0.23622131 0 -0.34909058 -0.17584991 -0.34909058 -0.5301819c-0.013122559 -0.30184174 0.24409485 -1.167984 0.7769165 -2.6010513c0.5328064 -1.4330711 0.7926483 -2.5013123 0.77690125 -3.212597c-0.013122559 -0.70866394 -0.24409485 -1.2493439 -0.6955414 -1.6167984c-0.45144653 -0.36745453 -1.0446167 -0.5538063 -1.7795258 -0.5538063c-1.0629883 0 -2.0131226 0.43832016 -2.8425293 1.312336l-0.22570801 0.22309494c-0.01576233 0 -0.023635864 -0.010498047 -0.023635864 -0.039367676c0 -0.06824112 -0.039367676 -0.21260071 -0.12335205 -0.43044662c-0.07873535 -0.21784973 -0.28346252 -0.4488182 -0.611557 -0.69291306c-0.32807922 -0.24934387 -0.7375183 -0.37270355 -1.2283325 -0.37270355c-0.013122559 0 -0.026260376 0 -0.042007446 0z" fill-rule="evenodd"/><path fill="#000000" d="m224.81364 3.6850393l0 21.461943l2.994751 0l0 -21.461943z" fill-rule="evenodd"/><path stroke="#000000" stroke-width="0.03674540682414698" stroke-miterlimit="1.0866" stroke-linecap="butt" d="m224.81364 3.6850393l0 21.461943l2.994751 0l0 -21.461943z" fill-rule="evenodd"/><path fill="#000000" d="m224.81364 23.61155l0 126.20472l2.994751 0l0 -126.20472z" fill-rule="evenodd"/><path stroke="#000000" stroke-width="0.15223097112860892" stroke-miterlimit="1.0866" stroke-linecap="butt" d="m224.81364 23.61155l0 126.20472l2.994751 0l0 -126.20472z" fill-rule="evenodd"/><path fill="#000000" d="m224.81364 148.28609l0 64.133865l12.370087 0l0 -2.994751l-9.375336 0l0 -61.139114z" fill-rule="evenodd"/><path stroke="#000000" stroke-width="0.03674540682414698" stroke-miterlimit="1.0866" stroke-linecap="butt" d="m224.81364 148.28609l0 64.133865l12.370087 0l0 -2.994751l-9.375336 0l0 -61.139114z" fill-rule="evenodd"/><path fill="#000000" d="m266.11548 12.900263c-0.036743164 0 -0.07873535 0.0052490234 -0.12597656 0.018372536c-0.09448242 0.02624607 -0.15484619 0.03674507 -0.1784668 0.03674507c-0.026245117 0 -0.06036377 0.010499001 -0.1076355 0.03412056c-0.0446167 0.026247025 -0.083984375 0.047244072 -0.10498047 0.070866585c-0.026245117 0.026247025 -0.049865723 0.060367584 -0.07086182 0.107611656c-0.026245117 0.047244072 -0.07348633 0.107611656 -0.14434814 0.17847729c-0.07086182 0.070866585 -0.13122559 0.14173222 -0.17849731 0.2125988c-2.8976135 3.4724407 -5.4067993 7.3097115 -7.5223083 11.517059c-2.1154785 4.20735 -3.803131 8.283466 -5.060364 12.228348c-1.2624664 3.9448814 -2.27034 8.223095 -3.0341187 12.83202c-0.75852966 4.6115494 -1.27034 8.797901 -1.5301819 12.551182c-0.26246643 3.755909 -0.41731262 7.808399 -0.4645691 12.157482c0.026245117 1.2125931 0.036758423 1.9238815 0.036758423 2.1391068c0 0.21260071 0.06036377 0.34383392 0.17584229 0.39107513c0.049865723 0.026245117 0.8687744 0.036743164 2.4619446 0.036743164c1.0209961 0 1.556427 -0.010498047 1.6036682 -0.036743164c0.09712219 -0.023620605 0.15223694 -0.1049881 0.17848206 -0.24934387c0.023620605 -0.14173126 0.034118652 -0.5958023 0.034118652 -1.354332c0 -12.477688 0.9160156 -23.27034 2.7480316 -32.37008c0.7847748 -3.8057709 1.7322845 -7.4278183 2.8503876 -10.87664c1.115509 -3.4435673 2.223114 -6.2624664 3.314972 -8.446192c1.0944824 -2.1889782 2.1154785 -4.1023636 3.0656128 -5.7427826c0.9527588 -1.6377964 1.7218018 -2.8740158 2.320221 -3.7060375c0.59317017 -0.82939625 0.8897705 -1.296588 0.8897705 -1.3884516c0 -0.07349014 -0.073516846 -0.1811018 -0.21524048 -0.322834l-0.85565186 0c-0.023620605 -0.013123512 -0.052490234 -0.018372536 -0.08660889 -0.018372536z" fill-rule="evenodd"/><path stroke="#000000" stroke-width="0.03674540682414698" stroke-miterlimit="1.0866" stroke-linecap="butt" d="m266.11548 12.900263c-0.036743164 0 -0.07873535 0.0052490234 -0.12597656 0.018372536c-0.09448242 0.02624607 -0.15484619 0.03674507 -0.1784668 0.03674507c-0.026245117 0 -0.06036377 0.010499001 -0.1076355 0.03412056c-0.0446167 0.026247025 -0.083984375 0.047244072 -0.10498047 0.070866585c-0.026245117 0.026247025 -0.049865723 0.060367584 -0.07086182 0.107611656c-0.026245117 0.047244072 -0.07348633 0.107611656 -0.14434814 0.17847729c-0.07086182 0.070866585 -0.13122559 0.14173222 -0.17849731 0.2125988c-2.8976135 3.4724407 -5.4067993 7.3097115 -7.5223083 11.517059c-2.1154785 4.20735 -3.803131 8.283466 -5.060364 12.228348c-1.2624664 3.9448814 -2.27034 8.223095 -3.0341187 12.83202c-0.75852966 4.6115494 -1.27034 8.797901 -1.5301819 12.551182c-0.26246643 3.755909 -0.41731262 7.808399 -0.4645691 12.157482c0.026245117 1.2125931 0.036758423 1.9238815 0.036758423 2.1391068c0 0.21260071 0.06036377 0.34383392 0.17584229 0.39107513c0.049865723 0.026245117 0.8687744 0.036743164 2.4619446 0.036743164c1.0209961 0 1.556427 -0.010498047 1.6036682 -0.036743164c0.09712219 -0.023620605 0.15223694 -0.1049881 0.17848206 -0.24934387c0.023620605 -0.14173126 0.034118652 -0.5958023 0.034118652 -1.354332c0 -12.477688 0.9160156 -23.27034 2.7480316 -32.37008c0.7847748 -3.8057709 1.7322845 -7.4278183 2.8503876 -10.87664c1.115509 -3.4435673 2.223114 -6.2624664 3.314972 -8.446192c1.0944824 -2.1889782 2.1154785 -4.1023636 3.0656128 -5.7427826c0.9527588 -1.6377964 1.7218018 -2.8740158 2.320221 -3.7060375c0.59317017 -0.82939625 0.8897705 -1.296588 0.8897705 -1.3884516c0 -0.07349014 -0.073516846 -0.1811018 -0.21524048 -0.322834l-0.85565186 0c-0.023620605 -0.013123512 -0.052490234 -0.018372536 -0.08660889 -0.018372536z" fill-rule="evenodd"/><path fill="#000000" d="m250.26772 75.76903c-1.6167908 0 -2.448822 0.034118652 -2.4960632 0.10236359l-0.14172363 0.41732025c-0.026260376 0.20735168 -0.036758423 10.782158 -0.036758423 31.724411l0 17.997375c0 8.45932 0.026245117 13.036743 0.070877075 13.72966c0.026245117 0.20735168 0.07086182 0.34907532 0.14172363 0.41732788c0.070877075 0.07086182 0.7506561 0.10498047 2.0341187 0.10498047c0.23622131 0.034118652 0.45669556 0.052490234 0.6587982 0.052490234c0.20210266 0 0.38583374 -0.018371582 0.5538025 -0.052490234c0.330719 -0.07086182 0.5590515 -0.10498047 0.6745453 -0.10498047l0.21522522 0c0.09710693 0 0.14172363 -4.713913 0.14172363 -14.146988l0 -35.992126c-0.020996094 -7.0734863 -0.034118652 -11.196846 -0.034118652 -12.377953c0 -1.1784744 -0.04724121 -1.7690277 -0.14172363 -1.7690277c0 -0.068244934 -0.06037903 -0.10236359 -0.18110657 -0.10236359z" fill-rule="evenodd"/><path stroke="#000000" stroke-width="0.07611548556430446" stroke-miterlimit="1.0866" stroke-linecap="butt" d="m250.26772 75.76903c-1.6167908 0 -2.448822 0.034118652 -2.4960632 0.10236359l-0.14172363 0.41732025c-0.026260376 0.20735168 -0.036758423 10.782158 -0.036758423 31.724411l0 17.997375c0 8.45932 0.026245117 13.036743 0.070877075 13.72966c0.026245117 0.20735168 0.07086182 0.34907532 0.14172363 0.41732788c0.070877075 0.07086182 0.7506561 0.10498047 2.0341187 0.10498047c0.23622131 0.034118652 0.45669556 0.052490234 0.6587982 0.052490234c0.20210266 0 0.38583374 -0.018371582 0.5538025 -0.052490234c0.330719 -0.07086182 0.5590515 -0.10498047 0.6745453 -0.10498047l0.21522522 0c0.09710693 0 0.14172363 -4.713913 0.14172363 -14.146988l0 -35.992126c-0.020996094 -7.0734863 -0.034118652 -11.196846 -0.034118652 -12.377953c0 -1.1784744 -0.04724121 -1.7690277 -0.14172363 -1.7690277c0 -0.068244934 -0.06037903 -0.10236359 -0.18110657 -0.10236359z" fill-rule="evenodd"/><path fill="#000000" d="m250.26772 138.72966c-1.6167908 0 -2.448822 0.013122559 -2.4960632 0.036743164c-0.11810303 0.04724121 -0.17848206 0.17848206 -0.17848206 0.39108276l0 2.1390991c0.070877075 3.611557 0.20210266 6.989502 0.39370728 10.125992c0.18635559 3.1364746 0.52230835 6.59317 0.9973755 10.372696c0.47244263 3.7795258 1.1286011 7.3700867 1.9606323 10.766403c0.832016 3.3989563 1.8792572 6.855652 3.1364746 10.375336c1.2598419 3.5170593 2.8294067 6.939636 4.7060547 10.267715c1.879242 3.3254547 4.0183716 6.4514465 6.4172974 9.37532c0.16799927 0.21260071 0.34384155 0.41732788 0.5354309 0.606308c0.023651123 0.023620605 0.25985718 0.034118652 0.7139282 0.034118652l0.6036682 0c0.14172363 -0.14173889 0.21524048 -0.24671936 0.21524048 -0.31758118c0 -0.09712219 -0.118133545 -0.3123474 -0.3569641 -0.64305115c-5.13385 -7.2729645 -8.887146 -15.900269 -11.265091 -25.881882c-2.3779602 -9.981628 -3.5669403 -21.986877 -3.5669403 -36.00789c0 -0.7611542 -0.010498047 -1.2125854 -0.034118652 -1.3543243c-0.026245117 -0.14173889 -0.08135986 -0.22572327 -0.17848206 -0.24934387c-0.04724121 -0.023620605 -0.5826721 -0.036743164 -1.6036682 -0.036743164z" fill-rule="evenodd"/><path stroke="#000000" stroke-width="0.03674540682414698" stroke-miterlimit="1.0866" stroke-linecap="butt" d="m250.26772 138.72966c-1.6167908 0 -2.448822 0.013122559 -2.4960632 0.036743164c-0.11810303 0.04724121 -0.17848206 0.17848206 -0.17848206 0.39108276l0 2.1390991c0.070877075 3.611557 0.20210266 6.989502 0.39370728 10.125992c0.18635559 3.1364746 0.52230835 6.59317 0.9973755 10.372696c0.47244263 3.7795258 1.1286011 7.3700867 1.9606323 10.766403c0.832016 3.3989563 1.8792572 6.855652 3.1364746 10.375336c1.2598419 3.5170593 2.8294067 6.939636 4.7060547 10.267715c1.879242 3.3254547 4.0183716 6.4514465 6.4172974 9.37532c0.16799927 0.21260071 0.34384155 0.41732788 0.5354309 0.606308c0.023651123 0.023620605 0.25985718 0.034118652 0.7139282 0.034118652l0.6036682 0c0.14172363 -0.14173889 0.21524048 -0.24671936 0.21524048 -0.31758118c0 -0.09712219 -0.118133545 -0.3123474 -0.3569641 -0.64305115c-5.13385 -7.2729645 -8.887146 -15.900269 -11.265091 -25.881882c-2.3779602 -9.981628 -3.5669403 -21.986877 -3.5669403 -36.00789c0 -0.7611542 -0.010498047 -1.2125854 -0.034118652 -1.3543243c-0.026245117 -0.14173889 -0.08135986 -0.22572327 -0.17848206 -0.24934387c-0.04724121 -0.023620605 -0.5826721 -0.036743164 -1.6036682 -0.036743164z" fill-rule="evenodd"/><path fill="#000000" d="m272.69028 106.96588l0 2.1391068l383.00003 0l0 -2.1391068z" fill-rule="evenodd"/><path fill="#000000" d="m458.20734 77.08662c-0.5170593 0 -1.0393677 0.20471954 -1.5590515 0.6115494c-0.54330444 0.4278183 -0.9370117 0.8661423 -1.1732178 1.3175812c-0.2414856 0.45144653 -0.47769165 1.0078735 -0.7138977 1.6745453c-0.23886108 0.6666641 -0.38320923 1.1154785 -0.42782593 1.3569489c-0.04724121 0.23622131 -0.08135986 0.42782593 -0.1076355 0.5695572c0 0.070869446 0.070892334 0.17584991 0.21261597 0.3202057l0.49868774 0c0.40682983 0 0.63253784 -0.07348633 0.67977905 -0.21521759c0 -0.023620605 0.07086182 -0.27296448 0.21524048 -0.7480316c0.59317017 -2.3779526 1.3411865 -3.5643082 2.2440796 -3.5643082c0.56954956 0 0.85565186 0.46194458 0.85565186 1.3884506c0 0.42782593 -0.013122559 0.7034149 -0.034118652 0.8215256c-0.049865723 0.30970764 -0.52493286 2.2440948 -1.4278259 5.81102c-0.90289307 3.5643082 -1.3543396 5.5013123 -1.3543396 5.8110275c-0.026245117 0.09449005 0 0.21522522 0.07086182 0.35695648c0.073516846 0.14435577 0.20474243 0.28608704 0.39108276 0.4278183c0.19161987 0.14435577 0.4409485 0.21522522 0.7506714 0.21522522c0.7138977 0 1.2230835 -0.32283783 1.5328064 -0.96588135c0.11810303 -0.23622131 0.56954956 -1.9133835 1.3543091 -5.0236206l1.1758728 -4.7769012l0.24932861 -0.42782593c1.4042053 -2.4015732 3.126007 -3.6036682 5.170624 -3.6036682l0.17584229 0c1.0472412 0 1.5695496 0.7034073 1.5695496 2.1049805c-0.023620605 1.2126007 -0.46194458 3.0183792 -1.3175964 5.4199524c-0.85562134 2.3989487 -1.2834473 3.8241425 -1.2834473 4.2782135c0 0.6876602 0.24932861 1.354332 0.74801636 1.994751c0.49868774 0.6430435 1.3097229 0.96325684 2.422577 0.96325684c0.034118652 0 0.06561279 0 0.099731445 0c0.8425293 0 1.6299438 -0.32283783 2.3622131 -0.96325684c0.7585449 -0.6666641 1.3070984 -1.3307114 1.6404114 -1.994751c0.330719 -0.66928864 0.5932007 -1.3438339 0.78479004 -2.0341187c0.09448242 -0.33071136 0.14172363 -0.5118103 0.14172363 -0.532814c0 -0.19159698 -0.23883057 -0.28608704 -0.7112732 -0.28608704c-0.42782593 0 -0.669281 0.09449005 -0.7139282 0.28608704c-0.28607178 1.1154861 -0.70077515 2.068245 -1.2493286 2.8503952c-0.54592896 0.7847824 -1.1627197 1.2362213 -1.8530273 1.3569565c-0.07348633 0.020996094 -0.1784668 0.034118652 -0.32019043 0.034118652c-0.40420532 0 -0.60894775 -0.30970764 -0.60894775 -0.92913055c-0.020996094 -0.51968384 0.42782593 -2.0288696 1.3569641 -4.524933c0.9265137 -2.4960632 1.3805847 -4.3622055 1.3543396 -5.598427c-0.023620605 -1.2362213 -0.42782593 -2.1732254 -1.212616 -2.8162766c-0.7847595 -0.640419 -1.8162537 -0.9632492 -3.0997314 -0.9632492c-1.8556519 0 -3.5065613 0.7611542 -4.958008 2.280838l-0.39108276 0.39369965c-0.023620605 0 -0.036743164 -0.023620605 -0.036743164 -0.07086182c0 -0.11811066 -0.07086182 -0.36745453 -0.21258545 -0.7506561c-0.14434814 -0.37795258 -0.49868774 -0.7821579 -1.0708618 -1.2099762c-0.56954956 -0.42782593 -1.2834778 -0.6430435 -2.1390991 -0.6430435c-0.026245117 0 -0.055145264 -0.0026245117 -0.08139038 -0.0026245117z" fill-rule="evenodd"/><path stroke="#000000" stroke-width="0.03674540682414698" stroke-miterlimit="1.0866" stroke-linecap="butt" d="m458.20734 77.08662c-0.5170593 0 -1.0393677 0.20471954 -1.5590515 0.6115494c-0.54330444 0.4278183 -0.9370117 0.8661423 -1.1732178 1.3175812c-0.2414856 0.45144653 -0.47769165 1.0078735 -0.7138977 1.6745453c-0.23886108 0.6666641 -0.38320923 1.1154785 -0.42782593 1.3569489c-0.04724121 0.23622131 -0.08135986 0.42782593 -0.1076355 0.5695572c0 0.070869446 0.070892334 0.17584991 0.21261597 0.3202057l0.49868774 0c0.40682983 0 0.63253784 -0.07348633 0.67977905 -0.21521759c0 -0.023620605 0.07086182 -0.27296448 0.21524048 -0.7480316c0.59317017 -2.3779526 1.3411865 -3.5643082 2.2440796 -3.5643082c0.56954956 0 0.85565186 0.46194458 0.85565186 1.3884506c0 0.42782593 -0.013122559 0.7034149 -0.034118652 0.8215256c-0.049865723 0.30970764 -0.52493286 2.2440948 -1.4278259 5.81102c-0.90289307 3.5643082 -1.3543396 5.5013123 -1.3543396 5.8110275c-0.026245117 0.09449005 0 0.21522522 0.07086182 0.35695648c0.073516846 0.14435577 0.20474243 0.28608704 0.39108276 0.4278183c0.19161987 0.14435577 0.4409485 0.21522522 0.7506714 0.21522522c0.7138977 0 1.2230835 -0.32283783 1.5328064 -0.96588135c0.11810303 -0.23622131 0.56954956 -1.9133835 1.3543091 -5.0236206l1.1758728 -4.7769012l0.24932861 -0.42782593c1.4042053 -2.4015732 3.126007 -3.6036682 5.170624 -3.6036682l0.17584229 0c1.0472412 0 1.5695496 0.7034073 1.5695496 2.1049805c-0.023620605 1.2126007 -0.46194458 3.0183792 -1.3175964 5.4199524c-0.85562134 2.3989487 -1.2834473 3.8241425 -1.2834473 4.2782135c0 0.6876602 0.24932861 1.354332 0.74801636 1.994751c0.49868774 0.6430435 1.3097229 0.96325684 2.422577 0.96325684c0.034118652 0 0.06561279 0 0.099731445 0c0.8425293 0 1.6299438 -0.32283783 2.3622131 -0.96325684c0.7585449 -0.6666641 1.3070984 -1.3307114 1.6404114 -1.994751c0.330719 -0.66928864 0.5932007 -1.3438339 0.78479004 -2.0341187c0.09448242 -0.33071136 0.14172363 -0.5118103 0.14172363 -0.532814c0 -0.19159698 -0.23883057 -0.28608704 -0.7112732 -0.28608704c-0.42782593 0 -0.669281 0.09449005 -0.7139282 0.28608704c-0.28607178 1.1154861 -0.70077515 2.068245 -1.2493286 2.8503952c-0.54592896 0.7847824 -1.1627197 1.2362213 -1.8530273 1.3569565c-0.07348633 0.020996094 -0.1784668 0.034118652 -0.32019043 0.034118652c-0.40420532 0 -0.60894775 -0.30970764 -0.60894775 -0.92913055c-0.020996094 -0.51968384 0.42782593 -2.0288696 1.3569641 -4.524933c0.9265137 -2.4960632 1.3805847 -4.3622055 1.3543396 -5.598427c-0.023620605 -1.2362213 -0.42782593 -2.1732254 -1.212616 -2.8162766c-0.7847595 -0.640419 -1.8162537 -0.9632492 -3.0997314 -0.9632492c-1.8556519 0 -3.5065613 0.7611542 -4.958008 2.280838l-0.39108276 0.39369965c-0.023620605 0 -0.036743164 -0.023620605 -0.036743164 -0.07086182c0 -0.11811066 -0.07086182 -0.36745453 -0.21258545 -0.7506561c-0.14434814 -0.37795258 -0.49868774 -0.7821579 -1.0708618 -1.2099762c-0.56954956 -0.42782593 -1.2834778 -0.6430435 -2.1390991 -0.6430435c-0.026245117 0 -0.055145264 -0.0026245117 -0.08139038 -0.0026245117z" fill-rule="evenodd"/><path fill="#000000" d="m661.7139 12.884515c-0.42785645 0 -0.6430664 0.13123322 -0.6430664 0.3910761l1.0708618 1.6036739c0.6168213 0.92913437 1.0813599 1.6535435 1.3911133 2.1732292c4.3936768 7.1076107 7.6167603 15.391075 9.658752 24.850391c2.0472412 9.45932 3.0682373 20.737534 3.0682373 33.832024c0 0.7611542 0.010498047 1.2126007 0.036743164 1.354332c0.020996094 0.14173126 0.08135986 0.22572327 0.17584229 0.25196838c0.049926758 0.020996094 0.58270264 0.034118652 1.6063232 0.034118652c1.5905762 0 2.4120483 -0.013122559 2.4593506 -0.034118652c0.14172363 -0.049873352 0.21258545 -0.18110657 0.21258545 -0.39369965l0 -2.1391144c-0.07086182 -3.6115417 -0.2020874 -6.98687 -0.39111328 -10.125984c-0.19158936 -3.1364784 -0.52490234 -6.593174 -0.9973755 -10.3727c-0.47766113 -3.7795296 -1.1286011 -7.370079 -1.9632568 -10.766403c-0.8293457 -3.3989525 -1.8765869 -6.855644 -3.1364746 -10.375328c-1.2572021 -3.5170612 -2.8267822 -6.9396343 -4.7059937 -10.267717c-1.876648 -3.3254604 -4.015747 -6.4514446 -6.4173584 -9.375328c-0.25982666 -0.33333397 -0.4277954 -0.52493477 -0.49865723 -0.5695543c-0.07086182 -0.049868584 -0.2598877 -0.07086563 -0.5695801 -0.07086563z" fill-rule="evenodd"/><path stroke="#000000" stroke-width="0.03674540682414698" stroke-miterlimit="1.0866" stroke-linecap="butt" d="m661.7139 12.884515c-0.42785645 0 -0.6430664 0.13123322 -0.6430664 0.3910761l1.0708618 1.6036739c0.6168213 0.92913437 1.0813599 1.6535435 1.3911133 2.1732292c4.3936768 7.1076107 7.6167603 15.391075 9.658752 24.850391c2.0472412 9.45932 3.0682373 20.737534 3.0682373 33.832024c0 0.7611542 0.010498047 1.2126007 0.036743164 1.354332c0.020996094 0.14173126 0.08135986 0.22572327 0.17584229 0.25196838c0.049926758 0.020996094 0.58270264 0.034118652 1.6063232 0.034118652c1.5905762 0 2.4120483 -0.013122559 2.4593506 -0.034118652c0.14172363 -0.049873352 0.21258545 -0.18110657 0.21258545 -0.39369965l0 -2.1391144c-0.07086182 -3.6115417 -0.2020874 -6.98687 -0.39111328 -10.125984c-0.19158936 -3.1364784 -0.52490234 -6.593174 -0.9973755 -10.3727c-0.47766113 -3.7795296 -1.1286011 -7.370079 -1.9632568 -10.766403c-0.8293457 -3.3989525 -1.8765869 -6.855644 -3.1364746 -10.375328c-1.2572021 -3.5170612 -2.8267822 -6.9396343 -4.7059937 -10.267717c-1.876648 -3.3254604 -4.015747 -6.4514446 -6.4173584 -9.375328c-0.25982666 -0.33333397 -0.4277954 -0.52493477 -0.49865723 -0.5695543c-0.07086182 -0.049868584 -0.2598877 -0.07086563 -0.5695801 -0.07086563z" fill-rule="evenodd"/><path fill="#000000" d="m678.9344 75.732285c-1.6168213 0 -2.451477 0.034118652 -2.4960938 0.1049881l-0.14172363 0.41732025c-0.026245117 0.20735168 -0.036743164 10.787399 -0.036743164 31.742783l0 18.005249c0 8.464569 0.023620605 13.044617 0.07086182 13.737534c0.023620605 0.20735168 0.07086182 0.34907532 0.14172363 0.41732788c0.07092285 0.07086182 0.7506714 0.10498047 2.0341797 0.10498047c0.23620605 0.034118652 0.45666504 0.052490234 0.65875244 0.052490234c0.2020874 0 0.38586426 -0.018371582 0.553833 -0.052490234c0.33068848 -0.07086182 0.559021 -0.10498047 0.6744995 -0.10498047l0.215271 0c0.09710693 0 0.14172363 -4.7165375 0.14172363 -14.154861l0 -36.010498c-0.023620605 -7.078743 -0.034118652 -11.204727 -0.034118652 -12.385826c0 -1.178482 -0.049865723 -1.7690277 -0.14172363 -1.7690277c0 -0.070869446 -0.06036377 -0.1049881 -0.18115234 -0.1049881z" fill-rule="evenodd"/><path stroke="#000000" stroke-width="0.07611548556430446" stroke-miterlimit="1.0866" stroke-linecap="butt" d="m678.9344 75.732285c-1.6168213 0 -2.451477 0.034118652 -2.4960938 0.1049881l-0.14172363 0.41732025c-0.026245117 0.20735168 -0.036743164 10.787399 -0.036743164 31.742783l0 18.005249c0 8.464569 0.023620605 13.044617 0.07086182 13.737534c0.023620605 0.20735168 0.07086182 0.34907532 0.14172363 0.41732788c0.07092285 0.07086182 0.7506714 0.10498047 2.0341797 0.10498047c0.23620605 0.034118652 0.45666504 0.052490234 0.65875244 0.052490234c0.2020874 0 0.38586426 -0.018371582 0.553833 -0.052490234c0.33068848 -0.07086182 0.559021 -0.10498047 0.6744995 -0.10498047l0.215271 0c0.09710693 0 0.14172363 -4.7165375 0.14172363 -14.154861l0 -36.010498c-0.023620605 -7.078743 -0.034118652 -11.204727 -0.034118652 -12.385826c0 -1.178482 -0.049865723 -1.7690277 -0.14172363 -1.7690277c0 -0.070869446 -0.06036377 -0.1049881 -0.18115234 -0.1049881z" fill-rule="evenodd"/><path fill="#000000" d="m678.5066 138.72966c-1.333374 0 -2.0236816 0.013122559 -2.0682983 0.036743164c-0.12072754 0.07086182 -0.1784668 0.6062927 -0.1784668 1.6036682c-0.023620605 13.094498 -1.0446167 24.375336 -3.0682373 33.83203c-2.0183716 9.45932 -5.2388306 17.742783 -9.658752 24.850388c-0.7375488 1.2335968 -1.4855957 2.3648376 -2.2467651 3.3858337c-0.14434814 0.23884583 -0.21520996 0.39369202 -0.21520996 0.4645691c0 0.21258545 0.22570801 0.31758118 0.6798096 0.31758118l0.39105225 0c0.26245117 0 0.42785645 -0.020996094 0.49871826 -0.07086182c0.07086182 -0.044631958 0.23883057 -0.23622131 0.49865723 -0.5695648c2.9002686 -3.4671936 5.4068604 -7.307083 7.5249634 -11.514435c2.112854 -4.2073517 3.800476 -8.280838 5.060364 -12.228348c1.2598267 -3.94487 2.2703247 -8.223099 3.0288696 -12.8346405c0.76116943 -4.608917 1.2729492 -8.792648 1.5354004 -12.548553c0.2598877 -3.7532806 0.4173584 -7.805771 0.4619751 -12.157486c-0.023620605 -1.2099762 -0.034118652 -1.9238892 -0.034118652 -2.1390991c0 -0.21260071 -0.06036377 -0.34384155 -0.1784668 -0.39108276c-0.047302246 -0.023620605 -0.72442627 -0.036743164 -2.0314941 -0.036743164z" fill-rule="evenodd"/><path stroke="#000000" stroke-width="0.03674540682414698" stroke-miterlimit="1.0866" stroke-linecap="butt" d="m678.5066 138.72966c-1.333374 0 -2.0236816 0.013122559 -2.0682983 0.036743164c-0.12072754 0.07086182 -0.1784668 0.6062927 -0.1784668 1.6036682c-0.023620605 13.094498 -1.0446167 24.375336 -3.0682373 33.83203c-2.0183716 9.45932 -5.2388306 17.742783 -9.658752 24.850388c-0.7375488 1.2335968 -1.4855957 2.3648376 -2.2467651 3.3858337c-0.14434814 0.23884583 -0.21520996 0.39369202 -0.21520996 0.4645691c0 0.21258545 0.22570801 0.31758118 0.6798096 0.31758118l0.39105225 0c0.26245117 0 0.42785645 -0.020996094 0.49871826 -0.07086182c0.07086182 -0.044631958 0.23883057 -0.23622131 0.49865723 -0.5695648c2.9002686 -3.4671936 5.4068604 -7.307083 7.5249634 -11.514435c2.112854 -4.2073517 3.800476 -8.280838 5.060364 -12.228348c1.2598267 -3.94487 2.2703247 -8.223099 3.0288696 -12.8346405c0.76116943 -4.608917 1.2729492 -8.792648 1.5354004 -12.548553c0.2598877 -3.7532806 0.4173584 -7.805771 0.4619751 -12.157486c-0.023620605 -1.2099762 -0.034118652 -1.9238892 -0.034118652 -2.1390991c0 -0.21260071 -0.06036377 -0.34384155 -0.1784668 -0.39108276c-0.047302246 -0.023620605 -0.72442627 -0.036743164 -2.0314941 -0.036743164z" fill-rule="evenodd"/><path fill="#000000" d="m744.4934 3.6850393l0 21.461943l2.994751 0l0 -21.461943z" fill-rule="evenodd"/><path stroke="#000000" stroke-width="0.03674540682414698" stroke-miterlimit="1.0866" stroke-linecap="butt" d="m744.4934 3.6850393l0 21.461943l2.994751 0l0 -21.461943z" fill-rule="evenodd"/><path fill="#000000" d="m744.4934 23.61155l0 126.20472l2.994751 0l0 -126.20472z" fill-rule="evenodd"/><path stroke="#000000" stroke-width="0.15223097112860892" stroke-miterlimit="1.0866" stroke-linecap="butt" d="m744.4934 23.61155l0 126.20472l2.994751 0l0 -126.20472z" fill-rule="evenodd"/><path fill="#000000" d="m744.4934 148.28609l0 61.139114l-9.372681 0l0 2.994751l12.367432 0l0 -64.133865z" fill-rule="evenodd"/><path stroke="#000000" stroke-width="0.03674540682414698" stroke-miterlimit="1.0866" stroke-linecap="butt" d="m744.4934 148.28609l0 61.139114l-9.372681 0l0 2.994751l12.367432 0l0 -64.133865z" fill-rule="evenodd"/></g></svg>