<svg version="1.1" viewBox="0.0 0.0 935.0603674540682 410.90551181102364" fill="none" stroke="none" stroke-linecap="square" stroke-miterlimit="10" xmlns:xlink="http://www.w3.org/1999/xlink" xmlns="http://www.w3.org/2000/svg"><clipPath id="p.0"><path d="m0 0l935.06036 0l0 410.90552l-935.06036 0l0 -410.90552z" clip-rule="nonzero"/></clipPath><g clip-path="url(#p.0)"><path fill="#000000" fill-opacity="0.0" d="m0 0l935.06036 0l0 410.90552l-935.06036 0z" fill-rule="evenodd"/><path fill="#000000" fill-opacity="0.0" d="m20.83727 383.97375c104.1811 0 156.27165 -93.763794 208.36221 -187.52756c52.09056 -93.76379 104.18111 -187.52756 208.3622 -187.52756" fill-rule="evenodd"/><path stroke="#434343" stroke-width="8.0" stroke-linejoin="round" stroke-linecap="butt" d="m20.83727 383.97375c104.1811 0 156.27165 -93.763794 208.36221 -187.52756c52.09056 -93.76379 104.18111 -187.52756 208.3622 -187.52756" fill-rule="evenodd"/><path fill="#000000" fill-opacity="0.0" d="m430.61154 8.926509c124.14963 0 186.2244 97.527565 248.29922 195.05511c62.074768 97.52756 124.1496 195.05511 248.2992 195.05511" fill-rule="evenodd"/><path stroke="#434343" stroke-width="8.0" stroke-linejoin="round" stroke-linecap="butt" d="m430.61154 8.926509c124.14963 0 186.2244 97.527565 248.29922 195.05511c62.074768 97.52756 124.1496 195.05511 248.2992 195.05511" fill-rule="evenodd"/><path fill="#000000" fill-opacity="0.0" d="m0 298.7979l137.76378 0l0 51.716522l-137.76378 0z" fill-rule="evenodd"/><path fill="#000000" d="m16.59375 333.6635q-1.359375 0 -2.53125 -0.484375q-1.171875 -0.5 -2.0625 -1.53125q-0.890625 -1.046875 -1.40625 -2.640625q-0.5 -1.609375 -0.5 -3.8125q0 -1.953125 0.375 -3.40625q0.375 -1.453125 1.015625 -2.4375q0.640625 -0.984375 1.453125 -1.5625q0.828125 -0.59375 1.734375 -0.859375q0.90625 -0.265625 1.8125 -0.265625q1.8125 0 3.09375 0.890625q1.28125 0.890625 1.921875 2.375l-1.59375 0.75l-0.25 0.109375l-0.078125 -0.1875q0.078125 -0.21875 0 -0.390625q-0.078125 -0.171875 -0.28125 -0.546875q-0.671875 -0.90625 -1.390625 -1.203125q-0.703125 -0.3125 -1.46875 -0.3125q-1.046875 0 -1.890625 0.46875q-0.828125 0.46875 -1.4375 1.359375q-0.59375 0.890625 -0.90625 2.171875q-0.296875 1.28125 -0.296875 2.90625q0 1.578125 0.359375 2.859375q0.359375 1.265625 0.984375 2.203125q0.625 0.9375 1.46875 1.453125q0.84375 0.5 1.796875 0.5q0.671875 0 1.296875 -0.234375q0.625 -0.25 1.15625 -0.71875q0.53125 -0.46875 0.90625 -1.078125l1.390625 0.90625q-0.796875 1.328125 -1.921875 2.03125q-1.125 0.6875 -2.75 0.6875l0 0zm12.390579 -0.046875q-1.640625 0 -2.90625 -0.8125q-1.265625 -0.8125 -1.984375 -2.234375q-0.71875 -1.4375 -0.71875 -3.28125q0 -1.859375 0.71875 -3.28125q0.71875 -1.4375 1.984375 -2.25q1.265625 -0.8125 2.90625 -0.8125q1.65625 0 2.921875 0.8125q1.265625 0.8125 1.984375 2.25q0.71875 1.421875 0.71875 3.28125q0 1.84375 -0.71875 3.28125q-0.71875 1.421875 -1.984375 2.234375q-1.265625 0.8125 -2.921875 0.8125zm0 -1.609375q1.078125 0 1.875 -0.609375q0.796875 -0.609375 1.265625 -1.671875q0.46875 -1.078125 0.46875 -2.453125q0 -1.390625 -0.46875 -2.453125q-0.46875 -1.078125 -1.265625 -1.671875q-0.796875 -0.59375 -1.875 -0.59375q-1.03125 0 -1.84375 0.59375q-0.8125 0.59375 -1.28125 1.671875q-0.46875 1.0625 -0.46875 2.453125q0 1.375 0.46875 2.453125q0.46875 1.0625 1.28125 1.671875q0.8125 0.609375 1.84375 0.609375zm8.593704 1.390625l0 -12.1875l1.859375 0l0 2.171875q0.484375 -0.75 1.125 -1.296875q0.640625 -0.546875 1.40625 -0.84375q0.78125 -0.3125 1.609375 -0.3125q1.015625 0 1.8125 0.5q0.796875 0.5 1.265625 1.625q0.484375 1.125 0.484375 2.953125l0 7.390625l-1.859375 0l0 -7.328125q0 -1.28125 -0.296875 -2.03125q-0.296875 -0.765625 -0.796875 -1.09375q-0.5 -0.34375 -1.140625 -0.34375q-0.625 0 -1.25 0.265625q-0.625 0.265625 -1.15625 0.765625q-0.53125 0.484375 -0.875 1.1875q-0.328125 0.6875 -0.328125 1.5625l0 7.015625l-1.859375 0zm19.374954 0.1875q-1.171875 0 -1.921875 -0.390625q-0.75 -0.40625 -1.15625 -1.25q-0.390625 -0.84375 -0.515625 -2.109375q-0.109375 -1.28125 -0.0625 -3.046875l0.328125 -8.6875l2.0 -0.25l0.265625 -0.015625l0.03125 0.1875q-0.140625 0.1875 -0.234375 0.375q-0.09375 0.171875 -0.140625 0.625l-0.25 3.015625l0.078125 0.484375l-0.1875 4.390625q-0.078125 2.03125 0.109375 3.140625q0.1875 1.109375 0.671875 1.53125q0.484375 0.40625 1.28125 0.40625q0.875 0 1.546875 -0.34375q0.6875 -0.359375 1.4375 -0.890625l0.578125 1.515625q-0.90625 0.671875 -1.859375 1.0q-0.953125 0.3125 -2.0 0.3125l0 0zm-6.109375 -12.375l8.78125 0l0 1.578125l-8.78125 0l0 -1.578125zm18.718704 12.453125q-1.328125 0 -2.421875 -0.40625q-1.09375 -0.421875 -1.890625 -1.21875q-0.78125 -0.796875 -1.203125 -1.984375q-0.421875 -1.1875 -0.421875 -2.703125q0 -1.546875 0.4375 -2.75q0.4375 -1.203125 1.1875 -2.015625q0.765625 -0.8125 1.78125 -1.234375q1.03125 -0.421875 2.1875 -0.421875q1.03125 0 1.9375 0.34375q0.90625 0.34375 1.578125 1.046875q0.671875 0.703125 1.046875 1.796875q0.390625 1.09375 0.390625 2.59375q0 0.203125 -0.015625 0.4375q-0.015625 0.21875 -0.03125 0.4375l-8.671875 0q0.0625 1.171875 0.40625 2.046875q0.34375 0.859375 0.90625 1.40625q0.5625 0.546875 1.296875 0.8125q0.734375 0.265625 1.546875 0.265625q0.640625 0 1.203125 -0.140625q0.5625 -0.15625 1.046875 -0.453125q0.5 -0.3125 0.90625 -0.765625l1.0625 1.046875q-0.5 0.609375 -1.15625 1.03125q-0.65625 0.421875 -1.4375 0.625q-0.765625 0.203125 -1.671875 0.203125zm-4.03125 -7.5625l6.703125 0q0 -0.859375 -0.234375 -1.53125q-0.21875 -0.6875 -0.640625 -1.171875q-0.40625 -0.5 -0.984375 -0.75q-0.578125 -0.265625 -1.296875 -0.265625q-0.640625 0 -1.21875 0.21875q-0.5625 0.21875 -1.046875 0.6875q-0.46875 0.453125 -0.8125 1.15625q-0.328125 0.6875 -0.46875 1.65625zm11.359329 7.296875l4.296875 -6.1875l-4.21875 -6.0l2.109375 0l3.171875 4.515625l3.046875 -4.515625l1.96875 0l-3.953125 5.921875l4.484375 6.265625l-2.1875 0l-3.359375 -4.75l-3.171875 4.75l-2.1875 0zm20.04683 0.1875q-1.171875 0 -1.921875 -0.390625q-0.75 -0.40625 -1.15625 -1.25q-0.390625 -0.84375 -0.515625 -2.109375q-0.109375 -1.28125 -0.0625 -3.046875l0.328125 -8.6875l2.0 -0.25l0.265625 -0.015625l0.03125 0.1875q-0.140625 0.1875 -0.234375 0.375q-0.09375 0.171875 -0.140625 0.625l-0.25 3.015625l0.078125 0.484375l-0.1875 4.390625q-0.078125 2.03125 0.109375 3.140625q0.1875 1.109375 0.671875 1.53125q0.484375 0.40625 1.28125 0.40625q0.875 0 1.546875 -0.34375q0.6875 -0.359375 1.4375 -0.890625l0.578125 1.515625q-0.90625 0.671875 -1.859375 1.0q-0.953125 0.3125 -2.0 0.3125l0 0zm-6.109375 -12.375l8.78125 0l0 1.578125l-8.78125 0l0 -1.578125zm18.718704 12.453125q-1.328125 0 -2.421875 -0.40625q-1.09375 -0.421875 -1.890625 -1.21875q-0.78125 -0.796875 -1.203125 -1.984375q-0.421875 -1.1875 -0.421875 -2.703125q0 -1.546875 0.4375 -2.75q0.4375 -1.203125 1.1875 -2.015625q0.765625 -0.8125 1.78125 -1.234375q1.03125 -0.421875 2.1875 -0.421875q1.03125 0 1.9375 0.34375q0.90625 0.34375 1.578125 1.046875q0.671875 0.703125 1.046875 1.796875q0.390625 1.09375 0.390625 2.59375q0 0.203125 -0.015625 0.4375q-0.015625 0.21875 -0.03125 0.4375l-8.671875 0q0.0625 1.171875 0.40625 2.046875q0.34375 0.859375 0.90625 1.40625q0.5625 0.546875 1.296875 0.8125q0.734375 0.265625 1.546875 0.265625q0.640625 0 1.203125 -0.140625q0.5625 -0.15625 1.046875 -0.453125q0.5 -0.3125 0.90625 -0.765625l1.0625 1.046875q-0.5 0.609375 -1.15625 1.03125q-0.65625 0.421875 -1.4375 0.625q-0.765625 0.203125 -1.671875 0.203125zm-4.03125 -7.5625l6.703125 0q0 -0.859375 -0.234375 -1.53125q-0.21875 -0.6875 -0.640625 -1.171875q-0.40625 -0.5 -0.984375 -0.75q-0.578125 -0.265625 -1.296875 -0.265625q-0.640625 0 -1.21875 0.21875q-0.5625 0.21875 -1.046875 0.6875q-0.46875 0.453125 -0.8125 1.15625q-0.328125 0.6875 -0.46875 1.65625z" fill-rule="nonzero"/><path fill="#000000" fill-opacity="0.0" d="m216.25722 214.7664l171.9055 0l0 51.716537l-171.9055 0z" fill-rule="evenodd"/><path fill="#000000" d="m226.83534 249.36641l0 -16.609375l5.328125 0q1.859375 0 3.0 0.640625q1.15625 0.640625 1.703125 1.703125q0.546875 1.046875 0.546875 2.34375q0 0.96875 -0.296875 1.796875q-0.296875 0.828125 -0.921875 1.46875q-0.625 0.625 -1.59375 0.984375q-0.953125 0.34375 -2.3125 0.34375l-3.546875 0l0 7.328125l-1.90625 0zm1.90625 -8.984375l3.34375 0q1.21875 0 1.96875 -0.359375q0.75 -0.359375 1.09375 -1.015625q0.34375 -0.65625 0.34375 -1.5q0 -0.828125 -0.34375 -1.484375q-0.34375 -0.671875 -1.09375 -1.078125q-0.75 -0.421875 -1.953125 -0.421875l-3.359375 0l0 5.859375zm17.093704 9.25q-1.328125 0 -2.421875 -0.40625q-1.09375 -0.421875 -1.890625 -1.21875q-0.78125 -0.796875 -1.203125 -1.984375q-0.421875 -1.1875 -0.421875 -2.703125q0 -1.546875 0.4375 -2.75q0.4375 -1.203125 1.1875 -2.015625q0.765625 -0.8125 1.78125 -1.234375q1.03125 -0.421875 2.1875 -0.421875q1.03125 0 1.9375 0.34375q0.90625 0.34375 1.578125 1.046875q0.671875 0.703125 1.046875 1.796875q0.390625 1.09375 0.390625 2.59375q0 0.203125 -0.015625 0.4375q-0.015625 0.21875 -0.03125 0.4375l-8.671875 0q0.0625 1.171875 0.40625 2.046875q0.34375 0.859375 0.90625 1.40625q0.5625 0.546875 1.296875 0.8125q0.734375 0.265625 1.546875 0.265625q0.640625 0 1.203125 -0.140625q0.5625 -0.15625 1.046875 -0.453125q0.5 -0.3125 0.90625 -0.765625l1.0625 1.046875q-0.5 0.609375 -1.15625 1.03125q-0.65625 0.421875 -1.4375 0.625q-0.765625 0.203125 -1.671875 0.203125zm-4.03125 -7.5625l6.703125 0q0 -0.859375 -0.234375 -1.53125q-0.21875 -0.6875 -0.640625 -1.171875q-0.40625 -0.5 -0.984375 -0.75q-0.578125 -0.265625 -1.296875 -0.265625q-0.640625 0 -1.21875 0.21875q-0.5625 0.21875 -1.046875 0.6875q-0.46875 0.453125 -0.8125 1.15625q-0.328125 0.6875 -0.46875 1.65625zm3.515625 -6.21875l-1.015625 -0.6875l2.25 -3.96875l1.46875 1.0625l-2.703125 3.59375zm9.765579 1.328125l2.0000153 0l-0.078125 3.546875l-0.25 -0.390625q0.171875 -0.828125 0.5625 -1.46875q0.40625 -0.640625 0.96875 -1.078125q0.5625 -0.4375 1.21875 -0.65625q0.671875 -0.234375 1.390625 -0.234375q0.953125 0 1.765625 0.328125q0.8125 0.328125 1.453125 1.0l-0.84375 1.484375l-0.109375 0.25l-0.1875 -0.109375q-0.046875 -0.21875 -0.15625 -0.40625q-0.109375 -0.1875 -0.453125 -0.453125q-0.4375 -0.265625 -0.796875 -0.359375q-0.359375 -0.09375 -0.8125 -0.09375q-0.65625 0 -1.328125 0.265625q-0.671875 0.25 -1.21875 0.78125q-0.546875 0.53125 -0.859375 1.359375q-0.3125 0.828125 -0.3125 1.96875l0 6.484375l-1.9531403 0l0 -12.21875zm12.828079 12.1875l0 -1.546875l3.109375 0l0 -9.09375l-2.953125 0l0 -1.546875l4.875 0l0 10.640625l2.859375 0l0 1.546875l-7.890625 0zm3.953125 -14.734375q-0.5625 0 -0.96875 -0.40625q-0.390625 -0.40625 -0.390625 -0.953125q0 -0.59375 0.390625 -0.984375q0.390625 -0.40625 0.96875 -0.40625q0.5625 0 0.96875 0.421875q0.421875 0.40625 0.421875 0.96875q0 0.546875 -0.421875 0.953125q-0.40625 0.40625 -0.96875 0.40625zm8.2968445 19.1875l0 -16.640625l1.953125 0l0 2.40625q0.296875 -0.9375 0.84375 -1.515625q0.546875 -0.59375 1.265625 -0.875q0.734375 -0.28125 1.59375 -0.28125q1.015625 0 1.9375 0.390625q0.921875 0.390625 1.625 1.171875q0.703125 0.765625 1.109375 1.9375q0.421875 1.171875 0.421875 2.765625q0 1.609375 -0.4375 2.84375q-0.4375 1.21875 -1.171875 2.03125q-0.734375 0.8125 -1.65625 1.21875q-0.921875 0.40625 -1.875 0.40625q-0.71875 0 -1.40625 -0.234375q-0.671875 -0.21875 -1.234375 -0.65625q-0.5625 -0.4375 -0.984375 -1.015625l0 6.046875l-1.984375 0zm5.28125 -5.84375q0.640625 0 1.25 -0.21875q0.625 -0.234375 1.125 -0.765625q0.5 -0.53125 0.796875 -1.453125q0.296875 -0.921875 0.296875 -2.28125q0 -1.46875 -0.375 -2.484375q-0.375 -1.03125 -1.078125 -1.59375q-0.703125 -0.5625 -1.71875 -0.609375q-0.75 -0.046875 -1.40625 0.21875q-0.640625 0.265625 -1.15625 0.875q-0.5 0.609375 -0.78125 1.609375q-0.28125 1.0 -0.28125 2.421875q0.03125 0.84375 0.1875 1.546875q0.15625 0.6875 0.453125 1.203125q0.296875 0.515625 0.6875 0.859375q0.40625 0.328125 0.90625 0.5q0.515625 0.171875 1.09375 0.171875zm13.703064 1.65625q-1.328125 0 -2.421875 -0.40625q-1.09375 -0.421875 -1.890625 -1.21875q-0.78125 -0.796875 -1.203125 -1.984375q-0.421875 -1.1875 -0.421875 -2.703125q0 -1.546875 0.4375 -2.75q0.4375 -1.203125 1.1875 -2.015625q0.765625 -0.8125 1.78125 -1.234375q1.03125 -0.421875 2.1875 -0.421875q1.03125 0 1.9375 0.34375q0.90625 0.34375 1.578125 1.046875q0.671875 0.703125 1.046875 1.796875q0.390625 1.09375 0.390625 2.59375q0 0.203125 -0.015625 0.4375q-0.015625 0.21875 -0.03125 0.4375l-8.671875 0q0.0625 1.171875 0.40625 2.046875q0.34375 0.859375 0.90625 1.40625q0.5625 0.546875 1.296875 0.8125q0.734375 0.265625 1.546875 0.265625q0.640625 0 1.203125 -0.140625q0.5625 -0.15625 1.046875 -0.453125q0.5 -0.3125 0.90625 -0.765625l1.0625 1.046875q-0.5 0.609375 -1.15625 1.03125q-0.65625 0.421875 -1.4375 0.625q-0.765625 0.203125 -1.671875 0.203125zm-4.03125 -7.5625l6.703125 0q0 -0.859375 -0.234375 -1.53125q-0.21875 -0.6875 -0.640625 -1.171875q-0.40625 -0.5 -0.984375 -0.75q-0.578125 -0.265625 -1.296875 -0.265625q-0.640625 0 -1.21875 0.21875q-0.5625 0.21875 -1.046875 0.6875q-0.46875 0.453125 -0.8125 1.15625q-0.328125 0.6875 -0.46875 1.65625zm3.515625 -6.21875l-1.015625 -0.6875l2.25 -3.96875l1.46875 1.0625l-2.703125 3.59375zm14.5624695 13.703125q-1.171875 0 -1.921875 -0.390625q-0.75 -0.40625 -1.15625 -1.25q-0.390625 -0.84375 -0.515625 -2.109375q-0.109375 -1.28125 -0.0625 -3.046875l0.328125 -8.6875l2.0 -0.25l0.265625 -0.015625l0.03125 0.1875q-0.140625 0.1875 -0.234375 0.375q-0.09375 0.171875 -0.140625 0.625l-0.25 3.015625l0.078125 0.484375l-0.1875 4.390625q-0.078125 2.03125 0.109375 3.140625q0.1875 1.109375 0.671875 1.53125q0.484375 0.40625 1.28125 0.40625q0.875 0 1.546875 -0.34375q0.6875 -0.359375 1.4375 -0.890625l0.578125 1.515625q-0.90625 0.671875 -1.859375 1.0q-0.953125 0.3125 -2.0 0.3125l0 0zm-6.109375 -12.375l8.78125 0l0 1.578125l-8.78125 0l0 -1.578125zm14.140564 12.1875l0 -1.546875l3.109375 0l0 -9.09375l-2.953125 0l0 -1.546875l4.875 0l0 10.640625l2.859375 0l0 1.546875l-7.890625 0zm3.953125 -14.734375q-0.5625 0 -0.96875 -0.40625q-0.390625 -0.40625 -0.390625 -0.953125q0 -0.59375 0.390625 -0.984375q0.390625 -0.40625 0.96875 -0.40625q0.5625 0 0.96875 0.421875q0.421875 0.40625 0.421875 0.96875q0 0.546875 -0.421875 0.953125q-0.40625 0.40625 -0.96875 0.40625zm13.9530945 15.0q-1.328125 0 -2.421875 -0.40625q-1.09375 -0.421875 -1.890625 -1.21875q-0.78125 -0.796875 -1.203125 -1.984375q-0.421875 -1.1875 -0.421875 -2.703125q0 -1.546875 0.4375 -2.75q0.4375 -1.203125 1.1875 -2.015625q0.765625 -0.8125 1.78125 -1.234375q1.03125 -0.421875 2.1875 -0.421875q1.03125 0 1.9375 0.34375q0.90625 0.34375 1.578125 1.046875q0.671875 0.703125 1.046875 1.796875q0.390625 1.09375 0.390625 2.59375q0 0.203125 -0.015625 0.4375q-0.015625 0.21875 -0.03125 0.4375l-8.671875 0q0.0625 1.171875 0.40625 2.046875q0.34375 0.859375 0.90625 1.40625q0.5625 0.546875 1.296875 0.8125q0.734375 0.265625 1.546875 0.265625q0.640625 0 1.203125 -0.140625q0.5625 -0.15625 1.046875 -0.453125q0.5 -0.3125 0.90625 -0.765625l1.0625 1.046875q-0.5 0.609375 -1.15625 1.03125q-0.65625 0.421875 -1.4375 0.625q-0.765625 0.203125 -1.671875 0.203125zm-4.03125 -7.5625l6.703125 0q0 -0.859375 -0.234375 -1.53125q-0.21875 -0.6875 -0.640625 -1.171875q-0.40625 -0.5 -0.984375 -0.75q-0.578125 -0.265625 -1.296875 -0.265625q-0.640625 0 -1.21875 0.21875q-0.5625 0.21875 -1.046875 0.6875q-0.46875 0.453125 -0.8125 1.15625q-0.328125 0.6875 -0.46875 1.65625zm16.796814 7.5625q-1.015625 0 -1.9375 -0.21875q-0.90625 -0.203125 -1.71875 -0.625q-0.8125 -0.4375 -1.515625 -1.078125l1.0625 -1.8125l0.171875 -0.234375l0.15625 0.109375q0.046875 0.203125 0.109375 0.4375q0.078125 0.21875 0.375 0.546875q0.546875 0.5625 1.328125 0.921875q0.796875 0.359375 2.03125 0.359375q0.984375 0 1.65625 -0.234375q0.6875 -0.25 1.0625 -0.6875q0.375 -0.4375 0.375 -1.03125q0 -0.390625 -0.171875 -0.703125q-0.15625 -0.3125 -0.515625 -0.578125q-0.359375 -0.265625 -0.953125 -0.53125q-0.578125 -0.265625 -1.4375 -0.53125q-1.375 -0.40625 -2.421875 -0.9375q-1.03125 -0.53125 -1.59375 -1.234375q-0.5625 -0.703125 -0.5625 -1.609375q0 -0.9375 0.5 -1.609375q0.515625 -0.6875 1.515625 -1.0625q1.0 -0.390625 2.453125 -0.390625q0.859375 0 1.546875 0.125q0.703125 0.109375 1.28125 0.359375q0.59375 0.234375 1.078125 0.59375q0.5 0.359375 0.953125 0.828125l-1.09375 1.34375l-0.1875 0.203125l-0.125 -0.125q-0.03125 -0.21875 -0.125 -0.40625q-0.09375 -0.203125 -0.390625 -0.5q-0.609375 -0.484375 -1.390625 -0.734375q-0.765625 -0.25 -1.484375 -0.25q-1.0625 0 -1.84375 0.375q-0.765625 0.359375 -0.765625 1.140625q0 0.40625 0.28125 0.796875q0.28125 0.375 1.015625 0.765625q0.75 0.375 2.140625 0.78125q1.515625 0.484375 2.4375 0.984375q0.921875 0.484375 1.328125 1.125q0.421875 0.640625 0.421875 1.515625q0 1.015625 -0.546875 1.90625q-0.546875 0.875 -1.671875 1.390625q-1.125 0.515625 -2.828125 0.515625l0 0z" fill-rule="nonzero"/><path fill="#000000" fill-opacity="0.0" d="m359.59055 37.45669l137.7638 0l0 51.716534l-137.7638 0z" fill-rule="evenodd"/><path fill="#000000" d="m376.1843 72.32232q-1.359375 0 -2.53125 -0.484375q-1.171875 -0.5 -2.0625 -1.53125q-0.890625 -1.046875 -1.40625 -2.640625q-0.5 -1.609375 -0.5 -3.8125038q0 -1.953125 0.375 -3.40625q0.375 -1.453125 1.015625 -2.4375q0.640625 -0.984375 1.453125 -1.5625q0.828125 -0.59375 1.734375 -0.859375q0.90625 -0.265625 1.8125 -0.265625q1.8125 0 3.09375 0.890625q1.28125 0.890625 1.921875 2.375l-1.59375 0.75l-0.25 0.109375l-0.078125 -0.1875q0.078125 -0.21875 0 -0.390625q-0.078125 -0.171875 -0.28125 -0.546875q-0.671875 -0.90625 -1.390625 -1.203125q-0.703125 -0.3125 -1.46875 -0.3125q-1.046875 0 -1.890625 0.46875q-0.828125 0.46875 -1.4375 1.359375q-0.59375 0.890625 -0.90625 2.171875q-0.296875 1.28125 -0.296875 2.90625q0 1.5781288 0.359375 2.8593788q0.359375 1.265625 0.984375 2.203125q0.625 0.9375 1.46875 1.453125q0.84375 0.5 1.796875 0.5q0.671875 0 1.296875 -0.234375q0.625 -0.25 1.15625 -0.71875q0.53125 -0.46875 0.90625 -1.078125l1.390625 0.90625q-0.796875 1.328125 -1.921875 2.03125q-1.125 0.6875 -2.75 0.6875l0 0zm7.8437195 -0.265625l0 -1.546875l3.59375 0l0 -14.640629l-3.4375 0l0 -1.53125l5.390625 0l0 16.171879l3.5625 0l0 1.546875l-9.109375 0zm13.890564 0l0 -1.546875l3.109375 0l0 -9.093754l-2.953125 0l0 -1.546875l4.875 0l0 10.640629l2.859375 0l0 1.546875l-7.890625 0zm3.953125 -14.734379q-0.5625 0 -0.96875 -0.40625q-0.390625 -0.40625 -0.390625 -0.953125q0 -0.59375 0.390625 -0.984375q0.390625 -0.40625 0.96875 -0.40625q0.5625 0 0.96875 0.421875q0.421875 0.40625 0.421875 0.96875q0 0.546875 -0.421875 0.953125q-0.40625 0.40625 -0.96875 0.40625zm7.7187195 14.734379l0 -12.187504l1.75 0l0 1.203125q0.296875 -0.453125 0.6875 -0.78125q0.390625 -0.34375 0.84375 -0.515625q0.46875 -0.1875 0.953125 -0.1875q0.53125 0 0.984375 0.234375q0.453125 0.21875 0.75 0.625q0.3125 0.390625 0.421875 0.921875q0.25 -0.53125 0.65625 -0.921875q0.421875 -0.40625 0.953125 -0.625q0.546875 -0.234375 1.140625 -0.234375q0.609375 0 1.0625 0.234375q0.453125 0.234375 0.75 0.65625q0.296875 0.40625 0.421875 0.984375q0.140625 0.578125 0.109375 1.234375l0 9.359379l-1.75 0l0 -8.640629q0 -1.109375 -0.15625 -1.609375q-0.140625 -0.515625 -0.40625 -0.65625q-0.265625 -0.15625 -0.59375 -0.15625q-0.5 0 -0.953125 0.46875q-0.4375 0.46875 -0.71875 1.15625q-0.265625 0.6875 -0.265625 1.3906288l0 8.046875l-1.796875 0l0 -8.484379q0 -1.515625 -0.28125 -2.015625q-0.28125 -0.515625 -1.046875 -0.515625q-0.296875 0 -0.609375 0.203125q-0.296875 0.203125 -0.5625 0.5625q-0.265625 0.359375 -0.4375 0.890625q-0.15625 0.53125 -0.15625 1.234375l0 8.125004l-1.75 0zm17.937439 0.296875q-2.078125 0 -3.203125 -0.9375q-1.109375 -0.953125 -1.109375 -2.421875q0 -0.984375 0.46875 -1.765625q0.484375 -0.796875 1.3125 -1.34375q0.84375 -0.546875 1.96875 -0.828125q1.125 -0.296875 2.375 -0.296875q0.453125 0 0.921875 0.015625q0.46875 0 0.984375 0.046875q0.515625 0.03125 1.078125 0.109375l0.046875 1.46875q-0.46875 -0.078125 -0.96875 -0.109375q-0.484375 -0.046875 -0.96875 -0.0625q-0.484375 -0.03125 -0.9375 -0.03125q-0.953125 0 -1.765625 0.15625q-0.796875 0.15625 -1.390625 0.484375q-0.578125 0.3125 -0.90625 0.828125q-0.3125 0.5 -0.3125 1.21875q0 0.5625 0.203125 0.953125q0.203125 0.375 0.546875 0.609375q0.34375 0.21875 0.8125 0.328125q0.46875 0.109375 1.03125 0.109375q1.03125 0 1.84375 -0.328125q0.828125 -0.34375 1.390625 -0.984375q0.578125 -0.640625 0.859375 -1.5625q0.296875 -0.9375 0.296875 -2.140625q0 -1.8125 -0.421875 -2.8125038q-0.421875 -1.015625 -1.265625 -1.4375q-0.84375 -0.4375 -2.140625 -0.4375q-0.890625 0 -1.75 0.34375q-0.84375 0.328125 -1.53125 1.015625l-0.9375 -1.234375q0.859375 -0.84375 1.96875 -1.265625q1.125 -0.4375 2.375 -0.4375q1.203125 0 2.1875 0.296875q0.984375 0.296875 1.6875 0.984375q0.71875 0.671875 1.09375 1.828125q0.390625 1.140625 0.390625 2.8593788l0 6.484375l-2.078125 0l0 -1.859375q-0.34375 0.65625 -0.84375 1.09375q-0.484375 0.421875 -1.046875 0.65625q-0.5625 0.21875 -1.15625 0.3125q-0.578125 0.09375 -1.109375 0.09375zm8.9530945 -0.296875l4.296875 -6.1875l-4.21875 -6.000004l2.109375 0l3.171875 4.515629l3.046875 -4.515629l1.96875 0l-3.953125 5.921879l4.484375 6.265625l-2.1875 0l-3.359375 -4.75l-3.171875 4.75l-2.1875 0z" fill-rule="nonzero"/><path fill="#000000" fill-opacity="0.0" d="m662.67194 114.54855l189.54327 0l0 51.716537l-189.54327 0z" fill-rule="evenodd"/><path fill="#000000" d="m673.17194 149.14856l0 -16.609375l4.890625 0q1.984375 0 3.1875 0.59375q1.21875 0.578125 1.78125 1.65625q0.5625 1.0625 0.5625 2.5q0 0.9375 -0.421875 1.875q-0.40625 0.921875 -1.171875 1.625q-0.765625 0.6875 -1.796875 0.953125l3.84375 7.40625l-2.078125 0l-3.6875 -7.328125l-3.21875 0l0 7.328125l-1.890625 0zm1.890625 -8.984375l3.21875 0q1.78125 0 2.578125 -0.78125q0.8125 -0.796875 0.8125 -2.09375q0 -0.828125 -0.359375 -1.5q-0.34375 -0.6875 -1.09375 -1.078125q-0.734375 -0.40625 -1.9375 -0.40625l-3.21875 0l0 5.859375zm17.187439 9.25q-1.328125 0 -2.421875 -0.40625q-1.09375 -0.421875 -1.890625 -1.21875q-0.78125 -0.796875 -1.203125 -1.984375q-0.421875 -1.1875 -0.421875 -2.703125q0 -1.546875 0.4375 -2.75q0.4375 -1.203125 1.1875 -2.015625q0.765625 -0.8125 1.78125 -1.234375q1.03125 -0.421875 2.1875 -0.421875q1.03125 0 1.9375 0.34375q0.90625 0.34375 1.578125 1.046875q0.671875 0.703125 1.046875 1.796875q0.390625 1.09375 0.390625 2.59375q0 0.203125 -0.015625 0.4375q-0.015625 0.21875 -0.03125 0.4375l-8.671875 0q0.0625 1.171875 0.40625 2.046875q0.34375 0.859375 0.90625 1.40625q0.5625 0.546875 1.296875 0.8125q0.734375 0.265625 1.546875 0.265625q0.640625 0 1.203125 -0.140625q0.5625 -0.15625 1.046875 -0.453125q0.5 -0.3125 0.90625 -0.765625l1.0625 1.046875q-0.5 0.609375 -1.15625 1.03125q-0.65625 0.421875 -1.4375 0.625q-0.765625 0.203125 -1.671875 0.203125zm-4.03125 -7.5625l6.703125 0q0 -0.859375 -0.234375 -1.53125q-0.21875 -0.6875 -0.640625 -1.171875q-0.40625 -0.5 -0.984375 -0.75q-0.578125 -0.265625 -1.296875 -0.265625q-0.640625 0 -1.21875 0.21875q-0.5625 0.21875 -1.046875 0.6875q-0.46875 0.453125 -0.8125 1.15625q-0.328125 0.6875 -0.46875 1.65625zm3.515625 -6.21875l-1.015625 -0.6875l2.25 -3.96875l1.46875 1.0625l-2.703125 3.59375zm13.281189 13.78125q-1.015625 0 -1.9375 -0.21875q-0.90625 -0.203125 -1.71875 -0.625q-0.8125 -0.4375 -1.515625 -1.078125l1.0625 -1.8125l0.171875 -0.234375l0.15625 0.109375q0.046875 0.203125 0.109375 0.4375q0.078125 0.21875 0.375 0.546875q0.546875 0.5625 1.328125 0.921875q0.796875 0.359375 2.03125 0.359375q0.984375 0 1.65625 -0.234375q0.6875 -0.25 1.0625 -0.6875q0.375 -0.4375 0.375 -1.03125q0 -0.390625 -0.171875 -0.703125q-0.15625 -0.3125 -0.515625 -0.578125q-0.359375 -0.265625 -0.953125 -0.53125q-0.578125 -0.265625 -1.4375 -0.53125q-1.375 -0.40625 -2.421875 -0.9375q-1.03125 -0.53125 -1.59375 -1.234375q-0.5625 -0.703125 -0.5625 -1.609375q0 -0.9375 0.5 -1.609375q0.515625 -0.6875 1.515625 -1.0625q1.0 -0.390625 2.453125 -0.390625q0.859375 0 1.546875 0.125q0.703125 0.109375 1.28125 0.359375q0.59375 0.234375 1.078125 0.59375q0.5 0.359375 0.953125 0.828125l-1.09375 1.34375l-0.1875 0.203125l-0.125 -0.125q-0.03125 -0.21875 -0.125 -0.40625q-0.09375 -0.203125 -0.390625 -0.5q-0.609375 -0.484375 -1.390625 -0.734375q-0.765625 -0.25 -1.484375 -0.25q-1.0625 0 -1.84375 0.375q-0.765625 0.359375 -0.765625 1.140625q0 0.40625 0.28125 0.796875q0.28125 0.375 1.015625 0.765625q0.75 0.375 2.140625 0.78125q1.515625 0.484375 2.4375 0.984375q0.921875 0.484375 1.328125 1.125q0.421875 0.640625 0.421875 1.515625q0 1.015625 -0.546875 1.90625q-0.546875 0.875 -1.671875 1.390625q-1.125 0.515625 -2.828125 0.515625l0 0zm13.296814 -0.046875q-1.640625 0 -2.90625 -0.8125q-1.265625 -0.8125 -1.984375 -2.234375q-0.71875 -1.4375 -0.71875 -3.28125q0 -1.859375 0.71875 -3.28125q0.71875 -1.4375 1.984375 -2.25q1.265625 -0.8125 2.90625 -0.8125q1.65625 0 2.921875 0.8125q1.265625 0.8125 1.984375 2.25q0.71875 1.421875 0.71875 3.28125q0 1.84375 -0.71875 3.28125q-0.71875 1.421875 -1.984375 2.234375q-1.265625 0.8125 -2.921875 0.8125zm0 -1.609375q1.078125 0 1.875 -0.609375q0.796875 -0.609375 1.265625 -1.671875q0.46875 -1.078125 0.46875 -2.453125q0 -1.390625 -0.46875 -2.453125q-0.46875 -1.078125 -1.265625 -1.671875q-0.796875 -0.59375 -1.875 -0.59375q-1.03125 0 -1.84375 0.59375q-0.8125 0.59375 -1.28125 1.671875q-0.46875 1.0625 -0.46875 2.453125q0 1.375 0.46875 2.453125q0.46875 1.0625 1.28125 1.671875q0.8125 0.609375 1.84375 0.609375zm8.78125 1.390625l0 -1.546875l3.59375 0l0 -14.640625l-3.4375 0l0 -1.53125l5.390625 0l0 16.171875l3.5625 0l0 1.546875l-9.109375 0zm17.109314 0.296875q-0.71875 0 -1.359375 -0.21875q-0.640625 -0.21875 -1.15625 -0.65625q-0.515625 -0.4375 -0.890625 -1.09375q-0.375 -0.671875 -0.578125 -1.609375q-0.203125 -0.9375 -0.203125 -2.109375l0.03125 -6.796875l1.859375 0l0 6.796875q0 1.15625 0.21875 1.953125q0.21875 0.796875 0.59375 1.28125q0.390625 0.484375 0.890625 0.703125q0.515625 0.203125 1.078125 0.203125q0.640625 0 1.21875 -0.25q0.59375 -0.265625 1.046875 -0.765625q0.46875 -0.5 0.734375 -1.296875q0.28125 -0.8125 0.28125 -1.90625l0 -6.71875l1.859375 0l0 10.296875q0 0.484375 0.03125 0.953125q0.046875 0.453125 0.234375 0.9375l-1.84375 0q-0.125 -0.3125 -0.1875 -0.625q-0.046875 -0.3125 -0.0625 -0.625q-0.015625 -0.328125 -0.015625 -0.609375q-0.28125 0.5 -0.6875 0.90625q-0.40625 0.390625 -0.90625 0.671875q-0.484375 0.28125 -1.03125 0.421875q-0.546875 0.15625 -1.15625 0.15625zm15.406189 -0.109375q-1.171875 0 -1.921875 -0.390625q-0.75 -0.40625 -1.15625 -1.25q-0.390625 -0.84375 -0.515625 -2.109375q-0.109375 -1.28125 -0.0625 -3.046875l0.328125 -8.6875l2.0 -0.25l0.265625 -0.015625l0.03125 0.1875q-0.140625 0.1875 -0.234375 0.375q-0.09375 0.171875 -0.140625 0.625l-0.25 3.015625l0.078125 0.484375l-0.1875 4.390625q-0.078125 2.03125 0.109375 3.140625q0.1875 1.109375 0.671875 1.53125q0.484375 0.40625 1.28125 0.40625q0.875 0 1.546875 -0.34375q0.6875 -0.359375 1.4375 -0.890625l0.578125 1.515625q-0.90625 0.671875 -1.859375 1.0q-0.953125 0.3125 -2.0 0.3125l0 0zm-6.109375 -12.375l8.78125 0l0 1.578125l-8.78125 0l0 -1.578125zm14.140564 12.1875l0 -1.546875l3.109375 0l0 -9.09375l-2.953125 0l0 -1.546875l4.875 0l0 10.640625l2.859375 0l0 1.546875l-7.890625 0zm3.953125 -14.734375q-0.5625 0 -0.96875 -0.40625q-0.390625 -0.40625 -0.390625 -0.953125q0 -0.59375 0.390625 -0.984375q0.390625 -0.40625 0.96875 -0.40625q0.5625 0 0.96875 0.421875q0.421875 0.40625 0.421875 0.96875q0 0.546875 -0.421875 0.953125q-0.40625 0.40625 -0.96875 0.40625zm13.359375 14.953125q-1.640625 0 -2.90625 -0.8125q-1.265625 -0.8125 -1.984375 -2.234375q-0.71875 -1.4375 -0.71875 -3.28125q0 -1.859375 0.71875 -3.28125q0.71875 -1.4375 1.984375 -2.25q1.265625 -0.8125 2.90625 -0.8125q1.65625 0 2.921875 0.8125q1.265625 0.8125 1.984375 2.25q0.71875 1.421875 0.71875 3.28125q0 1.84375 -0.71875 3.28125q-0.71875 1.421875 -1.984375 2.234375q-1.265625 0.8125 -2.921875 0.8125zm0 -1.609375q1.078125 0 1.875 -0.609375q0.796875 -0.609375 1.265625 -1.671875q0.46875 -1.078125 0.46875 -2.453125q0 -1.390625 -0.46875 -2.453125q-0.46875 -1.078125 -1.265625 -1.671875q-0.796875 -0.59375 -1.875 -0.59375q-1.03125 0 -1.84375 0.59375q-0.8125 0.59375 -1.28125 1.671875q-0.46875 1.0625 -0.46875 2.453125q0 1.375 0.46875 2.453125q0.46875 1.0625 1.28125 1.671875q0.8125 0.609375 1.84375 0.609375zm8.593689 1.390625l0 -12.1875l1.859375 0l0 2.171875q0.484375 -0.75 1.125 -1.296875q0.640625 -0.546875 1.40625 -0.84375q0.78125 -0.3125 1.609375 -0.3125q1.015625 0 1.8125 0.5q0.796875 0.5 1.265625 1.625q0.484375 1.125 0.484375 2.953125l0 7.390625l-1.859375 0l0 -7.328125q0 -1.28125 -0.296875 -2.03125q-0.296875 -0.765625 -0.796875 -1.09375q-0.5 -0.34375 -1.140625 -0.34375q-0.625 0 -1.25 0.265625q-0.625 0.265625 -1.15625 0.765625q-0.53125 0.484375 -0.875 1.1875q-0.328125 0.6875 -0.328125 1.5625l0 7.015625l-1.859375 0z" fill-rule="nonzero"/><path fill="#000000" fill-opacity="0.0" d="m817.5722 328.74802l137.76373 0l0 51.716553l-137.76373 0z" fill-rule="evenodd"/><path fill="#000000" d="m828.1503 363.34802l0 -16.640625l10.171875 0l0 1.65625l-8.421875 0l0 5.46875l6.96875 0l0 1.703125l-6.96875 0l0 6.15625l8.34375 0l0 1.65625l-10.09375 0zm13.671814 0l0 -12.1875l1.859375 0l0 2.171875q0.484375 -0.75 1.125 -1.296875q0.640625 -0.546875 1.40625 -0.84375q0.78125 -0.3125 1.609375 -0.3125q1.015625 0 1.8125 0.5q0.796875 0.5 1.265625 1.625q0.484375 1.125 0.484375 2.953125l0 7.390625l-1.859375 0l0 -7.328125q0 -1.28125 -0.296875 -2.03125q-0.296875 -0.765625 -0.796875 -1.09375q-0.5 -0.34375 -1.140625 -0.34375q-0.625 0 -1.25 0.265625q-0.625 0.265625 -1.15625 0.765625q-0.53125 0.484375 -0.875 1.1875q-0.328125 0.6875 -0.328125 1.5625l0 7.015625l-1.859375 0zm17.640564 0.265625q-0.9375 0 -1.828125 -0.390625q-0.890625 -0.40625 -1.625 -1.203125q-0.734375 -0.796875 -1.15625 -2.015625q-0.421875 -1.234375 -0.421875 -2.859375q0 -1.6875 0.453125 -2.875q0.453125 -1.1875 1.1875 -1.9375q0.75 -0.765625 1.65625 -1.125q0.90625 -0.359375 1.84375 -0.359375q0.859375 0 1.53125 0.265625q0.6875 0.265625 1.203125 0.734375q0.515625 0.46875 0.8125 1.109375l0 -7.328125l1.765625 0l0.265625 0l0 0.171875q-0.171875 0.171875 -0.21875 0.359375q-0.03125 0.1875 -0.03125 0.640625l0.03125 14.65625q0 0.484375 0.03125 0.953125q0.046875 0.453125 0.234375 0.9375l-1.890625 0q-0.140625 -0.3125 -0.1875 -0.625q-0.046875 -0.328125 -0.0625 -0.640625q-0.015625 -0.3125 -0.015625 -0.625q-0.375 0.640625 -0.90625 1.140625q-0.53125 0.484375 -1.203125 0.75q-0.671875 0.265625 -1.46875 0.265625l0 0zm0.296875 -1.671875q0.875 0 1.484375 -0.359375q0.625 -0.359375 1.0 -1.015625q0.375 -0.65625 0.546875 -1.515625q0.171875 -0.875 0.171875 -1.859375q0 -1.359375 -0.359375 -2.4375q-0.34375 -1.078125 -1.09375 -1.703125q-0.734375 -0.625 -1.90625 -0.625q-0.796875 0 -1.4375 0.3125q-0.625 0.296875 -1.046875 0.890625q-0.40625 0.578125 -0.625 1.390625q-0.203125 0.8125 -0.203125 1.828125q0 1.515625 0.390625 2.671875q0.40625 1.140625 1.171875 1.78125q0.78125 0.640625 1.90625 0.640625l0 0z" fill-rule="nonzero"/></g></svg>