<svg version="1.1" viewBox="0.0 0.0 935.0603674540682 410.90551181102364" fill="none" stroke="none" stroke-linecap="square" stroke-miterlimit="10" xmlns:xlink="http://www.w3.org/1999/xlink" xmlns="http://www.w3.org/2000/svg"><clipPath id="p.0"><path d="m0 0l935.06036 0l0 410.90552l-935.06036 0l0 -410.90552z" clip-rule="nonzero"/></clipPath><g clip-path="url(#p.0)"><path fill="#000000" fill-opacity="0.0" d="m0 0l935.06036 0l0 410.90552l-935.06036 0z" fill-rule="evenodd"/><path fill="#000000" fill-opacity="0.0" d="m20.83727 383.97375c104.1811 0 156.27165 -93.763794 208.36221 -187.52756c52.09056 -93.76379 104.18111 -187.52756 208.3622 -187.52756" fill-rule="evenodd"/><path stroke="#434343" stroke-width="8.0" stroke-linejoin="round" stroke-linecap="butt" d="m20.83727 383.97375c104.1811 0 156.27165 -93.763794 208.36221 -187.52756c52.09056 -93.76379 104.18111 -187.52756 208.3622 -187.52756" fill-rule="evenodd"/><path fill="#000000" fill-opacity="0.0" d="m430.61154 8.926509c124.14963 0 186.2244 97.527565 248.29922 195.05511c62.074768 97.52756 124.1496 195.05511 248.2992 195.05511" fill-rule="evenodd"/><path stroke="#434343" stroke-width="8.0" stroke-linejoin="round" stroke-linecap="butt" d="m430.61154 8.926509c124.14963 0 186.2244 97.527565 248.29922 195.05511c62.074768 97.52756 124.1496 195.05511 248.2992 195.05511" fill-rule="evenodd"/><path fill="#000000" fill-opacity="0.0" d="m0 284.6719l137.76378 0l0 84.031494l-137.76378 0z" fill-rule="evenodd"/><path fill="#000000" d="m10.4375 319.30316l0 -16.640625l3.859375 0q1.453125 0 2.4375 0.265625q0.984375 0.265625 1.671875 0.765625q0.703125 0.484375 1.234375 1.234375q0.5625 0.75 0.921875 1.6875q0.359375 0.921875 0.53125 2.03125q0.171875 1.109375 0.171875 2.421875q-0.078125 1.90625 -0.515625 3.4375q-0.421875 1.515625 -1.28125 2.578125q-0.84375 1.0625 -2.1875 1.640625q-1.34375 0.578125 -3.296875 0.578125l-3.546875 0zm1.765625 -1.46875l1.703125 0q1.921875 0 3.125 -0.765625q1.21875 -0.78125 1.796875 -2.265625q0.59375 -1.5 0.5625 -3.640625q0 -2.1875 -0.53125 -3.71875q-0.53125 -1.546875 -1.671875 -2.375q-1.125 -0.828125 -2.984375 -0.828125l-2.0 0l0 13.59375zm15.749954 1.734375q-2.078125 0 -3.203125 -0.9375q-1.109375 -0.953125 -1.109375 -2.421875q0 -0.984375 0.46875 -1.765625q0.484375 -0.796875 1.3125 -1.34375q0.84375 -0.546875 1.96875 -0.828125q1.125 -0.296875 2.375 -0.296875q0.453125 0 0.921875 0.015625q0.46875 0 0.984375 0.046875q0.515625 0.03125 1.078125 0.109375l0.046875 1.46875q-0.46875 -0.078125 -0.96875 -0.109375q-0.484375 -0.046875 -0.96875 -0.0625q-0.484375 -0.03125 -0.9375 -0.03125q-0.953125 0 -1.765625 0.15625q-0.796875 0.15625 -1.390625 0.484375q-0.578125 0.3125 -0.90625 0.828125q-0.3125 0.5 -0.3125 1.21875q0 0.5625 0.203125 0.953125q0.203125 0.375 0.546875 0.609375q0.34375 0.21875 0.8125 0.328125q0.46875 0.109375 1.03125 0.109375q1.03125 0 1.84375 -0.328125q0.828125 -0.34375 1.390625 -0.984375q0.578125 -0.640625 0.859375 -1.5625q0.296875 -0.9375 0.296875 -2.140625q0 -1.8125 -0.421875 -2.8125q-0.421875 -1.015625 -1.265625 -1.4375q-0.84375 -0.4375 -2.140625 -0.4375q-0.890625 0 -1.75 0.34375q-0.84375 0.328125 -1.53125 1.015625l-0.9375 -1.234375q0.859375 -0.84375 1.96875 -1.265625q1.125 -0.4375 2.375 -0.4375q1.203125 0 2.1875 0.296875q0.984375 0.296875 1.6875 0.984375q0.71875 0.671875 1.09375 1.828125q0.390625 1.140625 0.390625 2.859375l0 6.484375l-2.078125 0l0 -1.859375q-0.34375 0.65625 -0.84375 1.09375q-0.484375 0.421875 -1.046875 0.65625q-0.5625 0.21875 -1.15625 0.3125q-0.578125 0.09375 -1.109375 0.09375zm9.624954 -0.296875l0 -12.1875l1.859375 0l0 2.171875q0.484375 -0.75 1.125 -1.296875q0.640625 -0.546875 1.40625 -0.84375q0.78125 -0.3125 1.609375 -0.3125q1.015625 0 1.8125 0.5q0.796875 0.5 1.265625 1.625q0.484375 1.125 0.484375 2.953125l0 7.390625l-1.859375 0l0 -7.328125q0 -1.28125 -0.296875 -2.03125q-0.296875 -0.765625 -0.796875 -1.09375q-0.5 -0.34375 -1.140625 -0.34375q-0.625 0 -1.25 0.265625q-0.625 0.265625 -1.15625 0.765625q-0.53125 0.484375 -0.875 1.1875q-0.328125 0.6875 -0.328125 1.5625l0 7.015625l-1.859375 0zm18.093704 0.265625q-1.015625 0 -1.9375 -0.21875q-0.90625 -0.203125 -1.71875 -0.625q-0.8125 -0.4375 -1.515625 -1.078125l1.0625 -1.8125l0.171875 -0.234375l0.15625 0.109375q0.046875 0.203125 0.109375 0.4375q0.078125 0.21875 0.375 0.546875q0.546875 0.5625 1.328125 0.921875q0.796875 0.359375 2.03125 0.359375q0.984375 0 1.65625 -0.234375q0.6875 -0.25 1.0625 -0.6875q0.375 -0.4375 0.375 -1.03125q0 -0.390625 -0.171875 -0.703125q-0.15625 -0.3125 -0.515625 -0.578125q-0.359375 -0.265625 -0.953125 -0.53125q-0.578125 -0.265625 -1.4375 -0.53125q-1.375 -0.40625 -2.421875 -0.9375q-1.03125 -0.53125 -1.59375 -1.234375q-0.5625 -0.703125 -0.5625 -1.609375q0 -0.9375 0.5 -1.609375q0.515625 -0.6875 1.515625 -1.0625q1.0 -0.390625 2.453125 -0.390625q0.859375 0 1.546875 0.125q0.703125 0.109375 1.28125 0.359375q0.59375 0.234375 1.078125 0.59375q0.5 0.359375 0.953125 0.828125l-1.09375 1.34375l-0.1875 0.203125l-0.125 -0.125q-0.03125 -0.21875 -0.125 -0.40625q-0.09375 -0.203125 -0.390625 -0.5q-0.609375 -0.484375 -1.390625 -0.734375q-0.765625 -0.25 -1.484375 -0.25q-1.0625 0 -1.84375 0.375q-0.765625 0.359375 -0.765625 1.140625q0 0.40625 0.28125 0.796875q0.28125 0.375 1.015625 0.765625q0.75 0.375 2.140625 0.78125q1.515625 0.484375 2.4375 0.984375q0.921875 0.484375 1.328125 1.125q0.421875 0.640625 0.421875 1.515625q0 1.015625 -0.546875 1.90625q-0.546875 0.875 -1.671875 1.390625q-1.125 0.515625 -2.828125 0.515625l0 0zm25.859283 0.03125q-0.71875 0 -1.359375 -0.21875q-0.640625 -0.21875 -1.15625 -0.65625q-0.515625 -0.4375 -0.890625 -1.09375q-0.375 -0.671875 -0.578125 -1.609375q-0.203125 -0.9375 -0.203125 -2.109375l0.03125 -6.796875l1.859375 0l0 6.796875q0 1.15625 0.21875 1.953125q0.21875 0.796875 0.59375 1.28125q0.390625 0.484375 0.890625 0.703125q0.515625 0.203125 1.078125 0.203125q0.640625 0 1.21875 -0.25q0.59375 -0.265625 1.046875 -0.765625q0.46875 -0.5 0.734375 -1.296875q0.28125 -0.8125 0.28125 -1.90625l0 -6.71875l1.859375 0l0 10.296875q0 0.484375 0.03125 0.953125q0.046875 0.453125 0.234375 0.9375l-1.84375 0q-0.125 -0.3125 -0.1875 -0.625q-0.046875 -0.3125 -0.0625 -0.625q-0.015625 -0.328125 -0.015625 -0.609375q-0.28125 0.5 -0.6875 0.90625q-0.40625 0.390625 -0.90625 0.671875q-0.484375 0.28125 -1.03125 0.421875q-0.546875 0.15625 -1.15625 0.15625zm9.359329 -0.296875l0 -12.1875l1.859375 0l0 2.171875q0.484375 -0.75 1.125 -1.296875q0.640625 -0.546875 1.40625 -0.84375q0.78125 -0.3125 1.609375 -0.3125q1.015625 0 1.8125 0.5q0.796875 0.5 1.265625 1.625q0.484375 1.125 0.484375 2.953125l0 7.390625l-1.859375 0l0 -7.328125q0 -1.28125 -0.296875 -2.03125q-0.296875 -0.765625 -0.796875 -1.09375q-0.5 -0.34375 -1.140625 -0.34375q-0.625 0 -1.25 0.265625q-0.625 0.265625 -1.15625 0.765625q-0.53125 0.484375 -0.875 1.1875q-0.328125 0.6875 -0.328125 1.5625l0 7.015625l-1.859375 0z" fill-rule="nonzero"/><path fill="#000000" d="m10.015625 351.2719l0 -12.1875l1.75 0l0 1.203125q0.296875 -0.453125 0.6875 -0.78125q0.390625 -0.34375 0.84375 -0.515625q0.46875 -0.1875 0.953125 -0.1875q0.53125 0 0.984375 0.234375q0.453125 0.21875 0.75 0.625q0.3125 0.390625 0.421875 0.921875q0.25 -0.53125 0.65625 -0.921875q0.421875 -0.40625 0.953125 -0.625q0.546875 -0.234375 1.140625 -0.234375q0.609375 0 1.0625 0.234375q0.453125 0.234375 0.75 0.65625q0.296875 0.40625 0.421875 0.984375q0.140625 0.578125 0.109375 1.234375l0 9.359375l-1.75 0l0 -8.640625q0 -1.109375 -0.15625 -1.609375q-0.140625 -0.515625 -0.40625 -0.65625q-0.265625 -0.15625 -0.59375 -0.15625q-0.5 0 -0.953125 0.46875q-0.4375 0.46875 -0.71875 1.15625q-0.265625 0.6875 -0.265625 1.390625l0 8.046875l-1.796875 0l0 -8.484375q0 -1.515625 -0.28125 -2.015625q-0.28125 -0.515625 -1.046875 -0.515625q-0.296875 0 -0.609375 0.203125q-0.296875 0.203125 -0.5625 0.5625q-0.265625 0.359375 -0.4375 0.890625q-0.15625 0.53125 -0.15625 1.234375l0 8.125l-1.75 0zm18.968704 0.21875q-1.640625 0 -2.90625 -0.8125q-1.265625 -0.8125 -1.984375 -2.234375q-0.71875 -1.4375 -0.71875 -3.28125q0 -1.859375 0.71875 -3.28125q0.71875 -1.4375 1.984375 -2.25q1.265625 -0.8125 2.90625 -0.8125q1.65625 0 2.921875 0.8125q1.265625 0.8125 1.984375 2.25q0.71875 1.421875 0.71875 3.28125q0 1.84375 -0.71875 3.28125q-0.71875 1.421875 -1.984375 2.234375q-1.265625 0.8125 -2.921875 0.8125zm0 -1.609375q1.078125 0 1.875 -0.609375q0.796875 -0.609375 1.265625 -1.671875q0.46875 -1.078125 0.46875 -2.453125q0 -1.390625 -0.46875 -2.453125q-0.46875 -1.078125 -1.265625 -1.671875q-0.796875 -0.59375 -1.875 -0.59375q-1.03125 0 -1.84375 0.59375q-0.8125 0.59375 -1.28125 1.671875q-0.46875 1.0625 -0.46875 2.453125q0 1.375 0.46875 2.453125q0.46875 1.0625 1.28125 1.671875q0.8125 0.609375 1.84375 0.609375zm8.593704 1.390625l0 -12.1875l1.859375 0l0 2.171875q0.484375 -0.75 1.125 -1.296875q0.640625 -0.546875 1.40625 -0.84375q0.78125 -0.3125 1.609375 -0.3125q1.015625 0 1.8125 0.5q0.796875 0.5 1.265625 1.625q0.484375 1.125 0.484375 2.953125l0 7.390625l-1.859375 0l0 -7.328125q0 -1.28125 -0.296875 -2.03125q-0.296875 -0.765625 -0.796875 -1.09375q-0.5 -0.34375 -1.140625 -0.34375q-0.625 0 -1.25 0.265625q-0.625 0.265625 -1.15625 0.765625q-0.53125 0.484375 -0.875 1.1875q-0.328125 0.6875 -0.328125 1.5625l0 7.015625l-1.859375 0zm17.64058 0.265625q-0.9375 0 -1.828125 -0.390625q-0.890625 -0.40625 -1.625 -1.203125q-0.734375 -0.796875 -1.15625 -2.015625q-0.421875 -1.234375 -0.421875 -2.859375q0 -1.6875 0.453125 -2.875q0.453125 -1.1875 1.1875 -1.9375q0.75 -0.765625 1.65625 -1.125q0.90625 -0.359375 1.84375 -0.359375q0.859375 0 1.53125 0.265625q0.6875 0.265625 1.203125 0.734375q0.515625 0.46875 0.8125 1.109375l0 -7.328125l1.765625 0l0.265625 0l0 0.171875q-0.171875 0.171875 -0.21875 0.359375q-0.03125 0.1875 -0.03125 0.640625l0.03125 14.65625q0 0.484375 0.03125 0.953125q0.046875 0.453125 0.234375 0.9375l-1.890625 0q-0.140625 -0.3125 -0.1875 -0.625q-0.046875 -0.328125 -0.0625 -0.640625q-0.015625 -0.3125 -0.015625 -0.625q-0.375 0.640625 -0.90625 1.140625q-0.53125 0.484375 -1.203125 0.75q-0.671875 0.265625 -1.46875 0.265625l0 0zm0.296875 -1.671875q0.875 0 1.484375 -0.359375q0.625 -0.359375 1.0 -1.015625q0.375 -0.65625 0.546875 -1.515625q0.171875 -0.875 0.171875 -1.859375q0 -1.359375 -0.359375 -2.4375q-0.34375 -1.078125 -1.09375 -1.703125q-0.734375 -0.625 -1.90625 -0.625q-0.796875 0 -1.4375 0.3125q-0.625 0.296875 -1.046875 0.890625q-0.40625 0.578125 -0.625 1.390625q-0.203125 0.8125 -0.203125 1.828125q0 1.515625 0.390625 2.671875q0.40625 1.140625 1.171875 1.78125q0.78125 0.640625 1.90625 0.640625l0 0zm14.046829 1.671875q-1.328125 0 -2.421875 -0.40625q-1.09375 -0.421875 -1.890625 -1.21875q-0.78125 -0.796875 -1.203125 -1.984375q-0.421875 -1.1875 -0.421875 -2.703125q0 -1.546875 0.4375 -2.75q0.4375 -1.203125 1.1875 -2.015625q0.765625 -0.8125 1.78125 -1.234375q1.03125 -0.421875 2.1875 -0.421875q1.03125 0 1.9375 0.34375q0.90625 0.34375 1.578125 1.046875q0.671875 0.703125 1.046875 1.796875q0.390625 1.09375 0.390625 2.59375q0 0.203125 -0.015625 0.4375q-0.015625 0.21875 -0.03125 0.4375l-8.671875 0q0.0625 1.171875 0.40625 2.046875q0.34375 0.859375 0.90625 1.40625q0.5625 0.546875 1.296875 0.8125q0.734375 0.265625 1.546875 0.265625q0.640625 0 1.203125 -0.140625q0.5625 -0.15625 1.046875 -0.453125q0.5 -0.3125 0.90625 -0.765625l1.0625 1.046875q-0.5 0.609375 -1.15625 1.03125q-0.65625 0.421875 -1.4375 0.625q-0.765625 0.203125 -1.671875 0.203125zm-4.03125 -7.5625l6.703125 0q0 -0.859375 -0.234375 -1.53125q-0.21875 -0.6875 -0.640625 -1.171875q-0.40625 -0.5 -0.984375 -0.75q-0.578125 -0.265625 -1.296875 -0.265625q-0.640625 0 -1.21875 0.21875q-0.5625 0.21875 -1.046875 0.6875q-0.46875 0.453125 -0.8125 1.15625q-0.328125 0.6875 -0.46875 1.65625zm11.874954 7.59375q-0.640625 0 -1.09375 -0.453125q-0.453125 -0.453125 -0.453125 -1.0625q0 -0.625 0.453125 -1.078125q0.453125 -0.453125 1.09375 -0.453125q0.609375 0 1.0625 0.453125q0.453125 0.453125 0.453125 1.078125q0 0.609375 -0.453125 1.0625q-0.453125 0.453125 -1.0625 0.453125zm4.578125 0q-0.640625 0 -1.09375 -0.453125q-0.453125 -0.453125 -0.453125 -1.0625q0 -0.625 0.453125 -1.078125q0.453125 -0.453125 1.09375 -0.453125q0.609375 0 1.0625 0.453125q0.453125 0.453125 0.453125 1.078125q0 0.609375 -0.453125 1.0625q-0.453125 0.453125 -1.0625 0.453125zm4.640625 0q-0.640625 0 -1.09375 -0.453125q-0.453125 -0.453125 -0.453125 -1.0625q0 -0.625 0.453125 -1.078125q0.453125 -0.453125 1.09375 -0.453125q0.609375 0 1.0625 0.453125q0.453125 0.453125 0.453125 1.078125q0 0.609375 -0.453125 1.0625q-0.453125 0.453125 -1.0625 0.453125z" fill-rule="nonzero"/><path fill="#000000" fill-opacity="0.0" d="m216.25722 214.7664l171.9055 0l0 51.716537l-171.9055 0z" fill-rule="evenodd"/><path fill="#000000" d="m227.41347 249.36641l0 -1.578125l3.28125 0l0 -13.453125l-3.09375 0l0 -1.578125l8.234375 0l0 1.578125l-3.28125 0l0 13.484375l3.453125 0l0 1.546875l-8.59375 0zm13.281204 0l0 -1.546875l3.59375 0l0 -14.640625l-3.4375 0l0 -1.53125l5.390625 0l0 16.171875l3.5625 0l0 1.546875l-9.109375 0zm27.937408 4.640625q-0.859375 0 -1.5625 -0.265625q-0.703125 -0.265625 -1.234375 -0.78125l0.8125 -1.296875l0.171875 -0.25l0.15625 0.109375q0.046875 0.21875 0.171875 0.359375q0.140625 0.15625 0.515625 0.390625q0.25 0.078125 0.515625 0.109375q0.265625 0.046875 0.546875 0.046875q0.734375 0 1.21875 -0.34375q0.5 -0.34375 0.859375 -1.0625q0.375 -0.71875 0.734375 -1.8125l2.3125 -7.171875q0.40625 -1.234375 0.765625 -2.421875q0.375 -1.203125 0.515625 -2.4375l1.921875 0q-0.1875 1.234375 -0.59375 2.484375q-0.390625 1.25 -0.84375 2.5l-3.046875 8.59375q-0.640625 1.78125 -1.640625 2.515625q-1.0 0.734375 -2.296875 0.734375l0 0zm-2.171875 -16.828125l2.0 0l3.953125 10.15625l-0.859375 2.375l-5.09375 -12.53125zm31.062408 12.484375q-2.078125 0 -3.203125 -0.9375q-1.109375 -0.953125 -1.109375 -2.421875q0 -0.984375 0.46875 -1.765625q0.484375 -0.796875 1.3125 -1.34375q0.84375 -0.546875 1.96875 -0.828125q1.125 -0.296875 2.375 -0.296875q0.453125 0 0.921875 0.015625q0.46875 0 0.984375 0.046875q0.515625 0.03125 1.078125 0.109375l0.046875 1.46875q-0.46875 -0.078125 -0.96875 -0.109375q-0.484375 -0.046875 -0.96875 -0.0625q-0.484375 -0.03125 -0.9375 -0.03125q-0.953125 0 -1.765625 0.15625q-0.796875 0.15625 -1.390625 0.484375q-0.578125 0.3125 -0.90625 0.828125q-0.3125 0.5 -0.3125 1.21875q0 0.5625 0.203125 0.953125q0.203125 0.375 0.546875 0.609375q0.34375 0.21875 0.8125 0.328125q0.46875 0.109375 1.03125 0.109375q1.03125 0 1.84375 -0.328125q0.828125 -0.34375 1.390625 -0.984375q0.578125 -0.640625 0.859375 -1.5625q0.296875 -0.9375 0.296875 -2.140625q0 -1.8125 -0.421875 -2.8125q-0.421875 -1.015625 -1.265625 -1.4375q-0.84375 -0.4375 -2.140625 -0.4375q-0.890625 0 -1.75 0.34375q-0.84375 0.328125 -1.53125 1.015625l-0.9375 -1.234375q0.859375 -0.84375 1.96875 -1.265625q1.125 -0.4375 2.375 -0.4375q1.203125 0 2.1875 0.296875q0.984375 0.296875 1.6875 0.984375q0.71875 0.671875 1.09375 1.828125q0.390625 1.140625 0.390625 2.859375l0 6.484375l-2.078125 0l0 -1.859375q-0.34375 0.65625 -0.84375 1.09375q-0.484375 0.421875 -1.046875 0.65625q-0.5625 0.21875 -1.15625 0.3125q-0.578125 0.09375 -1.109375 0.09375zm22.796783 0q-0.640625 0 -1.09375 -0.453125q-0.453125 -0.453125 -0.453125 -1.0625q0 -0.625 0.453125 -1.078125q0.453125 -0.453125 1.09375 -0.453125q0.609375 0 1.0625 0.453125q0.453125 0.453125 0.453125 1.078125q0 0.609375 -0.453125 1.0625q-0.453125 0.453125 -1.0625 0.453125zm4.578125 0q-0.640625 0 -1.09375 -0.453125q-0.453125 -0.453125 -0.453125 -1.0625q0 -0.625 0.453125 -1.078125q0.453125 -0.453125 1.09375 -0.453125q0.609375 0 1.0625 0.453125q0.453125 0.453125 0.453125 1.078125q0 0.609375 -0.453125 1.0625q-0.453125 0.453125 -1.0625 0.453125zm4.640625 0q-0.640625 0 -1.09375 -0.453125q-0.453125 -0.453125 -0.453125 -1.0625q0 -0.625 0.453125 -1.078125q0.453125 -0.453125 1.09375 -0.453125q0.609375 0 1.0625 0.453125q0.453125 0.453125 0.453125 1.078125q0 0.609375 -0.453125 1.0625q-0.453125 0.453125 -1.0625 0.453125z" fill-rule="nonzero"/><path fill="#000000" fill-opacity="0.0" d="m359.59055 37.45669l137.7638 0l0 84.031494l-137.7638 0z" fill-rule="evenodd"/><path fill="#000000" d="m369.6843 72.056694l0 -16.609379l1.46875 0l4.09375 8.125l4.1875 -8.15625l1.421875 0l0 16.640629l-1.765625 0l0 -12.531254l-3.59375 6.687504l-0.71875 0l-3.359375 -6.609379l0 12.453129l-1.734375 0zm17.859344 0.296875q-2.078125 0 -3.203125 -0.9375q-1.109375 -0.953125 -1.109375 -2.421875q0 -0.984375 0.46875 -1.765625q0.484375 -0.796875 1.3125 -1.34375q0.84375 -0.546875 1.96875 -0.828125q1.125 -0.296875 2.375 -0.296875q0.453125 0 0.921875 0.015625q0.46875 0 0.984375 0.046875q0.515625 0.03125 1.078125 0.109375l0.046875 1.46875q-0.46875 -0.078125 -0.96875 -0.109375q-0.484375 -0.046875 -0.96875 -0.0625q-0.484375 -0.03125 -0.9375 -0.03125q-0.953125 0 -1.765625 0.15625q-0.796875 0.15625 -1.390625 0.484375q-0.578125 0.3125 -0.90625 0.828125q-0.3125 0.5 -0.3125 1.21875q0 0.5625 0.203125 0.953125q0.203125 0.375 0.546875 0.609375q0.34375 0.21875 0.8125 0.328125q0.46875 0.109375 1.03125 0.109375q1.03125 0 1.84375 -0.328125q0.828125 -0.34375 1.390625 -0.984375q0.578125 -0.640625 0.859375 -1.5625q0.296875 -0.9375 0.296875 -2.140625q0 -1.8125 -0.421875 -2.8125038q-0.421875 -1.015625 -1.265625 -1.4375q-0.84375 -0.4375 -2.140625 -0.4375q-0.890625 0 -1.75 0.34375q-0.84375 0.328125 -1.53125 1.015625l-0.9375 -1.234375q0.859375 -0.84375 1.96875 -1.265625q1.125 -0.4375 2.375 -0.4375q1.203125 0 2.1875 0.296875q0.984375 0.296875 1.6875 0.984375q0.71875 0.671875 1.09375 1.828125q0.390625 1.140625 0.390625 2.8593788l0 6.484375l-2.078125 0l0 -1.859375q-0.34375 0.65625 -0.84375 1.09375q-0.484375 0.421875 -1.046875 0.65625q-0.5625 0.21875 -1.15625 0.3125q-0.578125 0.09375 -1.109375 0.09375zm10.374939 -0.296875l0 -1.546875l3.109375 0l0 -9.093754l-2.953125 0l0 -1.546875l4.875 0l0 10.640629l2.859375 0l0 1.546875l-7.890625 0zm3.953125 -14.734379q-0.5625 0 -0.96875 -0.40625q-0.390625 -0.40625 -0.390625 -0.953125q0 -0.59375 0.390625 -0.984375q0.390625 -0.40625 0.96875 -0.40625q0.5625 0 0.96875 0.421875q0.421875 0.40625 0.421875 0.96875q0 0.546875 -0.421875 0.953125q-0.40625 0.40625 -0.96875 0.40625zm13.3905945 15.000004q-1.015625 0 -1.9375 -0.21875q-0.90625 -0.203125 -1.71875 -0.625q-0.8125 -0.4375 -1.515625 -1.078125l1.0625 -1.8125l0.171875 -0.234375l0.15625 0.109375q0.046875 0.203125 0.109375 0.4375q0.078125 0.21875 0.375 0.546875q0.546875 0.5625 1.328125 0.921875q0.796875 0.359375 2.03125 0.359375q0.984375 0 1.65625 -0.234375q0.6875 -0.25 1.0625 -0.6875q0.375 -0.4375 0.375 -1.03125q0 -0.390625 -0.171875 -0.703125q-0.15625 -0.3125 -0.515625 -0.578125q-0.359375 -0.265625 -0.953125 -0.53125q-0.578125 -0.265625 -1.4375 -0.53125q-1.375 -0.40625 -2.421875 -0.9375q-1.03125 -0.53125 -1.59375 -1.234375q-0.5625 -0.7031288 -0.5625 -1.6093788q0 -0.9375 0.5 -1.609375q0.515625 -0.6875 1.515625 -1.0625q1.0 -0.390625 2.453125 -0.390625q0.859375 0 1.546875 0.125q0.703125 0.109375 1.28125 0.359375q0.59375 0.234375 1.078125 0.59375q0.5 0.359375 0.953125 0.828125l-1.09375 1.34375l-0.1875 0.203125l-0.125 -0.125q-0.03125 -0.21875 -0.125 -0.40625q-0.09375 -0.203125 -0.390625 -0.5q-0.609375 -0.484375 -1.390625 -0.734375q-0.765625 -0.25 -1.484375 -0.25q-1.0625 0 -1.84375 0.375q-0.765625 0.359375 -0.765625 1.140625q0 0.40625 0.28125 0.796875q0.28125 0.375 1.015625 0.7656288q0.75 0.375 2.140625 0.78125q1.515625 0.484375 2.4375 0.984375q0.921875 0.484375 1.328125 1.125q0.421875 0.640625 0.421875 1.515625q0 1.015625 -0.546875 1.90625q-0.546875 0.875 -1.671875 1.390625q-1.125 0.515625 -2.828125 0.515625l0 0z" fill-rule="nonzero"/><path fill="#000000" d="m378.44992 108.50982l0 -6.40625q-0.375 0.671875 -0.953125 1.1875q-0.5625 0.5 -1.265625 0.765625q-0.703125 0.265625 -1.515625 0.265625q-1.03125 0 -1.953125 -0.46875q-0.921875 -0.46875 -1.609375 -1.296875q-0.671875 -0.84375 -1.0625 -2.015625q-0.375 -1.171875 -0.375 -2.609375q0 -1.53125 0.421875 -2.703125q0.421875 -1.171875 1.15625 -2.0q0.734375 -0.828125 1.703125 -1.25q0.984375 -0.421875 2.078125 -0.421875q0.640625 0 1.171875 0.15625q0.53125 0.140625 0.96875 0.40625q0.4375 0.265625 0.765625 0.671875q0.34375 0.390625 0.578125 0.875l0 -1.796875l1.8125 0l0 16.640625l-1.921875 0zm-3.375 -5.859375q0.6875 0 1.28125 -0.28125q0.609375 -0.28125 1.0625 -0.875q0.46875 -0.609375 0.71875 -1.5625q0.265625 -0.96875 0.265625 -2.296875q0 -1.25 -0.234375 -2.109375q-0.21875 -0.875 -0.65625 -1.390625q-0.421875 -0.53125 -0.984375 -0.765625q-0.546875 -0.234375 -1.25 -0.234375q-0.75 0 -1.421875 0.28125q-0.65625 0.265625 -1.15625 0.84375q-0.484375 0.578125 -0.765625 1.46875q-0.28125 0.890625 -0.28125 2.125q0 1.109375 0.234375 2.0q0.25 0.875 0.703125 1.5q0.453125 0.625 1.078125 0.96875q0.625 0.328125 1.40625 0.328125zm12.7343445 1.703125q-0.71875 0 -1.359375 -0.21875q-0.640625 -0.21875 -1.15625 -0.65625q-0.515625 -0.4375 -0.890625 -1.09375q-0.375 -0.671875 -0.578125 -1.609375q-0.203125 -0.9375 -0.203125 -2.109375l0.03125 -6.796875l1.859375 0l0 6.796875q0 1.15625 0.21875 1.953125q0.21875 0.796875 0.59375 1.28125q0.390625 0.484375 0.890625 0.703125q0.515625 0.203125 1.078125 0.203125q0.640625 0 1.21875 -0.25q0.59375 -0.265625 1.046875 -0.765625q0.46875 -0.5 0.734375 -1.296875q0.28125 -0.8125 0.28125 -1.90625l0 -6.71875l1.859375 0l0 10.296875q0 0.484375 0.03125 0.953125q0.046875 0.453125 0.234375 0.9375l-1.84375 0q-0.125 -0.3125 -0.1875 -0.625q-0.046875 -0.3125 -0.0625 -0.625q-0.015625 -0.328125 -0.015625 -0.609375q-0.28125 0.5 -0.6875 0.90625q-0.40625 0.390625 -0.90625 0.671875q-0.484375 0.28125 -1.03125 0.421875q-0.546875 0.15625 -1.15625 0.15625zm13.062439 0q-2.078125 0 -3.203125 -0.9375q-1.109375 -0.953125 -1.109375 -2.421875q0 -0.984375 0.46875 -1.765625q0.484375 -0.796875 1.3125 -1.34375q0.84375 -0.546875 1.96875 -0.828125q1.125 -0.296875 2.375 -0.296875q0.453125 0 0.921875 0.015625q0.46875 0 0.984375 0.046875q0.515625 0.03125 1.078125 0.109375l0.046875 1.46875q-0.46875 -0.078125 -0.96875 -0.109375q-0.484375 -0.046875 -0.96875 -0.0625q-0.484375 -0.03125 -0.9375 -0.03125q-0.953125 0 -1.765625 0.15625q-0.796875 0.15625 -1.390625 0.484375q-0.578125 0.3125 -0.90625 0.828125q-0.3125 0.5 -0.3125 1.21875q0 0.5625 0.203125 0.953125q0.203125 0.375 0.546875 0.609375q0.34375 0.21875 0.8125 0.328125q0.46875 0.109375 1.03125 0.109375q1.03125 0 1.84375 -0.328125q0.828125 -0.34375 1.390625 -0.984375q0.578125 -0.640625 0.859375 -1.5625q0.296875 -0.9375 0.296875 -2.140625q0 -1.8125 -0.421875 -2.8125q-0.421875 -1.015625 -1.265625 -1.4375q-0.84375 -0.4375 -2.140625 -0.4375q-0.890625 0 -1.75 0.34375q-0.84375 0.328125 -1.53125 1.015625l-0.9375 -1.234375q0.859375 -0.84375 1.96875 -1.265625q1.125 -0.4375 2.375 -0.4375q1.203125 0 2.1875 0.296875q0.984375 0.296875 1.6875 0.984375q0.71875 0.671875 1.09375 1.828125q0.390625 1.140625 0.390625 2.859375l0 6.484375l-2.078125 0l0 -1.859375q-0.34375 0.65625 -0.84375 1.09375q-0.484375 0.421875 -1.046875 0.65625q-0.5625 0.21875 -1.15625 0.3125q-0.578125 0.09375 -1.109375 0.09375zm9.6249695 -0.296875l0 -12.1875l1.859375 0l0 2.171875q0.484375 -0.75 1.125 -1.296875q0.640625 -0.546875 1.40625 -0.84375q0.78125 -0.3125 1.609375 -0.3125q1.015625 0 1.8125 0.5q0.796875 0.5 1.265625 1.625q0.484375 1.125 0.484375 2.953125l0 7.390625l-1.859375 0l0 -7.328125q0 -1.28125 -0.296875 -2.03125q-0.296875 -0.765625 -0.796875 -1.09375q-0.5 -0.34375 -1.140625 -0.34375q-0.625 0 -1.25 0.265625q-0.625 0.265625 -1.15625 0.765625q-0.53125 0.484375 -0.875 1.1875q-0.328125 0.6875 -0.328125 1.5625l0 7.015625l-1.859375 0zm17.640564 0.265625q-0.9375 0 -1.828125 -0.390625q-0.890625 -0.40625 -1.625 -1.203125q-0.734375 -0.796875 -1.15625 -2.015625q-0.421875 -1.234375 -0.421875 -2.859375q0 -1.6875 0.453125 -2.875q0.453125 -1.1875 1.1875 -1.9375q0.75 -0.765625 1.65625 -1.125q0.90625 -0.359375 1.84375 -0.359375q0.859375 0 1.53125 0.265625q0.6875 0.265625 1.203125 0.734375q0.515625 0.46875 0.8125 1.109375l0 -7.328125l1.765625 0l0.265625 0l0 0.171875q-0.171875 0.171875 -0.21875 0.359375q-0.03125 0.1875 -0.03125 0.640625l0.03125 14.65625q0 0.484375 0.03125 0.953125q0.046875 0.453125 0.234375 0.9375l-1.890625 0q-0.140625 -0.3125 -0.1875 -0.625q-0.046875 -0.328125 -0.0625 -0.640625q-0.015625 -0.3125 -0.015625 -0.625q-0.375 0.640625 -0.90625 1.140625q-0.53125 0.484375 -1.203125 0.75q-0.671875 0.265625 -1.46875 0.265625l0 0zm0.296875 -1.671875q0.875 0 1.484375 -0.359375q0.625 -0.359375 1.0 -1.015625q0.375 -0.65625 0.546875 -1.515625q0.171875 -0.875 0.171875 -1.859375q0 -1.359375 -0.359375 -2.4375q-0.34375 -1.078125 -1.09375 -1.703125q-0.734375 -0.625 -1.90625 -0.625q-0.796875 0 -1.4375 0.3125q-0.625 0.296875 -1.046875 0.890625q-0.40625 0.578125 -0.625 1.390625q-0.203125 0.8125 -0.203125 1.828125q0 1.515625 0.390625 2.671875q0.40625 1.140625 1.171875 1.78125q0.78125 0.640625 1.90625 0.640625l0 0zm8.5624695 1.703125q-0.640625 0 -1.09375 -0.453125q-0.453125 -0.453125 -0.453125 -1.0625q0 -0.625 0.453125 -1.078125q0.453125 -0.453125 1.09375 -0.453125q0.609375 0 1.0625 0.453125q0.453125 0.453125 0.453125 1.078125q0 0.609375 -0.453125 1.0625q-0.453125 0.453125 -1.0625 0.453125zm4.578125 0q-0.640625 0 -1.09375 -0.453125q-0.453125 -0.453125 -0.453125 -1.0625q0 -0.625 0.453125 -1.078125q0.453125 -0.453125 1.09375 -0.453125q0.609375 0 1.0625 0.453125q0.453125 0.453125 0.453125 1.078125q0 0.609375 -0.453125 1.0625q-0.453125 0.453125 -1.0625 0.453125zm4.640625 0q-0.640625 0 -1.09375 -0.453125q-0.453125 -0.453125 -0.453125 -1.0625q0 -0.625 0.453125 -1.078125q0.453125 -0.453125 1.09375 -0.453125q0.609375 0 1.0625 0.453125q0.453125 0.453125 0.453125 1.078125q0 0.609375 -0.453125 1.0625q-0.453125 0.453125 -1.0625 0.453125z" fill-rule="nonzero"/><path fill="#000000" fill-opacity="0.0" d="m662.67194 114.54855l189.54327 0l0 51.716537l-189.54327 0z" fill-rule="evenodd"/><path fill="#000000" d="m676.8907 149.44543q-1.171875 0 -2.15625 -0.46875q-0.984375 -0.46875 -1.75 -1.375l1.0625 -1.328125l0.1875 -0.21875l0.125 0.109375q0.03125 0.234375 0.125 0.421875q0.09375 0.1875 0.4375 0.484375q0.453125 0.34375 0.921875 0.53125q0.46875 0.1875 1.046875 0.1875q0.90625 0 1.46875 -0.390625q0.5625 -0.40625 0.828125 -1.328125q0.265625 -0.921875 0.265625 -2.46875l0 -9.484375l-3.203125 0l0 -1.578125l7.609375 0l0 1.578125l-2.5625 0l0 9.453125q0.046875 1.609375 -0.296875 2.734375q-0.34375 1.109375 -0.984375 1.828125q-0.640625 0.703125 -1.4375 1.015625q-0.796875 0.296875 -1.6875 0.296875l0 0zm13.999939 0q-0.71875 0 -1.359375 -0.21875q-0.640625 -0.21875 -1.15625 -0.65625q-0.515625 -0.4375 -0.890625 -1.09375q-0.375 -0.671875 -0.578125 -1.609375q-0.203125 -0.9375 -0.203125 -2.109375l0.03125 -6.796875l1.859375 0l0 6.796875q0 1.15625 0.21875 1.953125q0.21875 0.796875 0.59375 1.28125q0.390625 0.484375 0.890625 0.703125q0.515625 0.203125 1.078125 0.203125q0.640625 0 1.21875 -0.25q0.59375 -0.265625 1.046875 -0.765625q0.46875 -0.5 0.734375 -1.296875q0.28125 -0.8125 0.28125 -1.90625l0 -6.71875l1.859375 0l0 10.296875q0 0.484375 0.03125 0.953125q0.046875 0.453125 0.234375 0.9375l-1.84375 0q-0.125 -0.3125 -0.1875 -0.625q-0.046875 -0.3125 -0.0625 -0.625q-0.015625 -0.328125 -0.015625 -0.609375q-0.28125 0.5 -0.6875 0.90625q-0.40625 0.390625 -0.90625 0.671875q-0.484375 0.28125 -1.03125 0.421875q-0.546875 0.15625 -1.15625 0.15625zm14.124939 -0.03125q-1.015625 0 -1.9375 -0.21875q-0.90625 -0.203125 -1.71875 -0.625q-0.8125 -0.4375 -1.515625 -1.078125l1.0625 -1.8125l0.171875 -0.234375l0.15625 0.109375q0.046875 0.203125 0.109375 0.4375q0.078125 0.21875 0.375 0.546875q0.546875 0.5625 1.328125 0.921875q0.796875 0.359375 2.03125 0.359375q0.984375 0 1.65625 -0.234375q0.6875 -0.25 1.0625 -0.6875q0.375 -0.4375 0.375 -1.03125q0 -0.390625 -0.171875 -0.703125q-0.15625 -0.3125 -0.515625 -0.578125q-0.359375 -0.265625 -0.953125 -0.53125q-0.578125 -0.265625 -1.4375 -0.53125q-1.375 -0.40625 -2.421875 -0.9375q-1.03125 -0.53125 -1.59375 -1.234375q-0.5625 -0.703125 -0.5625 -1.609375q0 -0.9375 0.5 -1.609375q0.515625 -0.6875 1.515625 -1.0625q1.0 -0.390625 2.453125 -0.390625q0.859375 0 1.546875 0.125q0.703125 0.109375 1.28125 0.359375q0.59375 0.234375 1.078125 0.59375q0.5 0.359375 0.953125 0.828125l-1.09375 1.34375l-0.1875 0.203125l-0.125 -0.125q-0.03125 -0.21875 -0.125 -0.40625q-0.09375 -0.203125 -0.390625 -0.5q-0.609375 -0.484375 -1.390625 -0.734375q-0.765625 -0.25 -1.484375 -0.25q-1.0625 0 -1.84375 0.375q-0.765625 0.359375 -0.765625 1.140625q0 0.40625 0.28125 0.796875q0.28125 0.375 1.015625 0.765625q0.75 0.375 2.140625 0.78125q1.515625 0.484375 2.4375 0.984375q0.921875 0.484375 1.328125 1.125q0.421875 0.640625 0.421875 1.515625q0 1.015625 -0.546875 1.90625q-0.546875 0.875 -1.671875 1.390625q-1.125 0.515625 -2.828125 0.515625l0 0zm16.499939 4.1875l0 -6.40625q-0.375 0.671875 -0.953125 1.1875q-0.5625 0.5 -1.265625 0.765625q-0.703125 0.265625 -1.515625 0.265625q-1.03125 0 -1.953125 -0.46875q-0.921875 -0.46875 -1.609375 -1.296875q-0.671875 -0.84375 -1.0625 -2.015625q-0.375 -1.171875 -0.375 -2.609375q0 -1.53125 0.421875 -2.703125q0.421875 -1.171875 1.15625 -2.0q0.734375 -0.828125 1.703125 -1.25q0.984375 -0.421875 2.078125 -0.421875q0.640625 0 1.171875 0.15625q0.53125 0.140625 0.96875 0.40625q0.4375 0.265625 0.765625 0.671875q0.34375 0.390625 0.578125 0.875l0 -1.796875l1.8125 0l0 16.640625l-1.921875 0zm-3.375 -5.859375q0.6875 0 1.28125 -0.28125q0.609375 -0.28125 1.0625 -0.875q0.46875 -0.609375 0.71875 -1.5625q0.265625 -0.96875 0.265625 -2.296875q0 -1.25 -0.234375 -2.109375q-0.21875 -0.875 -0.65625 -1.390625q-0.421875 -0.53125 -0.984375 -0.765625q-0.546875 -0.234375 -1.25 -0.234375q-0.75 0 -1.421875 0.28125q-0.65625 0.265625 -1.15625 0.84375q-0.484375 0.578125 -0.765625 1.46875q-0.28125 0.890625 -0.28125 2.125q0 1.109375 0.234375 2.0q0.25 0.875 0.703125 1.5q0.453125 0.625 1.078125 0.96875q0.625 0.328125 1.40625 0.328125zm12.734375 1.703125q-0.71875 0 -1.359375 -0.21875q-0.640625 -0.21875 -1.15625 -0.65625q-0.515625 -0.4375 -0.890625 -1.09375q-0.375 -0.671875 -0.578125 -1.609375q-0.203125 -0.9375 -0.203125 -2.109375l0.03125 -6.796875l1.859375 0l0 6.796875q0 1.15625 0.21875 1.953125q0.21875 0.796875 0.59375 1.28125q0.390625 0.484375 0.890625 0.703125q0.515625 0.203125 1.078125 0.203125q0.640625 0 1.21875 -0.25q0.59375 -0.265625 1.046875 -0.765625q0.46875 -0.5 0.734375 -1.296875q0.28125 -0.8125 0.28125 -1.90625l0 -6.71875l1.859375 0l0 10.296875q0 0.484375 0.03125 0.953125q0.046875 0.453125 0.234375 0.9375l-1.84375 0q-0.125 -0.3125 -0.1875 -0.625q-0.046875 -0.3125 -0.0625 -0.625q-0.015625 -0.328125 -0.015625 -0.609375q-0.28125 0.5 -0.6875 0.90625q-0.40625 0.390625 -0.90625 0.671875q-0.484375 0.28125 -1.03125 0.421875q-0.546875 0.15625 -1.15625 0.15625zm12.734314 -10.078125l-0.90625 -0.796875q0.515625 -0.484375 0.890625 -1.0q0.390625 -0.53125 0.609375 -1.0q0.234375 -0.484375 0.234375 -0.796875q0 -0.296875 -0.203125 -0.515625q-0.1875 -0.234375 -0.46875 -0.4375q-0.28125 -0.21875 -0.484375 -0.484375q-0.203125 -0.28125 -0.203125 -0.625q0 -0.65625 0.4375 -1.109375q0.453125 -0.453125 1.140625 -0.453125q0.6875 0 1.25 0.609375q0.5625 0.609375 0.5625 1.59375q0 0.703125 -0.328125 1.5q-0.3125 0.796875 -0.9375 1.671875q-0.625 0.859375 -1.59375 1.84375zm13.656189 10.078125q-2.078125 0 -3.203125 -0.9375q-1.109375 -0.953125 -1.109375 -2.421875q0 -0.984375 0.46875 -1.765625q0.484375 -0.796875 1.3125 -1.34375q0.84375 -0.546875 1.96875 -0.828125q1.125 -0.296875 2.375 -0.296875q0.453125 0 0.921875 0.015625q0.46875 0 0.984375 0.046875q0.515625 0.03125 1.078125 0.109375l0.046875 1.46875q-0.46875 -0.078125 -0.96875 -0.109375q-0.484375 -0.046875 -0.96875 -0.0625q-0.484375 -0.03125 -0.9375 -0.03125q-0.953125 0 -1.765625 0.15625q-0.796875 0.15625 -1.390625 0.484375q-0.578125 0.3125 -0.90625 0.828125q-0.3125 0.5 -0.3125 1.21875q0 0.5625 0.203125 0.953125q0.203125 0.375 0.546875 0.609375q0.34375 0.21875 0.8125 0.328125q0.46875 0.109375 1.03125 0.109375q1.03125 0 1.84375 -0.328125q0.828125 -0.34375 1.390625 -0.984375q0.578125 -0.640625 0.859375 -1.5625q0.296875 -0.9375 0.296875 -2.140625q0 -1.8125 -0.421875 -2.8125q-0.421875 -1.015625 -1.265625 -1.4375q-0.84375 -0.4375 -2.140625 -0.4375q-0.890625 0 -1.75 0.34375q-0.84375 0.328125 -1.53125 1.015625l-0.9375 -1.234375q0.859375 -0.84375 1.96875 -1.265625q1.125 -0.4375 2.375 -0.4375q1.203125 0 2.1875 0.296875q0.984375 0.296875 1.6875 0.984375q0.71875 0.671875 1.09375 1.828125q0.390625 1.140625 0.390625 2.859375l0 6.484375l-2.078125 0l0 -1.859375q-0.34375 0.65625 -0.84375 1.09375q-0.484375 0.421875 -1.046875 0.65625q-0.5625 0.21875 -1.15625 0.3125q-0.578125 0.09375 -1.109375 0.09375zm0.875 -13.8125l-2.6875 -3.59375l1.46875 -1.0625l2.234375 3.96875l-1.015625 0.6875zm8.593689 13.8125q-0.640625 0 -1.09375 -0.453125q-0.453125 -0.453125 -0.453125 -1.0625q0 -0.625 0.453125 -1.078125q0.453125 -0.453125 1.09375 -0.453125q0.609375 0 1.0625 0.453125q0.453125 0.453125 0.453125 1.078125q0 0.609375 -0.453125 1.0625q-0.453125 0.453125 -1.0625 0.453125zm4.578125 0q-0.640625 0 -1.09375 -0.453125q-0.453125 -0.453125 -0.453125 -1.0625q0 -0.625 0.453125 -1.078125q0.453125 -0.453125 1.09375 -0.453125q0.609375 0 1.0625 0.453125q0.453125 0.453125 0.453125 1.078125q0 0.609375 -0.453125 1.0625q-0.453125 0.453125 -1.0625 0.453125zm4.640625 0q-0.640625 0 -1.09375 -0.453125q-0.453125 -0.453125 -0.453125 -1.0625q0 -0.625 0.453125 -1.078125q0.453125 -0.453125 1.09375 -0.453125q0.609375 0 1.0625 0.453125q0.453125 0.453125 0.453125 1.078125q0 0.609375 -0.453125 1.0625q-0.453125 0.453125 -1.0625 0.453125z" fill-rule="nonzero"/><path fill="#000000" fill-opacity="0.0" d="m623.52496 354.31235l243.62201 0l0 51.716522l-243.62201 0z" fill-rule="evenodd"/><path fill="#000000" d="m634.6031 388.91232l0 -16.640625l9.578125 0l0 1.640625l-7.71875 0l0 5.21875l6.21875 0l0 1.625l-6.21875 0l0 8.15625l-1.859375 0zm13.921814 0l0 -1.546875l3.109375 0l0 -9.09375l-2.953125 0l0 -1.546875l4.875 0l0 10.640625l2.859375 0l0 1.546875l-7.890625 0zm3.953125 -14.734375q-0.5625 0 -0.96875 -0.40625q-0.390625 -0.40625 -0.390625 -0.953125q0 -0.59375 0.390625 -0.984375q0.390625 -0.40625 0.96875 -0.40625q0.5625 0 0.96875 0.421875q0.421875 0.40625 0.421875 0.96875q0 0.546875 -0.421875 0.953125q-0.40625 0.40625 -0.96875 0.40625zm8.624939 14.734375l0 -12.1875l1.859375 0l0 2.171875q0.484375 -0.75 1.125 -1.296875q0.640625 -0.546875 1.40625 -0.84375q0.78125 -0.3125 1.609375 -0.3125q1.015625 0 1.8125 0.5q0.796875 0.5 1.265625 1.625q0.484375 1.125 0.484375 2.953125l0 7.390625l-1.859375 0l0 -7.328125q0 -1.28125 -0.296875 -2.03125q-0.296875 -0.765625 -0.796875 -1.09375q-0.5 -0.34375 -1.140625 -0.34375q-0.625 0 -1.25 0.265625q-0.625 0.265625 -1.15625 0.765625q-0.53125 0.484375 -0.875 1.1875q-0.328125 0.6875 -0.328125 1.5625l0 7.015625l-1.859375 0zm17.031189 0.296875q-2.078125 0 -3.203125 -0.9375q-1.109375 -0.953125 -1.109375 -2.421875q0 -0.984375 0.46875 -1.765625q0.484375 -0.796875 1.3125 -1.34375q0.84375 -0.546875 1.96875 -0.828125q1.125 -0.296875 2.375 -0.296875q0.453125 0 0.921875 0.015625q0.46875 0 0.984375 0.046875q0.515625 0.03125 1.078125 0.109375l0.046875 1.46875q-0.46875 -0.078125 -0.96875 -0.109375q-0.484375 -0.046875 -0.96875 -0.0625q-0.484375 -0.03125 -0.9375 -0.03125q-0.953125 0 -1.765625 0.15625q-0.796875 0.15625 -1.390625 0.484375q-0.578125 0.3125 -0.90625 0.828125q-0.3125 0.5 -0.3125 1.21875q0 0.5625 0.203125 0.953125q0.203125 0.375 0.546875 0.609375q0.34375 0.21875 0.8125 0.328125q0.46875 0.109375 1.03125 0.109375q1.03125 0 1.84375 -0.328125q0.828125 -0.34375 1.390625 -0.984375q0.578125 -0.640625 0.859375 -1.5625q0.296875 -0.9375 0.296875 -2.140625q0 -1.8125 -0.421875 -2.8125q-0.421875 -1.015625 -1.265625 -1.4375q-0.84375 -0.4375 -2.140625 -0.4375q-0.890625 0 -1.75 0.34375q-0.84375 0.328125 -1.53125 1.015625l-0.9375 -1.234375q0.859375 -0.84375 1.96875 -1.265625q1.125 -0.4375 2.375 -0.4375q1.203125 0 2.1875 0.296875q0.984375 0.296875 1.6875 0.984375q0.71875 0.671875 1.09375 1.828125q0.390625 1.140625 0.390625 2.859375l0 6.484375l-2.078125 0l0 -1.859375q-0.34375 0.65625 -0.84375 1.09375q-0.484375 0.421875 -1.046875 0.65625q-0.5625 0.21875 -1.15625 0.3125q-0.578125 0.09375 -1.109375 0.09375zm9.8125 -0.296875l0 -1.546875l3.59375 0l0 -14.640625l-3.4375 0l0 -1.53125l5.390625 0l0 16.171875l3.5625 0l0 1.546875l-9.109375 0zm18.468689 0.265625q-1.328125 0 -2.421875 -0.40625q-1.09375 -0.421875 -1.890625 -1.21875q-0.78125 -0.796875 -1.203125 -1.984375q-0.421875 -1.1875 -0.421875 -2.703125q0 -1.546875 0.4375 -2.75q0.4375 -1.203125 1.1875 -2.015625q0.765625 -0.8125 1.78125 -1.234375q1.03125 -0.421875 2.1875 -0.421875q1.03125 0 1.9375 0.34375q0.90625 0.34375 1.578125 1.046875q0.671875 0.703125 1.046875 1.796875q0.390625 1.09375 0.390625 2.59375q0 0.203125 -0.015625 0.4375q-0.015625 0.21875 -0.03125 0.4375l-8.671875 0q0.0625 1.171875 0.40625 2.046875q0.34375 0.859375 0.90625 1.40625q0.5625 0.546875 1.296875 0.8125q0.734375 0.265625 1.546875 0.265625q0.640625 0 1.203125 -0.140625q0.5625 -0.15625 1.046875 -0.453125q0.5 -0.3125 0.90625 -0.765625l1.0625 1.046875q-0.5 0.609375 -1.15625 1.03125q-0.65625 0.421875 -1.4375 0.625q-0.765625 0.203125 -1.671875 0.203125zm-4.03125 -7.5625l6.703125 0q0 -0.859375 -0.234375 -1.53125q-0.21875 -0.6875 -0.640625 -1.171875q-0.40625 -0.5 -0.984375 -0.75q-0.578125 -0.265625 -1.296875 -0.265625q-0.640625 0 -1.21875 0.21875q-0.5625 0.21875 -1.046875 0.6875q-0.46875 0.453125 -0.8125 1.15625q-0.328125 0.6875 -0.46875 1.65625zm11.124939 7.296875l0 -12.1875l1.75 0l0 1.203125q0.296875 -0.453125 0.6875 -0.78125q0.390625 -0.34375 0.84375 -0.515625q0.46875 -0.1875 0.953125 -0.1875q0.53125 0 0.984375 0.234375q0.453125 0.21875 0.75 0.625q0.3125 0.390625 0.421875 0.921875q0.25 -0.53125 0.65625 -0.921875q0.421875 -0.40625 0.953125 -0.625q0.546875 -0.234375 1.140625 -0.234375q0.609375 0 1.0625 0.234375q0.453125 0.234375 0.75 0.65625q0.296875 0.40625 0.421875 0.984375q0.140625 0.578125 0.109375 1.234375l0 9.359375l-1.75 0l0 -8.640625q0 -1.109375 -0.15625 -1.609375q-0.140625 -0.515625 -0.40625 -0.65625q-0.265625 -0.15625 -0.59375 -0.15625q-0.5 0 -0.953125 0.46875q-0.4375 0.46875 -0.71875 1.15625q-0.265625 0.6875 -0.265625 1.390625l0 8.046875l-1.796875 0l0 -8.484375q0 -1.515625 -0.28125 -2.015625q-0.28125 -0.515625 -1.046875 -0.515625q-0.296875 0 -0.609375 0.203125q-0.296875 0.203125 -0.5625 0.5625q-0.265625 0.359375 -0.4375 0.890625q-0.15625 0.53125 -0.15625 1.234375l0 8.125l-1.75 0zm19.562439 0.265625q-1.328125 0 -2.421875 -0.40625q-1.09375 -0.421875 -1.890625 -1.21875q-0.78125 -0.796875 -1.203125 -1.984375q-0.421875 -1.1875 -0.421875 -2.703125q0 -1.546875 0.4375 -2.75q0.4375 -1.203125 1.1875 -2.015625q0.765625 -0.8125 1.78125 -1.234375q1.03125 -0.421875 2.1875 -0.421875q1.03125 0 1.9375 0.34375q0.90625 0.34375 1.578125 1.046875q0.671875 0.703125 1.046875 1.796875q0.390625 1.09375 0.390625 2.59375q0 0.203125 -0.015625 0.4375q-0.015625 0.21875 -0.03125 0.4375l-8.671875 0q0.0625 1.171875 0.40625 2.046875q0.34375 0.859375 0.90625 1.40625q0.5625 0.546875 1.296875 0.8125q0.734375 0.265625 1.546875 0.265625q0.640625 0 1.203125 -0.140625q0.5625 -0.15625 1.046875 -0.453125q0.5 -0.3125 0.90625 -0.765625l1.0625 1.046875q-0.5 0.609375 -1.15625 1.03125q-0.65625 0.421875 -1.4375 0.625q-0.765625 0.203125 -1.671875 0.203125zm-4.03125 -7.5625l6.703125 0q0 -0.859375 -0.234375 -1.53125q-0.21875 -0.6875 -0.640625 -1.171875q-0.40625 -0.5 -0.984375 -0.75q-0.578125 -0.265625 -1.296875 -0.265625q-0.640625 0 -1.21875 0.21875q-0.5625 0.21875 -1.046875 0.6875q-0.46875 0.453125 -0.8125 1.15625q-0.328125 0.6875 -0.46875 1.65625zm12.03125 7.296875l0 -12.1875l1.859375 0l0 2.171875q0.484375 -0.75 1.125 -1.296875q0.640625 -0.546875 1.40625 -0.84375q0.78125 -0.3125 1.609375 -0.3125q1.015625 0 1.8125 0.5q0.796875 0.5 1.265625 1.625q0.484375 1.125 0.484375 2.953125l0 7.390625l-1.859375 0l0 -7.328125q0 -1.28125 -0.296875 -2.03125q-0.296875 -0.765625 -0.796875 -1.09375q-0.5 -0.34375 -1.140625 -0.34375q-0.625 0 -1.25 0.265625q-0.625 0.265625 -1.15625 0.765625q-0.53125 0.484375 -0.875 1.1875q-0.328125 0.6875 -0.328125 1.5625l0 7.015625l-1.859375 0zm19.374939 0.1875q-1.171875 0 -1.921875 -0.390625q-0.75 -0.40625 -1.15625 -1.25q-0.390625 -0.84375 -0.515625 -2.109375q-0.109375 -1.28125 -0.0625 -3.046875l0.328125 -8.6875l2.0 -0.25l0.265625 -0.015625l0.03125 0.1875q-0.140625 0.1875 -0.234375 0.375q-0.09375 0.171875 -0.140625 0.625l-0.25 3.015625l0.078125 0.484375l-0.1875 4.390625q-0.078125 2.03125 0.109375 3.140625q0.1875 1.109375 0.671875 1.53125q0.484375 0.40625 1.28125 0.40625q0.875 0 1.546875 -0.34375q0.6875 -0.359375 1.4375 -0.890625l0.578125 1.515625q-0.90625 0.671875 -1.859375 1.0q-0.953125 0.3125 -2.0 0.3125l0 0zm-6.109375 -12.375l8.78125 0l0 1.578125l-8.78125 0l0 -1.578125zm31.140503 12.484375q-0.640625 0 -1.09375 -0.453125q-0.453125 -0.453125 -0.453125 -1.0625q0 -0.625 0.453125 -1.078125q0.453125 -0.453125 1.09375 -0.453125q0.609375 0 1.0625 0.453125q0.453125 0.453125 0.453125 1.078125q0 0.609375 -0.453125 1.0625q-0.453125 0.453125 -1.0625 0.453125zm13.328125 0q-0.640625 0 -1.09375 -0.453125q-0.453125 -0.453125 -0.453125 -1.0625q0 -0.625 0.453125 -1.078125q0.453125 -0.453125 1.09375 -0.453125q0.609375 0 1.0625 0.453125q0.453125 0.453125 0.453125 1.078125q0 0.609375 -0.453125 1.0625q-0.453125 0.453125 -1.0625 0.453125zm13.328064 0q-0.640625 0 -1.09375 -0.453125q-0.453125 -0.453125 -0.453125 -1.0625q0 -0.625 0.453125 -1.078125q0.453125 -0.453125 1.09375 -0.453125q0.609375 0 1.0625 0.453125q0.453125 0.453125 0.453125 1.078125q0 0.609375 -0.453125 1.0625q-0.453125 0.453125 -1.0625 0.453125z" fill-rule="nonzero"/></g></svg>